STARTFONT 2.1
FONT -FontForge-Lobster-Book-R-Normal--32-320-72-72-P-187-ISO10646-1
SIZE 32 72 72
FONTBOUNDINGBOX 65 48 -15 -16
COMMENT "Generated by fontforge, http://fontforge.sourceforge.net"
COMMENT "Copyright 2010 The Lobster Project Authors (https://github.com/impallari/The-Lobster-Font), with Reserved Font Name "Lobster"."
STARTPROPERTIES 40
FOUNDRY "FontForge"
FAMILY_NAME "Lobster"
WEIGHT_NAME "Book"
SLANT "R"
SETWIDTH_NAME "Normal"
ADD_STYLE_NAME ""
PIXEL_SIZE 32
POINT_SIZE 320
RESOLUTION_X 72
RESOLUTION_Y 72
SPACING "P"
AVERAGE_WIDTH 187
CHARSET_REGISTRY "ISO10646"
CHARSET_ENCODING "1"
FONTNAME_REGISTRY ""
CHARSET_COLLECTIONS "ISO8859-2 ISO8859-5 ISO8859-9 ISO8859-4 ISO10646-1"
FONT_NAME "Lobster-Regular"
FACE_NAME "Lobster Regular"
COPYRIGHT "Copyright 2010 The Lobster Project Authors (https://github.com/impallari/The-Lobster-Font), with Reserved Font Name "Lobster"."
FONT_VERSION "2.100"
FONT_ASCENT 26
FONT_DESCENT 6
UNDERLINE_POSITION -3
UNDERLINE_THICKNESS 2
X_HEIGHT 16
CAP_HEIGHT 23
DEFAULT_CHAR 1
RAW_ASCENT 800
RAW_DESCENT 200
NORM_SPACE 7
RELATIVE_WEIGHT 40
RELATIVE_SETWIDTH 50
SUPERSCRIPT_X 0
SUPERSCRIPT_Y 11
SUPERSCRIPT_SIZE 19
SUBSCRIPT_X 0
SUBSCRIPT_Y 2
SUBSCRIPT_SIZE 19
AVG_LOWERCASE_WIDTH 150
AVG_UPPERCASE_WIDTH 197
ENDPROPERTIES
CHARS 1148
STARTCHAR NULL.dup1
ENCODING 0
SWIDTH 600 0
DWIDTH 19 0
BBX 1 1 0 0
BITMAP
00
ENDCHAR
STARTCHAR nonmarkingreturn
ENCODING 13
SWIDTH 600 0
DWIDTH 19 0
BBX 1 1 0 0
BITMAP
00
ENDCHAR
STARTCHAR space
ENCODING 32
SWIDTH 217 0
DWIDTH 7 0
BBX 1 1 0 0
BITMAP
00
ENDCHAR
STARTCHAR exclam
ENCODING 33
SWIDTH 257 0
DWIDTH 8 0
BBX 10 24 1 0
BITMAP
01C0
0F80
0F80
0F80
0F00
0F00
0F00
0E00
1E00
1E00
1E00
1C00
1C00
1C00
3800
3800
3800
0000
0000
7000
F800
F800
F800
7000
ENDCHAR
STARTCHAR quotedbl
ENCODING 34
SWIDTH 353 0
DWIDTH 11 0
BBX 10 7 3 17
BITMAP
39C0
7BC0
7380
7380
E700
E700
C600
ENDCHAR
STARTCHAR numbersign
ENCODING 35
SWIDTH 659 0
DWIDTH 21 0
BBX 17 20 2 2
BITMAP
038600
030E00
030E00
030C00
070C00
070C00
3FFF80
7FFF80
0E1800
0E1800
0C1800
0C3800
FFFF00
FFFE00
1C3000
187000
187000
186000
386000
306000
ENDCHAR
STARTCHAR dollar
ENCODING 36
SWIDTH 548 0
DWIDTH 18 0
BBX 17 32 0 -5
BITMAP
000C00
000800
000800
00FC00
01FF00
03DF00
079380
073380
0F3380
0FB780
07A700
07E000
07E000
03E000
01F000
00F800
00FC00
00FE00
3CFE00
7E9E00
799E00
F19E00
F19E00
711E00
733C00
3FF800
1FF000
030000
020000
060000
060000
060000
ENDCHAR
STARTCHAR percent
ENCODING 37
SWIDTH 796 0
DWIDTH 25 0
BBX 23 24 2 0
BITMAP
0F00E0
3F80C0
3981C0
71C180
F1C380
E1C300
E1C600
E1C600
E38C00
E39C00
E31800
E73878
E630FC
7C71CE
00638E
00C38E
00C70E
01870E
03870E
03070C
07071C
060718
0E0330
1C01E0
ENDCHAR
STARTCHAR ampersand
ENCODING 38
SWIDTH 682 0
DWIDTH 22 0
BBX 21 25 0 -1
BITMAP
007C00
01FE00
03C700
078700
078780
078700
078F00
078000
078000
07C000
03F008
07C038
1F87F8
3F1FF8
3E1FF0
7E1F80
7C1180
7C0100
FC0300
FC0700
7E0E00
7FFC00
3FF800
1FF000
020000
ENDCHAR
STARTCHAR quotesingle
ENCODING 39
SWIDTH 196 0
DWIDTH 6 0
BBX 5 7 3 17
BITMAP
38
78
70
70
E0
E0
C0
ENDCHAR
STARTCHAR parenleft
ENCODING 40
SWIDTH 437 0
DWIDTH 14 0
BBX 12 32 5 -8
BITMAP
0030
00E0
01C0
0380
0700
0E00
0E00
1C00
3C00
3800
7800
7800
7000
F000
F000
F000
F000
F000
F000
E000
E000
E000
F000
F000
7000
7000
7000
3000
3800
1800
0C00
0800
ENDCHAR
STARTCHAR parenright
ENCODING 41
SWIDTH 413 0
DWIDTH 13 0
BBX 12 32 -2 -8
BITMAP
0300
0180
0180
01C0
00C0
00E0
00E0
00E0
00F0
00F0
00F0
00F0
00F0
00F0
00F0
00F0
00F0
00E0
01E0
01E0
01C0
03C0
0380
0380
0700
0F00
0E00
1C00
3800
7000
C000
8000
ENDCHAR
STARTCHAR asterisk
ENCODING 42
SWIDTH 515 0
DWIDTH 16 0
BBX 11 12 3 12
BITMAP
0E00
0E00
CE00
EDE0
FFE0
3F00
3F80
FFC0
EDC0
0E40
0E00
0C00
ENDCHAR
STARTCHAR plus
ENCODING 43
SWIDTH 442 0
DWIDTH 14 0
BBX 13 11 0 5
BITMAP
0380
0380
0380
0300
0300
7FF8
FFF0
0600
0600
0E00
0E00
ENDCHAR
STARTCHAR comma
ENCODING 44
SWIDTH 216 0
DWIDTH 7 0
BBX 4 9 1 -4
BITMAP
70
F0
F0
F0
70
30
60
C0
80
ENDCHAR
STARTCHAR hyphen
ENCODING 45
SWIDTH 290 0
DWIDTH 9 0
BBX 7 2 1 7
BITMAP
FE
FC
ENDCHAR
STARTCHAR period
ENCODING 46
SWIDTH 263 0
DWIDTH 8 0
BBX 5 5 1 0
BITMAP
70
F8
F8
F8
70
ENDCHAR
STARTCHAR slash
ENCODING 47
SWIDTH 311 0
DWIDTH 10 0
BBX 9 32 0 -8
BITMAP
0180
0180
0180
0380
0300
0300
0300
0300
0700
0600
0600
0600
0E00
0E00
0C00
0C00
0C00
1C00
1C00
1800
1800
1800
3800
3000
3000
3000
3000
7000
6000
6000
6000
E000
ENDCHAR
STARTCHAR zero
ENCODING 48
SWIDTH 546 0
DWIDTH 17 0
BBX 17 24 1 0
BITMAP
00F800
03FE00
079F00
0F0F00
1F0F00
3E0F80
3E0F80
7C0F80
7C0F80
7C0F80
F80F80
F80F00
F80F00
F80F00
F81F00
F81E00
F01E00
F03E00
F03C00
F83C00
F87800
78F000
3FE000
1F8000
ENDCHAR
STARTCHAR one
ENCODING 49
SWIDTH 317 0
DWIDTH 10 0
BBX 9 23 1 0
BITMAP
0080
0780
7F80
7F80
0F00
0F00
1F00
1F00
1E00
1E00
3E00
3E00
3E00
3C00
3C00
7C00
7C00
7800
7800
F800
F800
F800
F000
ENDCHAR
STARTCHAR two
ENCODING 50
SWIDTH 492 0
DWIDTH 16 0
BBX 15 25 0 -1
BITMAP
03F0
0FF8
1C7C
1C3E
383E
383E
3C3E
3E3E
1C3E
007C
0078
00F0
01E0
03C0
0780
0F00
1C00
3800
7000
7004
FFFC
FFFC
FFFC
C7F8
0020
ENDCHAR
STARTCHAR three
ENCODING 51
SWIDTH 514 0
DWIDTH 16 0
BBX 16 24 0 0
BITMAP
01F8
07FE
0F1E
0E0F
1E0F
1E0F
0F1F
061E
003C
0078
03F0
00F8
007C
003E
3C3E
7E1F
F81F
F01E
F03E
F03E
F07C
78F8
3FF0
0FC0
ENDCHAR
STARTCHAR four
ENCODING 52
SWIDTH 476 0
DWIDTH 15 0
BBX 15 24 0 0
BITMAP
01C0
01E0
01E0
01E0
01E0
03C0
03CC
078C
071C
0F18
0E18
1C38
383A
6FFE
7FFE
FFFE
C1FC
00F0
00F0
00E0
01E0
01E0
03E0
03E0
ENDCHAR
STARTCHAR five
ENCODING 53
SWIDTH 517 0
DWIDTH 17 0
BBX 16 23 0 0
BITMAP
0001
07FF
07FF
0FFF
0E7C
0E00
0C00
0C00
1DF0
1FFC
1FFC
187E
003E
001E
1C1E
3E1E
781E
703E
F03C
707C
78F8
3FF0
1FC0
ENDCHAR
STARTCHAR six
ENCODING 54
SWIDTH 500 0
DWIDTH 16 0
BBX 15 24 1 0
BITMAP
00F8
03FC
078E
0F0E
1E0E
3E1E
3C0C
7C00
7800
F800
F9F0
FFF8
FC7C
F83C
F83C
F03C
F03C
F03C
F03C
F038
F878
78F0
3FE0
1F80
ENDCHAR
STARTCHAR seven
ENCODING 55
SWIDTH 464 0
DWIDTH 15 0
BBX 15 24 2 0
BITMAP
3C00
7F06
FFFC
FFFC
C1B8
8070
0070
00E0
01C0
03C0
0780
0F00
0F00
1E00
3E00
3C00
7C00
7C00
7800
F800
F800
7800
7C00
3C00
ENDCHAR
STARTCHAR eight
ENCODING 56
SWIDTH 499 0
DWIDTH 16 0
BBX 16 24 0 0
BITMAP
01F8
07FE
0F8E
0F07
1F07
1F0F
1F0F
1F8E
0F9C
0FF8
07E0
03F0
0FF8
3CFC
787E
783E
F03E
F01E
F01E
F03E
F83C
7878
3FF0
0FC0
ENDCHAR
STARTCHAR nine
ENCODING 57
SWIDTH 489 0
DWIDTH 16 0
BBX 16 24 0 0
BITMAP
01F0
07FC
0E3C
1C1E
3C1E
781F
781F
781F
781F
781F
783F
7C7F
3FDE
0F3E
003E
003E
003C
207C
7078
E0F8
E1F0
73E0
7FC0
3F00
ENDCHAR
STARTCHAR colon
ENCODING 58
SWIDTH 267 0
DWIDTH 9 0
BBX 7 13 1 2
BITMAP
1C
3E
3E
3E
1C
00
00
00
70
78
F8
F8
70
ENDCHAR
STARTCHAR semicolon
ENCODING 59
SWIDTH 276 0
DWIDTH 9 0
BBX 7 16 1 -3
BITMAP
1C
3E
3E
3E
1C
00
00
20
78
F8
78
78
30
30
20
40
ENDCHAR
STARTCHAR less
ENCODING 60
SWIDTH 358 0
DWIDTH 11 0
BBX 11 11 0 3
BITMAP
0020
00E0
03C0
0F80
3E00
F800
F800
3E00
0F80
03C0
0180
ENDCHAR
STARTCHAR equal
ENCODING 61
SWIDTH 515 0
DWIDTH 16 0
BBX 14 11 1 3
BITMAP
3FFC
3FFC
3FFC
7FF8
0000
0000
0000
7FF8
FFF0
FFF0
FFF0
ENDCHAR
STARTCHAR greater
ENCODING 62
SWIDTH 362 0
DWIDTH 12 0
BBX 11 11 0 3
BITMAP
3000
3C00
3F00
0F80
03E0
01E0
07C0
1F00
7C00
F000
C000
ENDCHAR
STARTCHAR question
ENCODING 63
SWIDTH 441 0
DWIDTH 14 0
BBX 13 24 1 0
BITMAP
0FC0
1FF0
38F0
70F8
70F8
70F8
78F0
78F0
01E0
03C0
0700
0E00
0C00
1C00
1800
3800
3000
0000
0000
7800
7800
FC00
7800
3800
ENDCHAR
STARTCHAR at
ENCODING 64
SWIDTH 688 0
DWIDTH 22 0
BBX 21 22 0 -3
BITMAP
007F00
01FFC0
07C0E0
0F0070
1E0030
1C7738
38FE38
71EE38
73CE38
E38E38
E38C70
E71C70
E71CE0
E71DE0
E7EFC0
E3CF00
E00000
F00600
781E00
7FFE00
3FFC00
0FE000
ENDCHAR
STARTCHAR A
ENCODING 65
SWIDTH 668 0
DWIDTH 21 0
BBX 22 27 0 -3
BITMAP
00007C
0000FC
0003FC
00077C
000E78
000C78
001CF8
0038F8
0070F0
0070F0
0FE1F0
3FFFF0
79C3F0
F3C1E0
F381E0
2783E0
0783E0
0F03E0
0F03C0
0F03C0
1E07C0
1E07C0
1E0780
1E0780
1E0000
1E0000
1E0000
ENDCHAR
STARTCHAR B
ENCODING 66
SWIDTH 641 0
DWIDTH 21 0
BBX 19 25 0 -1
BITMAP
00FE00
03FF80
0F03C0
1C09E0
39F1E0
71F0E0
71F1E0
F1E1C0
E1E3C0
E3E780
63FF80
33FFC0
03C3E0
07C3E0
07C1E0
07C1E0
0781E0
0781E0
0F81E0
0F83E0
0FC3C0
0F7FC0
0F7F80
1F3F00
000800
ENDCHAR
STARTCHAR C
ENCODING 67
SWIDTH 497 0
DWIDTH 16 0
BBX 16 25 1 -1
BITMAP
00FC
03FE
07C7
0F83
1F07
3F07
3E0F
7E04
7C00
7C00
FC00
F800
F800
F800
F800
F800
F800
F800
F801
F802
FC06
FFFC
7FF8
3FE0
0200
ENDCHAR
STARTCHAR D
ENCODING 68
SWIDTH 663 0
DWIDTH 21 0
BBX 21 25 0 -1
BITMAP
00FE00
03FF80
0F03C0
1C01E0
39F0F0
71F0F0
71E0F0
E1E0F8
E3E0F8
E3E0F8
63E0F8
33C0F8
03C0F0
07C0F0
07C1F0
0781F0
0781E0
0F83E0
0F83E0
0F87C0
0F0780
0F9F80
1FFF00
1F7E00
001000
ENDCHAR
STARTCHAR E
ENCODING 69
SWIDTH 459 0
DWIDTH 15 0
BBX 16 25 0 -1
BITMAP
007C
01FE
03C7
0787
0787
0F07
0F0E
0F00
0F80
0780
03F0
0FC0
1F00
3F00
7E00
7C00
7C00
FC00
FC02
FC02
FC0C
7FF8
7FF0
3FE0
0600
ENDCHAR
STARTCHAR F
ENCODING 70
SWIDTH 459 0
DWIDTH 15 0
BBX 19 24 0 0
BITMAP
01FFE0
0FFFE0
19FFC0
31F000
71F000
71E000
63E000
E3E000
E3E000
E3E000
63FE00
37FE00
07C000
07C000
07C000
078000
0F8000
0F8000
0F8000
0F0000
0F0000
1F0000
1F0000
1F0000
ENDCHAR
STARTCHAR G
ENCODING 71
SWIDTH 578 0
DWIDTH 19 0
BBX 17 31 1 -7
BITMAP
00FC00
03FF00
0FC380
1F0380
3E0380
3E0380
7C0780
7C0300
F80000
F80000
F80000
F80700
F80F00
F80F00
F80F00
F81F00
F83E00
7C7E00
7FDE00
3FBE00
0F3C00
003C00
1F3C00
3F7C00
3F7800
707800
707800
70F000
39E000
3FC000
0F8000
ENDCHAR
STARTCHAR H
ENCODING 72
SWIDTH 665 0
DWIDTH 21 0
BBX 22 24 0 0
BITMAP
00F87C
03F87C
0FF07C
1CF078
39F078
71F0F8
71F0F8
F1E0F8
E1E0F0
E3E0F0
63FFF0
33FFF0
03C1F0
07C1E0
07C1E0
07C3E0
0783E0
0783E0
0F83C0
0F87C0
0F87C0
0F07C0
0F0780
1F0780
ENDCHAR
STARTCHAR I
ENCODING 73
SWIDTH 375 0
DWIDTH 12 0
BBX 13 24 0 0
BITMAP
00F8
03F0
0EF0
1DF0
39F0
71F0
F1E0
E1E0
E3E0
E3E0
63C0
13C0
07C0
07C0
07C0
0780
0780
0F80
0F80
0F80
0F00
0F00
1F00
1F00
ENDCHAR
STARTCHAR J
ENCODING 74
SWIDTH 536 0
DWIDTH 17 0
BBX 18 31 1 -7
BITMAP
0007C0
003F80
007F80
01CF80
038F80
038F00
070F00
071F00
071F00
071F00
031E00
003E00
003E00
003E00
003C00
003C00
007C00
007C00
007C00
007800
00F800
00F800
7CF800
FEF800
FEF000
E1F000
C1F000
C1E000
E3C000
7F8000
3E0000
ENDCHAR
STARTCHAR K
ENCODING 75
SWIDTH 601 0
DWIDTH 19 0
BBX 21 25 0 -1
BITMAP
00F838
03F070
0EF0E0
1DF1C0
39F1C0
71F380
71E700
E1E600
E3EC00
E3FC00
63F800
33FF00
07CF80
07C780
07C780
07C780
078780
0F8780
0F8F80
0F8F00
0F0F00
0F0F00
1F1F00
1F0F80
000400
ENDCHAR
STARTCHAR L
ENCODING 76
SWIDTH 379 0
DWIDTH 12 0
BBX 21 32 0 -8
BITMAP
00F800
03F000
0EF000
1DF000
39F000
71F000
71E000
E1E000
E3E000
E3E000
63C000
13C000
07C000
07C000
07C000
078000
078000
0F8000
0F8000
0F8000
0F0000
0F0000
1F0000
1F8000
1FE000
01F000
007C00
003F08
001FF8
0007F8
0003F0
0000E0
ENDCHAR
STARTCHAR M
ENCODING 77
SWIDTH 787 0
DWIDTH 25 0
BBX 24 24 2 0
BITMAP
01F81F
07F83F
0EF83E
18F83E
31F87E
71F87E
71F8FE
E3F8FE
E3F0FE
E7F1FC
67F1BC
16F3FC
0EF3FC
0EF37C
0CF77C
1CF67C
18FE78
18FC78
38FC78
30FCF8
70F8F8
71F8F8
61F0F8
E1F0F0
ENDCHAR
STARTCHAR N
ENCODING 78
SWIDTH 668 0
DWIDTH 21 0
BBX 23 24 0 0
BITMAP
01F00E
0FF80E
1EF81C
39F81C
79F81C
71FC1C
F1FC1C
E1FC38
E3FC38
E3BC38
73BE38
33BE30
079E70
071E70
071F70
071F70
070FE0
0E0FE0
0E0FE0
0E0FE0
0E07E0
1E07C0
1C07C0
1C07C0
ENDCHAR
STARTCHAR O
ENCODING 79
SWIDTH 665 0
DWIDTH 21 0
BBX 20 24 1 0
BITMAP
00FF00
03FFC0
0F03C0
3C79E0
78F1E0
71E0F0
E3C0F0
E7C0F0
E780F0
CF80F0
CF81F0
3F01F0
1F01E0
1F01E0
1F03E0
1E03E0
3E03C0
3E07C0
3E0780
1E0F00
1F1F00
1FFE00
0FF800
07E000
ENDCHAR
STARTCHAR P
ENCODING 80
SWIDTH 573 0
DWIDTH 18 0
BBX 19 24 0 0
BITMAP
00FE00
03FF80
0F03C0
1C01C0
39F1E0
71F1E0
71E1E0
E1E1E0
E3E1E0
E3E1C0
63E3C0
13C380
03C700
07DE00
07F800
078000
078000
0F8000
0F8000
0F8000
0F0000
0F0000
1F0000
1F0000
ENDCHAR
STARTCHAR Q
ENCODING 81
SWIDTH 665 0
DWIDTH 21 0
BBX 20 27 1 -3
BITMAP
00FF00
03FFC0
0F03C0
3C79E0
78F1E0
71E0F0
E3C0F0
E7C0F0
E780F0
CF80F0
CF81F0
3F01F0
1F01E0
1F01E0
1F03E0
1E03E0
3E03C0
3E07C0
3E0780
1FEF00
1F3F00
1FFE00
0FFC00
07FE00
001F20
000FC0
0007C0
ENDCHAR
STARTCHAR R
ENCODING 82
SWIDTH 601 0
DWIDTH 19 0
BBX 19 25 0 -1
BITMAP
00FE00
03FF80
0F03C0
1C11C0
39F1E0
71F1E0
F1E1C0
E1E1C0
E3E380
E3E700
63FF00
13FF80
07C780
07C780
07C780
078780
078780
0F8780
0F8F80
0F8F00
0F0F00
0F0F00
1F1F00
1F0F80
000400
ENDCHAR
STARTCHAR S
ENCODING 83
SWIDTH 570 0
DWIDTH 18 0
BBX 17 25 1 -1
BITMAP
00FC00
03FE00
07C700
0F8380
0F0380
0F8780
0F8F00
0F8600
0FC000
07E000
03F000
01F800
01FC00
00FC00
1C7E00
7E3E00
7C3E00
F01E00
F01E00
F03E00
F03E00
787C00
7FF800
1FE000
020000
ENDCHAR
STARTCHAR T
ENCODING 84
SWIDTH 481 0
DWIDTH 15 0
BBX 23 24 0 0
BITMAP
01FC02
0FFF86
1FFFFE
3C7FFC
787DF8
707C00
F07C00
E07800
E0F800
E0F800
60F800
70F000
01F000
01F000
01F000
01F000
01E000
03E000
03E000
03E000
03C000
03C000
07C000
07C000
ENDCHAR
STARTCHAR U
ENCODING 85
SWIDTH 716 0
DWIDTH 23 0
BBX 24 24 0 0
BITMAP
00FC0F
07F80F
1E781F
38F81F
70F81E
70F01E
E1F03E
E1F03E
E1E03E
E1E03C
63E03C
13E07C
03C07C
03C07C
07C078
07C0F8
0780F8
0780F0
0781F0
0781E0
07C3E0
03FFC0
01FF80
00FE00
ENDCHAR
STARTCHAR V
ENCODING 86
SWIDTH 615 0
DWIDTH 20 0
BBX 22 24 0 0
BITMAP
00F80C
03F818
0EF818
1CF818
38F830
70F830
F0F870
E0F860
E0F860
E0F8C0
60F8C0
10F8C0
00F980
00F980
00F980
00FB00
00FB00
00FA00
00FE00
00FE00
00FC00
00FC00
00FC00
00F800
ENDCHAR
STARTCHAR W
ENCODING 87
SWIDTH 962 0
DWIDTH 31 0
BBX 33 24 0 0
BITMAP
00F80F0180
03F81F0300
0EF81F0300
1CF81F0300
38F83F0600
70F83F0600
F0F87F0600
E0F87F0C00
E0F87F0C00
E0F8DF0C00
60F8DF1800
10F8DF1800
00F99F1000
00F99F3000
00F99F3000
00FB1F6000
00FB1F6000
00FA1F6000
00FE1FC000
00FE1FC000
00FC1F8000
00FC1F8000
00FC1F8000
00F81F0000
ENDCHAR
STARTCHAR X
ENCODING 88
SWIDTH 620 0
DWIDTH 20 0
BBX 20 24 0 0
BITMAP
00F830
03F860
0EF8E0
1CF8C0
38FD80
707D80
F07F00
E07F00
E07E00
E07E00
603E00
103E00
003E00
003E00
003F00
007F00
007F00
00DF00
019F80
018F80
030F80
030F80
060F80
0E0FC0
ENDCHAR
STARTCHAR Y
ENCODING 89
SWIDTH 620 0
DWIDTH 20 0
BBX 22 24 0 0
BITMAP
00F80C
03F80C
0EF818
1CFC18
387C30
707C30
F07C20
E07E60
E03E60
E03EC0
603EC0
103F80
001F80
001F00
001F00
001F00
003F00
003E00
003E00
003E00
003E00
007E00
007C00
007C00
ENDCHAR
STARTCHAR Z
ENCODING 90
SWIDTH 542 0
DWIDTH 17 0
BBX 18 24 0 0
BITMAP
07FFC0
1FFF80
1C1F00
1C1F00
1C3E00
003E00
007C00
007C00
00F800
00F800
01F000
01F000
03E000
03E000
07C000
07C000
0F8000
0F8000
1F0000
1F0700
3E0F00
3E0700
7FFE00
FFFC00
ENDCHAR
STARTCHAR bracketleft
ENCODING 91
SWIDTH 400 0
DWIDTH 13 0
BBX 13 32 0 -8
BITMAP
03F8
03F8
0380
0380
0380
0780
0700
0700
0700
0F00
0F00
0E00
0E00
0E00
1E00
1E00
1C00
1C00
1C00
3C00
3800
3800
3800
3800
7800
7000
7000
7000
7000
F000
FE00
FE00
ENDCHAR
STARTCHAR backslash
ENCODING 92
SWIDTH 362 0
DWIDTH 12 0
BBX 9 32 1 -8
BITMAP
E000
6000
6000
6000
7000
3000
3000
3000
3000
3800
1800
1800
1800
1C00
1C00
0C00
0C00
0C00
0E00
0E00
0600
0600
0600
0700
0300
0300
0300
0300
0380
0180
0180
0180
ENDCHAR
STARTCHAR bracketright
ENCODING 93
SWIDTH 400 0
DWIDTH 13 0
BBX 14 32 -2 -8
BITMAP
01FC
03F8
0038
0038
0078
0070
0070
0070
0070
00F0
00E0
00E0
00E0
00E0
01E0
01C0
01C0
01C0
03C0
03C0
0380
0380
0380
0780
0780
0700
0700
0700
0F00
0E00
FE00
FE00
ENDCHAR
STARTCHAR asciicircum
ENCODING 94
SWIDTH 421 0
DWIDTH 13 0
BBX 9 6 2 18
BITMAP
0200
0700
0F00
3F00
7100
C080
ENDCHAR
STARTCHAR underscore
ENCODING 95
SWIDTH 444 0
DWIDTH 14 0
BBX 12 2 1 0
BITMAP
7FF0
FFF0
ENDCHAR
STARTCHAR grave
ENCODING 96
SWIDTH 201 0
DWIDTH 6 0
BBX 4 6 1 18
BITMAP
E0
E0
70
70
30
30
ENDCHAR
STARTCHAR a
ENCODING 97
SWIDTH 526 0
DWIDTH 17 0
BBX 18 16 0 0
BITMAP
07DE00
0FFE00
1E3E00
3C3E00
7C3C00
783C00
F87C00
F87C00
F87C00
F07800
F07840
F0F8C0
F9F880
FF7F80
7E7F00
3C3C00
ENDCHAR
STARTCHAR b
ENCODING 98
SWIDTH 444 0
DWIDTH 14 0
BBX 13 22 0 0
BITMAP
1F00
1F00
1F00
1E00
1E00
3E00
3FE0
3FF0
3C78
7C38
7C38
7C38
7838
7838
F878
F870
F870
F0F0
F9E0
FFC0
FF80
3E00
ENDCHAR
STARTCHAR c
ENCODING 99
SWIDTH 384 0
DWIDTH 12 0
BBX 13 16 0 0
BITMAP
07C0
0FE0
1E70
3C70
7C60
7800
F800
F800
F800
F000
F008
F010
F870
FFE0
7F80
3E00
ENDCHAR
STARTCHAR d
ENCODING 100
SWIDTH 525 0
DWIDTH 17 0
BBX 18 22 0 0
BITMAP
000F80
000F00
000F00
001F00
001F00
001F00
07DE00
0FFE00
1E3E00
3C3E00
7C3C00
783C00
F87C00
F87C00
F87C00
F07800
F07840
F0F8C0
F9F880
FF7F80
7F7F00
3C3C00
ENDCHAR
STARTCHAR e
ENCODING 101
SWIDTH 384 0
DWIDTH 12 0
BBX 13 16 0 0
BITMAP
07C0
0FE0
1E70
3C70
7C70
7860
F8E0
F9C0
FF80
FE00
F000
F018
F830
FFE0
7FC0
3F00
ENDCHAR
STARTCHAR f
ENCODING 102
SWIDTH 267 0
DWIDTH 9 0
BBX 19 32 -7 -8
BITMAP
000780
000FE0
001FE0
003E20
003E20
003C00
007C00
007C00
007F00
007800
007800
00F800
00F800
00F800
00F000
00F000
01F000
01F000
01F000
01E000
01E000
03E000
03E000
03C000
0FC000
37C000
67C000
C7C000
CF8000
FF8000
7F0000
3C0000
ENDCHAR
STARTCHAR g
ENCODING 103
SWIDTH 507 0
DWIDTH 16 0
BBX 18 24 0 -8
BITMAP
07DE00
0FFE00
1E3E00
3C3E00
7C3C00
783C00
F87C00
F87C00
F87C00
F07800
F0F8C0
F0F880
F9F980
FFF300
7FF600
3DFC00
03F000
0FF000
1DE000
31E000
33E000
33C000
3FC000
0F0000
ENDCHAR
STARTCHAR h
ENCODING 104
SWIDTH 505 0
DWIDTH 16 0
BBX 19 22 -1 0
BITMAP
0F8000
0F8000
0F8000
0F0000
0F0000
1F0000
1F7800
1FFC00
1FFE00
3F3E00
3E3E00
3E3E00
3C3C00
3C3C00
7C7C00
7C7C00
7C7860
787840
7878C0
F87F80
F87F00
F83E00
ENDCHAR
STARTCHAR i
ENCODING 105
SWIDTH 267 0
DWIDTH 9 0
BBX 10 22 0 0
BITMAP
0E00
1F00
1F00
1F00
0E00
0000
3E00
3C00
3C00
7C00
7C00
7C00
7800
7800
F800
F800
F8C0
F080
F980
FF00
FE00
7800
ENDCHAR
STARTCHAR j
ENCODING 106
SWIDTH 240 0
DWIDTH 8 0
BBX 15 30 -6 -8
BITMAP
0038
0078
007C
0078
0038
0000
00F8
00F8
00F0
01F0
01F0
01F0
01E0
01E0
03E0
03E0
03E0
03C6
03C4
07CC
07D8
07F0
0F80
3F80
FF80
CF80
8F00
9F00
FE00
7C00
ENDCHAR
STARTCHAR k
ENCODING 107
SWIDTH 518 0
DWIDTH 17 0
BBX 19 22 -1 0
BITMAP
0F8000
0F8000
0F8000
0F0000
0F0000
1F0000
1F0F00
1F1C00
1E3800
3E6000
3FF000
3FF800
3FFC00
3E7C00
7C3C00
7C7C00
7C7C60
787C40
787CC0
F87F80
F83F80
F81E00
ENDCHAR
STARTCHAR l
ENCODING 108
SWIDTH 267 0
DWIDTH 9 0
BBX 10 22 0 0
BITMAP
1F00
1F00
1F00
1E00
3E00
3E00
3E00
3C00
3C00
7C00
7C00
7C00
7800
7800
F800
F800
F8C0
F080
F980
FF00
FE00
7C00
ENDCHAR
STARTCHAR m
ENCODING 109
SWIDTH 752 0
DWIDTH 24 0
BBX 26 16 -1 0
BITMAP
1F787800
1FFCFC00
1FFFFE00
3F3F3E00
3E3E3E00
3E3E3C00
3C3C3C00
3C7C3C00
7C7C7C00
7C7C7C00
7C787840
78787840
78F87880
F8F87F80
F8F87F00
F8F03E00
ENDCHAR
STARTCHAR n
ENCODING 110
SWIDTH 505 0
DWIDTH 16 0
BBX 19 16 -1 0
BITMAP
1F7800
1FFC00
1FFE00
3F3E00
3E3E00
3E3E00
3C3C00
3C3C00
7C7C00
7C7C00
7C7860
787840
7878C0
F87F80
F87F00
F83E00
ENDCHAR
STARTCHAR o
ENCODING 111
SWIDTH 439 0
DWIDTH 14 0
BBX 18 16 0 0
BITMAP
03C000
0FF000
1E3000
3C3040
7C71C0
787F00
F87800
F87000
F87000
F07000
F06000
F0E000
F9C000
FFC000
7F8000
3E0000
ENDCHAR
STARTCHAR p
ENCODING 112
SWIDTH 468 0
DWIDTH 15 0
BBX 17 25 -3 -8
BITMAP
07C000
07DE00
07FF00
07CF80
0F8780
0F8780
0F8780
0F0780
0F0F80
1F0F80
1F0F80
1F0F00
1E1F00
1E3E00
3FFE00
3FFC00
3DF000
3C0000
7C0000
7C0000
7C0000
780000
780000
F80000
800000
ENDCHAR
STARTCHAR q
ENCODING 113
SWIDTH 486 0
DWIDTH 16 0
BBX 15 24 0 -8
BITMAP
07DE
0FFE
1E3E
3C3E
7C3C
783C
F87C
F87C
F87C
F078
F0F8
F0F8
F9F8
FFF0
7EF0
3DF0
01F0
01F0
01E0
01E0
03E0
03E0
03C0
0200
ENDCHAR
STARTCHAR r
ENCODING 114
SWIDTH 376 0
DWIDTH 12 0
BBX 13 16 -1 0
BITMAP
1F78
1FF8
1FF8
3F38
3E38
3E00
3C00
3C00
7C00
7C00
7C00
7800
7800
F800
F800
F800
ENDCHAR
STARTCHAR s
ENCODING 115
SWIDTH 382 0
DWIDTH 12 0
BBX 15 17 -1 0
BITMAP
03C0
07C0
07C0
07E0
0FE0
0BE0
1BE0
13E0
33E0
23E0
73E0
F3E6
E3F8
C3F0
C7E0
7F80
3E00
ENDCHAR
STARTCHAR t
ENCODING 116
SWIDTH 267 0
DWIDTH 9 0
BBX 10 21 0 0
BITMAP
0F00
1F00
1E00
3E00
3E00
7F80
3C00
3C00
7C00
7C00
7C00
7800
7800
F800
F800
F8C0
F080
F980
FF00
FE00
7800
ENDCHAR
STARTCHAR u
ENCODING 117
SWIDTH 505 0
DWIDTH 16 0
BBX 18 16 0 0
BITMAP
3E3E00
3C3C00
3C3C00
7C7C00
7C7C00
7C7C00
787800
78F800
F8F800
F8F800
F8F0C0
F1F080
F9F100
FFFF00
FEFE00
787800
ENDCHAR
STARTCHAR v
ENCODING 118
SWIDTH 414 0
DWIDTH 13 0
BBX 13 16 0 0
BITMAP
3E70
3C78
3C78
7C18
7C18
7C18
7830
7830
F830
F860
F860
F0C0
F1C0
FF80
FF00
7C00
ENDCHAR
STARTCHAR w
ENCODING 119
SWIDTH 661 0
DWIDTH 21 0
BBX 21 16 0 0
BITMAP
3E3E70
3C3C78
3C3C78
7C7C18
7C7C18
7C7C30
787830
78F830
F8F870
F8F860
F8F0E0
F1F0C0
F9F1C0
FFFF80
FEFF00
787C00
ENDCHAR
STARTCHAR x
ENCODING 120
SWIDTH 522 0
DWIDTH 17 0
BBX 18 17 0 0
BITMAP
000E00
078F00
0FCF00
1FE300
33E300
31E600
61EC00
61F800
41F000
C1F000
C1F000
03F040
06F0C0
0CF180
18FF00
307E00
703C00
ENDCHAR
STARTCHAR y
ENCODING 121
SWIDTH 486 0
DWIDTH 16 0
BBX 17 24 0 -8
BITMAP
3E3E00
3C3C00
3C3C00
7C7C00
7C7C00
7C7C00
787800
78F800
F8F800
F8F800
F8F180
F1F100
F9F300
FFF200
FFFC00
79F800
07E000
1FE000
3BE000
33E000
67C000
7FC000
3F8000
1E0000
ENDCHAR
STARTCHAR z
ENCODING 122
SWIDTH 428 0
DWIDTH 14 0
BBX 14 16 0 0
BITMAP
0FFC
3FF8
38F0
39F0
31E0
03E0
07C0
0780
0F80
0F00
1F00
1E20
3E70
7C30
7FF0
FFE0
ENDCHAR
STARTCHAR braceleft
ENCODING 123
SWIDTH 352 0
DWIDTH 11 0
BBX 12 32 1 -8
BITMAP
00F0
03F0
0380
0780
0700
0700
0F00
0F00
0F00
0F00
0E00
0E00
0E00
0E00
1E00
7800
F800
1C00
1C00
1C00
3C00
3800
3800
7800
7800
7000
7000
F000
F000
7800
7C00
1C00
ENDCHAR
STARTCHAR bar
ENCODING 124
SWIDTH 532 0
DWIDTH 17 0
BBX 3 32 7 -8
BITMAP
E0
E0
E0
E0
E0
E0
E0
E0
E0
E0
E0
E0
E0
E0
E0
E0
E0
E0
E0
E0
E0
E0
E0
E0
E0
E0
E0
E0
E0
E0
E0
E0
ENDCHAR
STARTCHAR braceright
ENCODING 125
SWIDTH 352 0
DWIDTH 11 0
BBX 11 32 -2 -8
BITMAP
0380
07E0
01E0
01E0
01E0
01E0
01E0
01E0
01C0
01C0
03C0
0380
0380
0380
0380
01E0
01E0
0780
0700
0F00
0F00
0F00
0F00
0F00
0E00
0E00
0E00
1E00
1E00
3C00
FC00
F000
ENDCHAR
STARTCHAR asciitilde
ENCODING 126
SWIDTH 431 0
DWIDTH 14 0
BBX 12 4 2 18
BITMAP
0800
7FF0
FFE0
8FC0
ENDCHAR
STARTCHAR uni00A0
ENCODING 160
SWIDTH 217 0
DWIDTH 7 0
BBX 1 1 0 0
BITMAP
00
ENDCHAR
STARTCHAR exclamdown
ENCODING 161
SWIDTH 219 0
DWIDTH 7 0
BBX 9 24 -2 -8
BITMAP
0700
0780
0F80
0780
0700
0000
0000
0600
0E00
0E00
0E00
1E00
1E00
1C00
1C00
3C00
3C00
3C00
7C00
7C00
7800
7800
F800
E000
ENDCHAR
STARTCHAR cent
ENCODING 162
SWIDTH 384 0
DWIDTH 12 0
BBX 13 24 0 -1
BITMAP
0060
00C0
00C0
00E0
03F8
0FB8
1DB8
3DB8
39B8
7900
7300
F300
F300
F200
F200
F600
7E20
7FE0
3FC0
0F80
0C00
0C00
0800
1800
ENDCHAR
STARTCHAR sterling
ENCODING 163
SWIDTH 455 0
DWIDTH 15 0
BBX 16 24 0 0
BITMAP
003E
00FF
01E7
03E7
03C7
03C6
07C0
0780
0780
0780
7FF8
7FF8
0F00
0F00
0F00
1F00
1F00
1E00
1E01
3C03
3FFF
7FFF
FFFE
40FC
ENDCHAR
STARTCHAR currency
ENCODING 164
SWIDTH 500 0
DWIDTH 16 0
BBX 12 12 2 5
BITMAP
4020
EF70
7FE0
30C0
6060
6060
6060
6060
30C0
7FE0
EF70
4020
ENDCHAR
STARTCHAR yen
ENCODING 165
SWIDTH 558 0
DWIDTH 18 0
BBX 15 24 3 0
BITMAP
FC06
7C06
7C0C
7E0C
3E18
3E18
3E18
3E30
1F30
1F60
1F60
1F40
0FC0
0FC0
7FF8
FFF8
0F80
1F00
FFF8
FFF0
1F00
3F00
3E00
3E00
ENDCHAR
STARTCHAR brokenbar
ENCODING 166
SWIDTH 532 0
DWIDTH 17 0
BBX 3 32 7 -8
BITMAP
E0
E0
E0
E0
E0
E0
E0
E0
E0
E0
E0
E0
E0
E0
00
00
00
E0
E0
E0
E0
E0
E0
E0
E0
E0
E0
E0
E0
E0
E0
E0
ENDCHAR
STARTCHAR section
ENCODING 167
SWIDTH 542 0
DWIDTH 17 0
BBX 17 25 0 -1
BITMAP
003E00
00E300
01C180
03C180
03C700
03C000
03E000
0FF000
1DF800
1CFC00
1E7E00
1F1F00
1F8F00
0FCF00
07E700
03E700
01F700
38FE00
7CFC00
F0F000
E0F000
E0F000
F0F000
7FE000
1F8000
ENDCHAR
STARTCHAR dieresis
ENCODING 168
SWIDTH 392 0
DWIDTH 13 0
BBX 9 4 2 18
BITMAP
E380
F380
F380
E380
ENDCHAR
STARTCHAR copyright
ENCODING 169
SWIDTH 587 0
DWIDTH 19 0
BBX 15 16 2 2
BITMAP
07C0
1FF0
3838
638C
CFE4
DC66
9832
9802
9802
9802
CC66
CFE4
638C
3838
1FF0
07C0
ENDCHAR
STARTCHAR ordfeminine
ENCODING 170
SWIDTH 345 0
DWIDTH 11 0
BBX 9 9 1 14
BITMAP
1F80
3380
7380
6300
6700
E700
E700
FF80
7300
ENDCHAR
STARTCHAR guillemotleft
ENCODING 171
SWIDTH 589 0
DWIDTH 19 0
BBX 16 11 1 3
BITMAP
0041
01C3
078E
1E38
70E0
C180
E3C0
38F0
1E3C
070E
0102
ENDCHAR
STARTCHAR logicalnot
ENCODING 172
SWIDTH 444 0
DWIDTH 14 0
BBX 12 7 1 2
BITMAP
FFF0
FFE0
00E0
01E0
01E0
01E0
01C0
ENDCHAR
STARTCHAR uni00AD
ENCODING 173
SWIDTH 290 0
DWIDTH 9 0
BBX 7 2 1 7
BITMAP
FE
FC
ENDCHAR
STARTCHAR registered
ENCODING 174
SWIDTH 553 0
DWIDTH 18 0
BBX 16 16 1 3
BITMAP
07E0
1FF0
3818
77CC
6466
C432
C422
C7E3
C4C3
C442
C462
6436
700C
3818
1FF0
07C0
ENDCHAR
STARTCHAR macron
ENCODING 175
SWIDTH 446 0
DWIDTH 14 0
BBX 11 2 2 19
BITMAP
7FE0
FFE0
ENDCHAR
STARTCHAR degree
ENCODING 176
SWIDTH 314 0
DWIDTH 10 0
BBX 8 10 1 12
BITMAP
1E
33
63
63
E3
E3
E2
C6
EC
78
ENDCHAR
STARTCHAR plusminus
ENCODING 177
SWIDTH 479 0
DWIDTH 15 0
BBX 13 16 1 4
BITMAP
01C0
0180
0180
0380
0380
7FF8
7FF8
0700
0700
0700
0600
0600
0800
0000
FFE0
FFE0
ENDCHAR
STARTCHAR uni00B2
ENCODING 178
SWIDTH 328 0
DWIDTH 11 0
BBX 8 13 2 11
BITMAP
3E
67
67
77
27
0E
0C
18
30
60
C0
FF
FE
ENDCHAR
STARTCHAR uni00B3
ENCODING 179
SWIDTH 336 0
DWIDTH 11 0
BBX 8 14 2 10
BITMAP
1E
33
63
73
37
0E
1C
06
E7
C7
C7
C7
CE
7C
ENDCHAR
STARTCHAR acute
ENCODING 180
SWIDTH 316 0
DWIDTH 10 0
BBX 6 6 4 18
BITMAP
1C
38
30
60
60
C0
ENDCHAR
STARTCHAR uni00B5
ENCODING 181
SWIDTH 505 0
DWIDTH 16 0
BBX 20 21 -2 -5
BITMAP
0F8F80
0F0F00
0F0F00
1F1F00
1F1F00
1F1F00
1E1E00
1E3E00
3E3E00
3E3E00
3E3C30
3C7C20
3E7C60
7FFFC0
7FBF80
7E1E00
780000
F80000
F80000
F80000
E00000
ENDCHAR
STARTCHAR paragraph
ENCODING 182
SWIDTH 542 0
DWIDTH 17 0
BBX 14 26 2 -2
BITMAP
07E0
1FF8
3FFC
3FFC
7FDC
7FDC
FFDC
FFDC
FF9C
FFBC
7FB8
7FB8
3FB8
1FF8
07F0
0770
0770
0F70
0E70
0EE0
0EE0
0EE0
1CE0
1DC0
1DC0
1DC0
ENDCHAR
STARTCHAR periodcentered
ENCODING 183
SWIDTH 434 0
DWIDTH 14 0
BBX 6 6 4 5
BITMAP
78
FC
FC
FC
FC
78
ENDCHAR
STARTCHAR cedilla
ENCODING 184
SWIDTH 227 0
DWIDTH 7 0
BBX 8 8 0 -7
BITMAP
18
10
34
3E
0F
8E
FE
3C
ENDCHAR
STARTCHAR uni00B9
ENCODING 185
SWIDTH 229 0
DWIDTH 7 0
BBX 6 13 1 10
BITMAP
0C
7C
78
18
38
38
38
30
70
70
70
70
E0
ENDCHAR
STARTCHAR ordmasculine
ENCODING 186
SWIDTH 329 0
DWIDTH 11 0
BBX 9 9 1 14
BITMAP
1E00
3280
7300
6200
E200
E200
E600
7C00
7800
ENDCHAR
STARTCHAR guillemotright
ENCODING 187
SWIDTH 586 0
DWIDTH 19 0
BBX 18 11 0 3
BITMAP
204000
383000
1C7800
070E00
03C780
00E1C0
01C380
070F00
3C7800
70E000
810000
ENDCHAR
STARTCHAR onequarter
ENCODING 188
SWIDTH 749 0
DWIDTH 24 0
BBX 23 24 1 0
BITMAP
0000C0
0C0180
7C0380
780300
180700
380600
380E00
380C00
301800
701800
703000
7070CE
7060CC
60E0DC
80C1DC
01C19C
018198
030338
0303FC
060438
0E0038
0C0030
1C0070
380070
ENDCHAR
STARTCHAR onehalf
ENCODING 189
SWIDTH 745 0
DWIDTH 24 0
BBX 23 24 1 0
BITMAP
0000C0
0C0180
7C0380
780300
180700
380600
380E00
380C00
301800
701800
703000
707078
70609C
60E18E
80C1CC
01C09C
01801C
030038
030070
0600C0
0E0180
0C0300
1C03FC
3803F8
ENDCHAR
STARTCHAR threequarters
ENCODING 190
SWIDTH 836 0
DWIDTH 27 0
BBX 24 24 2 0
BITMAP
1E0070
330060
6300E0
7300C0
370180
0E0180
1C0300
060700
E70600
C70E00
C70C00
C71C73
CE1837
7C3077
003077
006066
00E06E
00C0CE
01C1FF
01800E
03800C
03001C
06001C
0E001C
ENDCHAR
STARTCHAR questiondown
ENCODING 191
SWIDTH 439 0
DWIDTH 14 0
BBX 12 24 0 -8
BITMAP
00E0
01F0
01F0
01F0
00E0
0000
0000
00C0
00C0
00C0
0180
0380
0700
0E00
1C00
7800
79E0
F0F0
F0F0
F070
F0E0
F8E0
7FC0
3F00
ENDCHAR
STARTCHAR Agrave
ENCODING 192
SWIDTH 668 0
DWIDTH 21 0
BBX 22 34 0 -3
BITMAP
0000E0
0000E0
0000E0
000060
000070
000070
000000
00007C
0000FC
0003FC
00077C
000E78
000C78
001CF8
0038F8
0070F0
0070F0
0FE1F0
3FFFF0
79C3F0
F3C1E0
F381E0
2783E0
0783E0
0F03E0
0F03C0
0F03C0
1E07C0
1E07C0
1E0780
1E0780
1E0000
1E0000
1E0000
ENDCHAR
STARTCHAR Aacute
ENCODING 193
SWIDTH 668 0
DWIDTH 21 0
BBX 25 35 0 -3
BITMAP
00000780
00000700
00000E00
00000E00
00001C00
00001800
00003800
00000000
00007C00
0000FC00
0003FC00
00077C00
000E7800
000C7800
001CF800
0038F800
0070F000
0070F000
0FE1F000
3FFFF000
79C3F000
F3C1E000
F381E000
2783E000
0783E000
0F03E000
0F03C000
0F03C000
1E07C000
1E07C000
1E078000
1E078000
1E000000
1E000000
1E000000
ENDCHAR
STARTCHAR Acircumflex
ENCODING 194
SWIDTH 668 0
DWIDTH 21 0
BBX 24 35 0 -3
BITMAP
000002
000006
00000E
00003E
000073
0000C1
000181
000000
00007C
0000FC
0003FC
00077C
000E78
000C78
001CF8
0038F8
0070F0
0070F0
0FE1F0
3FFFF0
79C3F0
F3C1E0
F381E0
2783E0
0783E0
0F03E0
0F03C0
0F03C0
1E07C0
1E07C0
1E0780
1E0780
1E0000
1E0000
1E0000
ENDCHAR
STARTCHAR Atilde
ENCODING 195
SWIDTH 668 0
DWIDTH 21 0
BBX 26 33 0 -3
BITMAP
00002000
0001FC40
0003FF80
00043E00
00000000
00000000
00007C00
0000FC00
0003FC00
00077C00
000E7800
000C7800
001CF800
0038F800
0070F000
0070F000
0FE1F000
3FFFF000
79C3F000
F3C1E000
F381E000
2783E000
0783E000
0F03E000
0F03C000
0F03C000
1E07C000
1E07C000
1E078000
1E078000
1E000000
1E000000
1E000000
ENDCHAR
STARTCHAR Adieresis
ENCODING 196
SWIDTH 668 0
DWIDTH 21 0
BBX 24 33 0 -3
BITMAP
0001C7
0001CF
0001CF
0001C7
000000
000000
00007C
0000FC
0003FC
00077C
000E78
000C78
001CF8
0038F8
0070F0
0070F0
0FE1F0
3FFFF0
79C3F0
F3C1E0
F381E0
2783E0
0783E0
0F03E0
0F03C0
0F03C0
1E07C0
1E07C0
1E0780
1E0780
1E0000
1E0000
1E0000
ENDCHAR
STARTCHAR Aring
ENCODING 197
SWIDTH 668 0
DWIDTH 21 0
BBX 22 33 0 -3
BITMAP
000038
000064
000044
00004C
000038
000000
00007C
0000FC
0003FC
00077C
000E78
000C78
001CF8
0038F8
0070F0
0070F0
0FE1F0
3FFFF0
79C3F0
F3C1E0
F381E0
2783E0
0783E0
0F03E0
0F03C0
0F03C0
1E07C0
1E07C0
1E0780
1E0780
1E0000
1E0000
1E0000
ENDCHAR
STARTCHAR AE
ENCODING 198
SWIDTH 764 0
DWIDTH 24 0
BBX 29 27 0 -3
BITMAP
00007C08
0000FFF8
0003FFF0
00077CE0
000E7800
000C7800
0018F800
0038F800
0070F000
0070F000
1FF1F000
7FFFFF80
F1C3FF00
F3C1E000
7381E000
0783E000
0783E000
0F03E000
0F03C000
0F07C000
1E07C000
1E07FF80
1E07FF80
1E07FF00
1E000000
1E000000
1E000000
ENDCHAR
STARTCHAR Ccedilla
ENCODING 199
SWIDTH 497 0
DWIDTH 16 0
BBX 16 31 1 -7
BITMAP
00FC
03FE
07C7
0F83
1F07
3F07
3E0F
7E00
7C00
7C00
FC00
F800
F800
F800
F800
F800
F800
F800
F801
FC06
FE0C
FFFC
7FF0
3FC0
0600
0200
07C0
04E0
00C0
0CC0
1F80
ENDCHAR
STARTCHAR Egrave
ENCODING 200
SWIDTH 459 0
DWIDTH 15 0
BBX 16 33 0 -1
BITMAP
00F0
0070
0070
0070
0070
0030
0000
0000
007C
01FE
03C7
0787
0787
0F07
0F0E
0F00
0F80
0780
03F0
0FC0
1F00
3F00
7E00
7C00
7C00
FC00
FC02
FC02
FC0C
7FF8
7FF0
3FE0
0600
ENDCHAR
STARTCHAR Eacute
ENCODING 201
SWIDTH 459 0
DWIDTH 15 0
BBX 17 33 0 -1
BITMAP
000780
000700
000F00
000E00
000C00
001C00
001800
000000
007C00
01FE00
03C700
078700
078700
0F0700
0F0E00
0F0000
0F8000
078000
03F000
0FC000
1F0000
3F0000
7E0000
7C0000
7C0000
FC0000
FC0200
FC0200
FC0C00
7FF800
7FF000
3FE000
060000
ENDCHAR
STARTCHAR Ecircumflex
ENCODING 202
SWIDTH 459 0
DWIDTH 15 0
BBX 16 33 0 -1
BITMAP
0004
000C
001E
003E
0076
00C3
0301
0000
007C
01FE
03C7
0787
0787
0F07
0F0E
0F00
0F80
0780
03F0
0FC0
1F00
3F00
7E00
7C00
7C00
FC00
FC02
FC02
FC0C
7FF8
7FF0
3FE0
0600
ENDCHAR
STARTCHAR Edieresis
ENCODING 203
SWIDTH 459 0
DWIDTH 15 0
BBX 17 31 0 -1
BITMAP
00E380
00E780
00F780
00E380
000000
000000
007C00
01FE00
03C700
078700
078700
0F0700
0F0E00
0F0000
0F8000
078000
03F000
0FC000
1F0000
3F0000
7E0000
7C0000
7C0000
FC0000
FC0200
FC0200
FC0C00
7FF800
7FF000
3FE000
060000
ENDCHAR
STARTCHAR Igrave
ENCODING 204
SWIDTH 375 0
DWIDTH 12 0
BBX 13 31 0 0
BITMAP
01C0
01C0
00E0
00E0
00E0
0060
0000
00F8
03F0
0EF0
1DF0
39F0
71F0
F1E0
E1E0
E3E0
E3E0
63C0
13C0
07C0
07C0
07C0
0780
0780
0F80
0F80
0F80
0F00
0F00
1F00
1F00
ENDCHAR
STARTCHAR Iacute
ENCODING 205
SWIDTH 375 0
DWIDTH 12 0
BBX 16 32 0 0
BITMAP
000F
000E
001C
001C
0038
0030
0070
0000
00F8
03F0
0EF0
1DF0
39F0
71F0
F1E0
E1E0
E3E0
E3E0
63C0
13C0
07C0
07C0
07C0
0780
0780
0F80
0F80
0F80
0F00
0F00
1F00
1F00
ENDCHAR
STARTCHAR Icircumflex
ENCODING 206
SWIDTH 375 0
DWIDTH 12 0
BBX 15 32 0 0
BITMAP
0008
0018
003C
007C
00EC
0184
0602
0000
00F8
03F0
0EF0
1DF0
39F0
71F0
F1E0
E1E0
E3E0
E3E0
63C0
13C0
07C0
07C0
07C0
0780
0780
0F80
0F80
0F80
0F00
0F00
1F00
1F00
ENDCHAR
STARTCHAR Idieresis
ENCODING 207
SWIDTH 375 0
DWIDTH 12 0
BBX 16 30 0 0
BITMAP
018E
03CF
03CF
018E
0000
0000
00F8
03F0
0EF0
1DF0
39F0
71F0
F1E0
E1E0
E3E0
E3E0
63C0
13C0
07C0
07C0
07C0
0780
0780
0F80
0F80
0F80
0F00
0F00
1F00
1F00
ENDCHAR
STARTCHAR Eth
ENCODING 208
SWIDTH 663 0
DWIDTH 21 0
BBX 21 25 0 -1
BITMAP
00FE00
03FF80
0F03E0
1C01E0
39F0F0
71F0F0
71E0F0
E1E0F8
E3E0F8
E3E0F8
63E0F8
37F8F0
0FF8F0
07C0F0
07C1F0
0781F0
0781E0
0F83E0
0F83E0
0F87C0
0F07C0
0F9F80
1FFF00
1F7E00
001000
ENDCHAR
STARTCHAR Ntilde
ENCODING 209
SWIDTH 686 0
DWIDTH 22 0
BBX 23 29 0 0
BITMAP
000FC2
001FFC
0023F0
000000
000000
01F00E
0FF80E
1EF81C
39F81C
79F81C
71FC1C
F1FC1C
E1FC38
E3FC38
E3BC38
73BE38
33BE30
079E70
071E70
071F70
071F70
070FE0
0E0FE0
0E0FE0
0E0FE0
0E07E0
1E07C0
1C07C0
1C07C0
ENDCHAR
STARTCHAR Ograve
ENCODING 210
SWIDTH 665 0
DWIDTH 21 0
BBX 20 32 1 0
BITMAP
007000
007000
007000
003800
003800
003800
000000
000000
00FF00
03FFC0
0F03C0
3C79E0
78F1E0
71E0F0
E3C0F0
E7C0F0
E780F0
CF80F0
CF81F0
3F01F0
1F01E0
1F01E0
1F03E0
1E03E0
3E03C0
3E07C0
3E0780
1E0F00
1F1F00
1FFE00
0FF800
07E000
ENDCHAR
STARTCHAR Oacute
ENCODING 211
SWIDTH 665 0
DWIDTH 21 0
BBX 20 32 1 0
BITMAP
0001C0
000380
000380
000700
000600
000E00
000C00
000000
00FF00
03FFC0
0F03C0
3C79E0
78F1E0
71E0F0
E3C0F0
E7C0F0
E780F0
CF80F0
CF81F0
3F01F0
1F01E0
1F01E0
1F03E0
1E03E0
3E03C0
3E07C0
3E0780
1E0F00
1F1F00
1FFE00
0FF800
07E000
ENDCHAR
STARTCHAR Ocircumflex
ENCODING 212
SWIDTH 665 0
DWIDTH 21 0
BBX 20 32 1 0
BITMAP
000200
000600
000F00
001F00
003900
006180
008080
000000
00FF00
03FFC0
0F03C0
3C79E0
78F1E0
71E0F0
E3C0F0
E7C0F0
E780F0
CF80F0
CF81F0
3F01F0
1F01E0
1F01E0
1F03E0
1E03E0
3E03C0
3E07C0
3E0780
1E0F00
1F1F00
1FFE00
0FF800
07E000
ENDCHAR
STARTCHAR Otilde
ENCODING 213
SWIDTH 665 0
DWIDTH 21 0
BBX 21 30 1 0
BITMAP
000408
003FF0
00FFE0
0087C0
000000
000000
00FF00
03FFC0
0F03C0
3C79E0
78F1E0
71E0F0
E3C0F0
E7C0F0
E780F0
CF80F0
CF81F0
3F01F0
1F01E0
1F01E0
1F03E0
1E03E0
3E03C0
3E07C0
3E0780
1E0F00
1F1F00
1FFE00
0FF800
07E000
ENDCHAR
STARTCHAR Odieresis
ENCODING 214
SWIDTH 665 0
DWIDTH 21 0
BBX 20 30 1 0
BITMAP
006180
00F3C0
00F3C0
006180
000000
000000
00FF00
03FFC0
0F03C0
3C79E0
78F1E0
71E0F0
E3C0F0
E7C0F0
E780F0
CF80F0
CF81F0
3F01F0
1F01E0
1F01E0
1F03E0
1E03E0
3E03C0
3E07C0
3E0780
1E0F00
1F1F00
1FFE00
0FF800
07E000
ENDCHAR
STARTCHAR multiply
ENCODING 215
SWIDTH 414 0
DWIDTH 13 0
BBX 11 10 1 6
BITMAP
2080
F1E0
7BC0
3F80
1F00
1F00
3F80
7BC0
F1E0
6080
ENDCHAR
STARTCHAR Oslash
ENCODING 216
SWIDTH 658 0
DWIDTH 21 0
BBX 20 26 0 -2
BITMAP
000300
000200
007F00
03FFC0
0FFFE0
1CF6E0
39E4F0
73ECF0
73CCF0
E7CCF0
678CF0
7F88F0
0F98F0
0F99F0
0F19E0
1F11E0
1F13E0
1F33C0
1F37C0
1F3780
0F2F00
0FFE00
07FC00
03F000
004000
00C000
ENDCHAR
STARTCHAR Ugrave
ENCODING 217
SWIDTH 716 0
DWIDTH 23 0
BBX 24 32 0 0
BITMAP
000700
000780
000380
000380
000380
000180
000000
000000
00F80F
07F81F
0EF81F
38F81E
70F01E
70F03E
E1F03E
E1E03E
E1E03C
E1E03C
63E07C
03C07C
03C078
03C078
07C0F8
0780F8
0780F0
0781F0
0781F0
0781E0
07C3E0
07FFC0
03FF80
01FC00
ENDCHAR
STARTCHAR Uacute
ENCODING 218
SWIDTH 716 0
DWIDTH 23 0
BBX 24 32 0 0
BITMAP
000078
000070
0000E0
0000E0
0001C0
000180
000380
000000
00F80F
07F81F
0EF81F
38F81E
70F01E
70F03E
E1F03E
E1E03E
E1E03C
E1E03C
63E07C
03C07C
03C078
03C078
07C0F8
0780F8
0780F0
0781F0
0781F0
0781E0
07C3E0
07FFC0
03FF80
01FC00
ENDCHAR
STARTCHAR Ucircumflex
ENCODING 219
SWIDTH 716 0
DWIDTH 23 0
BBX 24 32 0 0
BITMAP
000020
000060
0000F0
0001F0
0003B0
000618
001808
000000
00F80F
07F81F
0EF81F
38F81E
70F01E
70F03E
E1F03E
E1E03E
E1E03C
E1E03C
63E07C
03C07C
03C078
03C078
07C0F8
0780F8
0780F0
0781F0
0781F0
0781E0
07C3E0
07FFC0
03FF80
01FC00
ENDCHAR
STARTCHAR Udieresis
ENCODING 220
SWIDTH 716 0
DWIDTH 23 0
BBX 24 30 0 0
BITMAP
000618
000F3C
000F3C
000638
000000
000000
00F80F
07F81F
0EF81F
38F81E
70F01E
70F03E
E1F03E
E1E03E
E1E03C
E1E03C
63E07C
03C07C
03C078
03C078
07C0F8
0780F8
0780F0
0781F0
0781F0
0781E0
07C3E0
07FFC0
03FF80
01FC00
ENDCHAR
STARTCHAR Yacute
ENCODING 221
SWIDTH 620 0
DWIDTH 20 0
BBX 22 32 0 0
BITMAP
00001C
000038
000038
000070
000060
0000E0
0000C0
000000
00F80C
03F80C
0EF818
1CFC18
387C30
707C30
F07C20
E07E60
E03E60
E03EC0
603EC0
103F80
001F80
001F00
001F00
001F00
003F00
003E00
003E00
003E00
003E00
007E00
007C00
007C00
ENDCHAR
STARTCHAR Thorn
ENCODING 222
SWIDTH 583 0
DWIDTH 19 0
BBX 19 24 0 0
BITMAP
000800
00F800
00F000
01F000
01FE00
07FF80
0DF3C0
39E1C0
73E1E0
73E1E0
E3E1E0
E3C1E0
E7C1C0
E7C3C0
77C380
078700
078E00
0FF800
0F8000
0F8000
0F0000
0F0000
1F0000
1F0000
ENDCHAR
STARTCHAR germandbls
ENCODING 223
SWIDTH 480 0
DWIDTH 15 0
BBX 17 30 -3 -8
BITMAP
003E00
00FF00
01E700
01E300
03E300
03C700
07C700
07C600
07CC00
078C00
0F9C00
0F9E00
0F8F00
0F0700
0F0780
1F0780
1F0780
1F0780
1E0780
3E8F00
3EFE00
3E7C00
3C0000
3C0000
7C0000
7C0000
7C0000
780000
780000
800000
ENDCHAR
STARTCHAR agrave
ENCODING 224
SWIDTH 526 0
DWIDTH 17 0
BBX 18 24 0 0
BITMAP
01C000
01E000
00E000
00E000
00E000
006000
000000
000000
07DE00
0FFE00
1E3E00
3C3E00
7C3C00
783C00
F87C00
F87C00
F87C00
F07800
F07840
F0F8C0
F9F880
FF7F80
7E7F00
3C3C00
ENDCHAR
STARTCHAR aacute
ENCODING 225
SWIDTH 526 0
DWIDTH 17 0
BBX 18 24 0 0
BITMAP
003C00
003800
003800
007000
006000
00E000
000000
000000
07DE00
0FFE00
1E3E00
3C3E00
7C3C00
783C00
F87C00
F87C00
F87C00
F07800
F07840
F0F8C0
F9F880
FF7F80
7E7F00
3C3C00
ENDCHAR
STARTCHAR acircumflex
ENCODING 226
SWIDTH 526 0
DWIDTH 17 0
BBX 18 24 0 0
BITMAP
001800
003800
007800
00FC00
01CC00
070400
000000
000000
07DE00
0FFE00
1E3E00
3C3E00
7C3C00
783C00
F87C00
F87C00
F87C00
F07800
F07840
F0F8C0
F9F880
FF7F80
7E7F00
3C3C00
ENDCHAR
STARTCHAR atilde
ENCODING 227
SWIDTH 526 0
DWIDTH 17 0
BBX 18 22 0 0
BITMAP
004000
03FF80
07FF00
087C00
000000
000000
07DE00
0FFE00
1E3E00
3C3E00
7C3C00
783C00
F87C00
F87C00
F87C00
F07800
F07840
F0F8C0
F9F880
FF7F80
7E7F00
3C3C00
ENDCHAR
STARTCHAR adieresis
ENCODING 228
SWIDTH 526 0
DWIDTH 17 0
BBX 18 22 0 0
BITMAP
038E00
03CE00
03CE00
038E00
000000
000000
07DE00
0FFE00
1E3E00
3C3E00
7C3C00
783C00
F87C00
F87C00
F87C00
F07800
F07840
F0F8C0
F9F880
FF7F80
7E7F00
3C3C00
ENDCHAR
STARTCHAR aring
ENCODING 229
SWIDTH 526 0
DWIDTH 17 0
BBX 18 22 0 0
BITMAP
00F000
009800
019000
00F000
000000
000000
07DE00
0FFE00
1E3E00
3C3E00
7C3C00
783C00
F87C00
F87C00
F87C00
F07800
F07840
F0F8C0
F9F880
FF7F80
7E7F00
3C3C00
ENDCHAR
STARTCHAR ae
ENCODING 230
SWIDTH 650 0
DWIDTH 21 0
BBX 22 16 0 0
BITMAP
07E3E0
0FF7F0
387F30
107E30
007C30
007C70
007CE0
1FF9C0
7FFF80
F8FE00
F0F804
F0F808
F9F830
FF7FE0
FE7FC0
7C3F00
ENDCHAR
STARTCHAR ccedilla
ENCODING 231
SWIDTH 384 0
DWIDTH 12 0
BBX 13 23 0 -7
BITMAP
07C0
0FE0
1E70
3C70
7C60
7800
F800
F800
F800
F000
F008
F010
F870
FFE0
7F80
3E00
0600
0400
07C0
09C0
01C0
1980
3F00
ENDCHAR
STARTCHAR egrave
ENCODING 232
SWIDTH 384 0
DWIDTH 12 0
BBX 13 24 0 0
BITMAP
0780
0380
0380
0380
0380
0180
0000
0000
07C0
0FE0
1E70
3C70
7C70
7860
F8E0
F9C0
FF80
FE00
F000
F018
F830
FFE0
7FC0
3F00
ENDCHAR
STARTCHAR eacute
ENCODING 233
SWIDTH 384 0
DWIDTH 12 0
BBX 13 24 0 0
BITMAP
0038
0070
0070
00E0
00E0
01C0
0000
0000
07C0
0FE0
1E70
3C70
7C70
7860
F8E0
F9C0
FF80
FE00
F000
F018
F830
FFE0
7FC0
3F00
ENDCHAR
STARTCHAR ecircumflex
ENCODING 234
SWIDTH 384 0
DWIDTH 12 0
BBX 13 24 0 0
BITMAP
0020
0060
01F0
03F0
0730
0C18
1000
0000
07C0
0FE0
1E70
3C70
7C70
7860
F8E0
F9C0
FF80
FE00
F000
F018
F830
FFE0
7FC0
3F00
ENDCHAR
STARTCHAR edieresis
ENCODING 235
SWIDTH 384 0
DWIDTH 12 0
BBX 13 22 0 0
BITMAP
0E38
0F38
0F38
0E38
0000
0000
07C0
0FE0
1E70
3C70
7C70
7860
F8E0
F9C0
FF80
FE00
F000
F018
F830
FFE0
7FC0
3F00
ENDCHAR
STARTCHAR igrave
ENCODING 236
SWIDTH 267 0
DWIDTH 9 0
BBX 10 24 0 0
BITMAP
3800
3800
1C00
1C00
1C00
0C00
0000
0000
3E00
3C00
3C00
7C00
7C00
7C00
7800
7800
F800
F800
F8C0
F080
F980
FF00
FE00
7800
ENDCHAR
STARTCHAR iacute
ENCODING 237
SWIDTH 267 0
DWIDTH 9 0
BBX 10 24 0 0
BITMAP
03C0
0380
0700
0700
0E00
0C00
0000
0000
3E00
3C00
3C00
7C00
7C00
7C00
7800
7800
F800
F800
F8C0
F080
F980
FF00
FE00
7800
ENDCHAR
STARTCHAR icircumflex
ENCODING 238
SWIDTH 267 0
DWIDTH 9 0
BBX 10 24 0 0
BITMAP
0300
0700
0F00
1F80
3180
E080
0000
0000
3E00
3C00
3C00
7C00
7C00
7C00
7800
7800
F800
F800
F8C0
F080
F980
FF00
FE00
7800
ENDCHAR
STARTCHAR idieresis
ENCODING 239
SWIDTH 267 0
DWIDTH 9 0
BBX 10 22 0 0
BITMAP
7180
73C0
73C0
7180
0000
0000
3E00
3C00
3C00
7C00
7C00
7C00
7800
7800
F800
F800
F8C0
F080
F980
FF00
FE00
7800
ENDCHAR
STARTCHAR eth
ENCODING 240
SWIDTH 526 0
DWIDTH 17 0
BBX 18 24 0 0
BITMAP
001000
007800
007B80
003F80
03FC00
019E00
001E00
001E00
07DE00
0FDE00
1E3E00
3C3E00
7C3C00
783C00
F87C00
F87C00
F87C00
F07800
F07840
F0F8C0
F9F880
FF7F80
7F7F00
3C3C00
ENDCHAR
STARTCHAR ntilde
ENCODING 241
SWIDTH 505 0
DWIDTH 16 0
BBX 19 22 -1 0
BITMAP
004080
03FF00
07FE00
087C00
000000
000000
1F7800
1FFC00
1FFE00
3F3E00
3E3E00
3E3E00
3C3C00
3C3C00
7C7C00
7C7C00
7C7860
787840
7878C0
F87F80
F87F00
F83E00
ENDCHAR
STARTCHAR ograve
ENCODING 242
SWIDTH 433 0
DWIDTH 14 0
BBX 19 24 -1 0
BITMAP
01C000
01C000
00C000
00E000
00E000
00E000
000000
000000
03E000
07F000
0F3800
1E1820
3E38C0
3C3F80
7C3C00
7C3800
783800
F83800
F87000
F87000
F8E000
7FE000
7FC000
1F0000
ENDCHAR
STARTCHAR oacute
ENCODING 243
SWIDTH 439 0
DWIDTH 14 0
BBX 18 24 0 0
BITMAP
003800
007800
007000
00E000
00E000
01C000
000000
000000
03C000
0FF000
1E3000
3C3040
7C71C0
787F00
F87800
F87000
F87000
F07000
F06000
F0E000
F9C000
FFC000
7F8000
3E0000
ENDCHAR
STARTCHAR ocircumflex
ENCODING 244
SWIDTH 433 0
DWIDTH 14 0
BBX 19 24 -1 0
BITMAP
003000
007000
00F000
01F800
039800
060800
080000
000000
03E000
07F000
0F3800
1E1820
3E38C0
3C3F80
7C3C00
7C3800
783800
F83800
F87000
F87000
F8E000
7FE000
7FC000
1F0000
ENDCHAR
STARTCHAR otilde
ENCODING 245
SWIDTH 433 0
DWIDTH 14 0
BBX 19 22 -1 0
BITMAP
010000
0FFE00
1FFC00
21F000
000000
000000
03E000
07F000
0F3800
1E1820
3E38C0
3C3F80
7C3C00
7C3800
783800
F83800
F87000
F87000
F8E000
7FE000
7FC000
1F0000
ENDCHAR
STARTCHAR odieresis
ENCODING 246
SWIDTH 433 0
DWIDTH 14 0
BBX 19 22 -1 0
BITMAP
071800
0F3C00
0F3C00
071800
000000
000000
03E000
07F000
0F3800
1E1820
3E38C0
3C3F80
7C3C00
7C3800
783800
F83800
F87000
F87000
F8E000
7FE000
7FC000
1F0000
ENDCHAR
STARTCHAR divide
ENCODING 247
SWIDTH 415 0
DWIDTH 13 0
BBX 12 16 1 3
BITMAP
0380
07C0
07C0
07C0
0380
0000
0000
7FF0
FFF0
0000
0000
0E00
1F00
1F00
1F00
0E00
ENDCHAR
STARTCHAR oslash
ENCODING 248
SWIDTH 428 0
DWIDTH 14 0
BBX 17 17 -2 -1
BITMAP
00F180
03FB00
078E00
0F0C00
1F0C00
1E1C00
3E3C00
3E6C00
3EDC00
3D9C00
3F3800
3E3800
3E7000
3FF000
1FC000
3F8000
E00000
ENDCHAR
STARTCHAR ugrave
ENCODING 249
SWIDTH 505 0
DWIDTH 16 0
BBX 18 24 0 0
BITMAP
038000
03C000
01C000
01C000
01C000
00C000
000000
000000
3E3E00
3C3C00
3C3C00
7C7C00
7C7C00
7C7C00
787800
78F800
F8F800
F8F800
F8F0C0
F1F080
F9F100
FFFF00
FEFE00
787800
ENDCHAR
STARTCHAR uacute
ENCODING 250
SWIDTH 505 0
DWIDTH 16 0
BBX 18 24 0 0
BITMAP
003C00
003800
007000
007000
00E000
00C000
000000
000000
3E3E00
3C3C00
3C3C00
7C7C00
7C7C00
7C7C00
787800
78F800
F8F800
F8F800
F8F0C0
F1F080
F9F100
FFFF00
FEFE00
787800
ENDCHAR
STARTCHAR ucircumflex
ENCODING 251
SWIDTH 505 0
DWIDTH 16 0
BBX 18 24 0 0
BITMAP
003000
007000
00F000
01F800
031800
0E0800
000000
000000
3E3E00
3C3C00
3C3C00
7C7C00
7C7C00
7C7C00
787800
78F800
F8F800
F8F800
F8F0C0
F1F080
F9F100
FFFF00
FEFE00
787800
ENDCHAR
STARTCHAR udieresis
ENCODING 252
SWIDTH 505 0
DWIDTH 16 0
BBX 18 22 0 0
BITMAP
071800
0F3C00
0F3C00
071800
000000
000000
3E3E00
3C3C00
3C3C00
7C7C00
7C7C00
7C7C00
787800
78F800
F8F800
F8F800
F8F0C0
F1F080
F9F100
FFFF00
FEFE00
787800
ENDCHAR
STARTCHAR yacute
ENCODING 253
SWIDTH 505 0
DWIDTH 16 0
BBX 17 32 0 -8
BITMAP
003C00
003800
007000
007000
00E000
00C000
000000
000000
3E3E00
3C3C00
3C3C00
7C7C00
7C7C00
7C7C00
787800
78F800
F8F800
F8F800
F8F180
F1F100
F9F300
FFF200
FFFC00
79F800
07E000
1FE000
3BE000
33E000
67C000
7FC000
3F8000
1E0000
ENDCHAR
STARTCHAR thorn
ENCODING 254
SWIDTH 473 0
DWIDTH 15 0
BBX 17 32 -3 -8
BITMAP
007000
01E000
03E000
03E000
03E000
03C000
03C000
07C000
07DE00
07FF00
07CF80
0F8780
0F8780
0F8780
0F0780
0F0780
1F0F80
1F0F80
1F0F00
1E1F00
1E1E00
3E3C00
3FF800
3DF000
3C0000
7C0000
7C0000
7C0000
780000
780000
F80000
800000
ENDCHAR
STARTCHAR ydieresis
ENCODING 255
SWIDTH 505 0
DWIDTH 16 0
BBX 17 30 0 -8
BITMAP
063800
0F3C00
0F3C00
063800
000000
000000
3E3E00
3C3C00
3C3C00
7C7C00
7C7C00
7C7C00
787800
78F800
F8F800
F8F800
F8F180
F1F100
F9F300
FFF200
FFFC00
79F800
07E000
1FE000
3BE000
33E000
67C000
7FC000
3F8000
1E0000
ENDCHAR
STARTCHAR Amacron
ENCODING 256
SWIDTH 668 0
DWIDTH 21 0
BBX 25 32 0 -3
BITMAP
0001FF80
0003FF80
00000000
00000000
00000000
00007C00
0000FC00
0003FC00
00077C00
000E7800
000C7800
001CF800
0038F800
0070F000
0070F000
0FE1F000
3FFFF000
79C3F000
F3C1E000
F381E000
2783E000
0783E000
0F03E000
0F03C000
0F03C000
1E07C000
1E07C000
1E078000
1E078000
1E000000
1E000000
1E000000
ENDCHAR
STARTCHAR amacron
ENCODING 257
SWIDTH 526 0
DWIDTH 17 0
BBX 18 21 0 0
BITMAP
03FF00
07FF00
000000
000000
000000
07DE00
0FFE00
1E3E00
3C3E00
7C3C00
783C00
F87C00
F87C00
F87C00
F07800
F07840
F0F8C0
F9F880
FF7F80
7E7F00
3C3C00
ENDCHAR
STARTCHAR Abreve
ENCODING 258
SWIDTH 668 0
DWIDTH 21 0
BBX 26 33 0 -3
BITMAP
0001C1C0
0001C1C0
0000FF80
00007E00
00000000
00000000
00007C00
0000FC00
0003FC00
00077C00
000E7800
000C7800
001CF800
0038F800
0070F000
0070F000
0FE1F000
3FFFF000
79C3F000
F3C1E000
F381E000
2783E000
0783E000
0F03E000
0F03C000
0F03C000
1E07C000
1E07C000
1E078000
1E078000
1E000000
1E000000
1E000000
ENDCHAR
STARTCHAR abreve
ENCODING 259
SWIDTH 526 0
DWIDTH 17 0
BBX 18 23 0 0
BITMAP
070300
070700
03FE00
01F800
000000
000000
000000
07DE00
0FFE00
1E3E00
3C3E00
7C3C00
783C00
F87C00
F87C00
F87C00
F07800
F07840
F0F8C0
F9F880
FF7F80
7E7F00
3C3C00
ENDCHAR
STARTCHAR Aogonek
ENCODING 260
SWIDTH 668 0
DWIDTH 21 0
BBX 22 30 0 -6
BITMAP
00007C
0000FC
0003FC
00077C
000E78
000C78
001CF8
0038F8
0070F0
0070F0
0FE1F0
3FFFF0
79C3F0
F3C1E0
F381E0
2783E0
0783E0
0F03E0
0F03C0
0F03C0
1E07C0
1E07C0
1E0780
1E0780
1E0600
1E0E00
1E0C00
000C40
000F80
000F00
ENDCHAR
STARTCHAR aogonek
ENCODING 261
SWIDTH 526 0
DWIDTH 17 0
BBX 18 22 0 -6
BITMAP
07DE00
0FFE00
1E3E00
3C3E00
7C3C00
783C00
F87C00
F87C00
F87C00
F07800
F07840
F0F8C0
F9F880
FF7F00
7E7F00
3C3C00
001800
003000
007000
007200
007E00
003800
ENDCHAR
STARTCHAR Cacute
ENCODING 262
SWIDTH 497 0
DWIDTH 16 0
BBX 16 33 1 -1
BITMAP
0007
000E
000E
001C
0018
0038
0030
0000
00FC
03FE
07C7
0F83
1F07
3F07
3E0F
7E04
7C00
7C00
FC00
F800
F800
F800
F800
F800
F800
F800
F801
F802
FC06
FFFC
7FF8
3FE0
0200
ENDCHAR
STARTCHAR cacute
ENCODING 263
SWIDTH 384 0
DWIDTH 12 0
BBX 14 24 0 0
BITMAP
003C
0038
0038
0070
0060
00E0
0000
0000
07C0
0FE0
1E70
3C70
7C60
7800
F800
F800
F800
F000
F008
F010
F870
FFE0
7F80
3E00
ENDCHAR
STARTCHAR Ccircumflex
ENCODING 264
SWIDTH 497 0
DWIDTH 16 0
BBX 16 33 1 -1
BITMAP
0008
0018
003C
007C
00EC
0186
0602
0000
00FC
03FE
07C7
0F83
1F07
3F07
3E0F
7E04
7C00
7C00
FC00
F800
F800
F800
F800
F800
F800
F800
F801
F802
FC06
FFFC
7FF8
3FE0
0200
ENDCHAR
STARTCHAR ccircumflex
ENCODING 265
SWIDTH 384 0
DWIDTH 12 0
BBX 13 24 0 0
BITMAP
0020
0060
01F0
03F0
0730
0C18
1000
0000
07C0
0FE0
1E70
3C70
7C60
7800
F800
F800
F800
F000
F008
F010
F870
FFE0
7F80
3E00
ENDCHAR
STARTCHAR Cdotaccent
ENCODING 266
SWIDTH 497 0
DWIDTH 16 0
BBX 16 32 1 -1
BITMAP
000E
001F
001F
001F
000E
0000
0000
00FC
03FE
07C7
0F83
1F07
3F07
3E0F
7E04
7C00
7C00
FC00
F800
F800
F800
F800
F800
F800
F800
F801
F802
FC06
FFFC
7FF8
3FE0
0200
ENDCHAR
STARTCHAR cdotaccent
ENCODING 267
SWIDTH 384 0
DWIDTH 12 0
BBX 13 24 0 0
BITMAP
00E0
01F0
01F0
01F0
00E0
0000
0000
0000
07C0
0FE0
1E70
3C70
7C60
7800
F800
F800
F800
F000
F008
F010
F870
FFE0
7F80
3E00
ENDCHAR
STARTCHAR Ccaron
ENCODING 268
SWIDTH 497 0
DWIDTH 16 0
BBX 18 33 1 -1
BITMAP
0080C0
004380
006E00
007C00
003800
003000
002000
000000
00FC00
03FE00
07C700
0F8300
1F0700
3F0700
3E0F00
7E0400
7C0000
7C0000
FC0000
F80000
F80000
F80000
F80000
F80000
F80000
F80000
F80100
F80200
FC0600
FFFC00
7FF800
3FE000
020000
ENDCHAR
STARTCHAR ccaron
ENCODING 269
SWIDTH 384 0
DWIDTH 12 0
BBX 16 24 0 0
BITMAP
0307
011C
01B8
01F0
00E0
00C0
0000
0000
07C0
0FE0
1E70
3C70
7C60
7800
F800
F800
F800
F000
F008
F018
F830
FFE0
7F80
3E00
ENDCHAR
STARTCHAR Dcaron
ENCODING 270
SWIDTH 663 0
DWIDTH 21 0
BBX 21 33 0 -1
BITMAP
002020
0020C0
003380
001F00
001C00
001800
001000
000000
00FE00
03FF80
0F03C0
1C01E0
39F0F0
71F0F0
71E0F0
E1E0F8
E3E0F8
E3E0F8
63E0F8
33C0F8
03C0F0
07C0F0
07C1F0
0781F0
0781E0
0F83E0
0F83E0
0F87C0
0F0780
0F9F80
1FFF00
1F7E00
001000
ENDCHAR
STARTCHAR dcaron
ENCODING 271
SWIDTH 525 0
DWIDTH 17 0
BBX 22 24 0 0
BITMAP
000038
00003C
0007BC
000F1C
000F18
001F30
001F20
001F00
07DE00
0FFE00
1E3E00
3C3E00
7C3C00
783C00
F87C00
F87C00
F87C00
F07800
F07840
F0F8C0
F9F880
FF7F80
7F7F00
3C3C00
ENDCHAR
STARTCHAR Dcroat
ENCODING 272
SWIDTH 663 0
DWIDTH 21 0
BBX 21 25 0 -1
BITMAP
00FE00
03FF80
0F03E0
1C01E0
39F0F0
71F0F0
71E0F0
E1E0F8
E3E0F8
E3E0F8
63E0F8
37F8F0
0FF8F0
07C0F0
07C1F0
0781F0
0781E0
0F83E0
0F83E0
0F87C0
0F07C0
0F9F80
1FFF00
1F7E00
001000
ENDCHAR
STARTCHAR dcroat
ENCODING 273
SWIDTH 525 0
DWIDTH 17 0
BBX 19 22 0 0
BITMAP
000380
000F00
000F00
007FE0
00FFC0
001F00
07DE00
0FFE00
1E3E00
3C3E00
7C3E00
783C00
F87C00
F87C00
F87C00
F07800
F07840
F0F8C0
F9F880
FF7F80
7F7F00
3C3C00
ENDCHAR
STARTCHAR Emacron
ENCODING 274
SWIDTH 459 0
DWIDTH 15 0
BBX 18 30 0 -1
BITMAP
00FFC0
01FFC0
000000
000000
000000
007C00
01FE00
03C700
078700
078700
0F0700
0F0E00
0F0000
0F8000
078000
03F000
0FC000
1F0000
3F0000
7E0000
7C0000
7C0000
FC0000
FC0200
FC0200
FC0C00
7FF800
7FF000
3FE000
060000
ENDCHAR
STARTCHAR emacron
ENCODING 275
SWIDTH 384 0
DWIDTH 12 0
BBX 13 21 0 0
BITMAP
1FF8
1FF8
0000
0000
0000
07C0
0FE0
1E70
3C70
7C70
7860
F8E0
F9C0
FF80
FE00
F000
F018
F830
FFE0
7FC0
3F00
ENDCHAR
STARTCHAR Ebreve
ENCODING 276
SWIDTH 459 0
DWIDTH 15 0
BBX 19 31 0 -1
BITMAP
01C0E0
01C1C0
00FF80
007E00
000000
000000
007C00
01FE00
03C700
078700
078700
0F0700
0F0E00
0F0000
0F8000
078000
03F000
0FC000
1F0000
3F0000
7E0000
7C0000
7C0000
FC0000
FC0200
FC0200
FC0C00
7FF800
7FF000
3FE000
060000
ENDCHAR
STARTCHAR ebreve
ENCODING 277
SWIDTH 384 0
DWIDTH 12 0
BBX 14 23 0 0
BITMAP
381C
1C38
1FF0
0FC0
0000
0000
0000
07C0
0FE0
1E70
3C70
7C70
7860
F8E0
F9C0
FF80
FE00
F000
F018
F830
FFE0
7FC0
3F00
ENDCHAR
STARTCHAR Edotaccent
ENCODING 278
SWIDTH 459 0
DWIDTH 15 0
BBX 16 32 0 -1
BITMAP
001C
003E
003E
003E
001C
0000
0000
007C
01FE
03C7
0787
0787
0F07
0F0E
0F00
0F80
0780
03F0
0FC0
1F00
3F00
7E00
7C00
7C00
FC00
FC02
FC02
FC0C
7FF8
7FF0
3FE0
0600
ENDCHAR
STARTCHAR edotaccent
ENCODING 279
SWIDTH 384 0
DWIDTH 12 0
BBX 13 24 0 0
BITMAP
00E0
01F0
01F0
01F0
00E0
0000
0000
0000
07C0
0FE0
1E70
3C70
7C70
7860
F8E0
F9C0
FF80
FE00
F000
F018
F830
FFE0
7FC0
3F00
ENDCHAR
STARTCHAR Eogonek
ENCODING 280
SWIDTH 459 0
DWIDTH 15 0
BBX 16 30 0 -6
BITMAP
01F8
07FE
0F87
0F07
1E07
1E07
1E0F
1F04
0F00
0F80
07F0
0FC0
1F00
3E00
7E00
7C00
FC00
FC00
FC02
7E02
7F04
3FFC
3FF0
0FE0
0040
00C0
01C0
01C8
01F0
00E0
ENDCHAR
STARTCHAR eogonek
ENCODING 281
SWIDTH 384 0
DWIDTH 12 0
BBX 13 22 0 -6
BITMAP
07C0
0FE0
1E70
3C70
7C70
7860
F8E0
F9C0
FF80
FE00
F000
F018
F830
FDE0
7FC0
3F00
0600
0E00
0C00
0E40
0F80
0700
ENDCHAR
STARTCHAR Ecaron
ENCODING 282
SWIDTH 459 0
DWIDTH 15 0
BBX 19 33 0 -1
BITMAP
002020
0020C0
003380
001F00
001C00
001800
001000
000000
007C00
01FE00
03C700
078700
078700
0F0700
0F0E00
0F0000
0F8000
078000
03F000
0FC000
1F0000
3F0000
7E0000
7C0000
7C0000
FC0000
FC0200
FC0200
FC0C00
7FF800
7FF000
3FE000
060000
ENDCHAR
STARTCHAR ecaron
ENCODING 283
SWIDTH 384 0
DWIDTH 12 0
BBX 16 24 0 0
BITMAP
0307
011C
01F8
01F0
00E0
00C0
0000
0000
07E0
0FE0
1E70
3C70
7C70
7860
F8C0
FB80
FF00
F000
F008
F010
F870
FFE0
7F80
3E00
ENDCHAR
STARTCHAR Gcircumflex
ENCODING 284
SWIDTH 578 0
DWIDTH 19 0
BBX 17 38 1 -7
BITMAP
000600
000E00
001E00
007B00
00C100
010000
000000
00FC00
03FF00
0FC380
1F0380
3E0380
3E0380
7C0780
7C0700
F80000
F80000
F80000
F80700
F80F00
F80F00
F80F00
F81F00
F83E00
7C7E00
7FDE00
3FBE00
0F3C00
003C00
1F3C00
3F7C00
3F7800
707800
707800
70F000
39E000
3FC000
0F8000
ENDCHAR
STARTCHAR gcircumflex
ENCODING 285
SWIDTH 507 0
DWIDTH 16 0
BBX 18 32 0 -8
BITMAP
001800
003800
007800
00FC00
01CC00
070400
000000
000000
07DE00
0FFE00
1E3E00
3C3E00
7C3C00
783C00
F87C00
F87C00
F87C00
F07800
F0F8C0
F0F880
F9F980
FFF300
7FF600
3DFC00
03F000
0FF000
1DE000
31E000
33E000
33C000
3FC000
0F0000
ENDCHAR
STARTCHAR Gbreve
ENCODING 286
SWIDTH 578 0
DWIDTH 19 0
BBX 20 37 1 -7
BITMAP
00E070
00E0E0
00F1C0
007F80
001E00
000000
00FC00
03FF00
0FC380
1F0380
3E0380
3E0380
7C0780
7C0300
F80000
F80000
F80000
F80700
F80F00
F80F00
F80F00
F81F00
F83E00
7C7E00
7FDE00
3FBE00
0F3C00
003C00
1F3C00
3F7C00
3F7800
707800
707800
70F000
39E000
3FC000
0F8000
ENDCHAR
STARTCHAR gbreve
ENCODING 287
SWIDTH 507 0
DWIDTH 16 0
BBX 18 31 0 -8
BITMAP
070300
070700
078E00
03FC00
00F000
000000
000000
07DE00
0FFE00
1E3E00
3C3E00
7C3C00
783C00
F87C00
F87C00
F87C00
F07800
F0F8C0
F0F880
F9F980
FFF300
7FF600
3DFC00
03F000
0FF000
1DE000
31E000
33E000
33C000
3FC000
0F0000
ENDCHAR
STARTCHAR Gdotaccent
ENCODING 288
SWIDTH 578 0
DWIDTH 19 0
BBX 17 38 1 -7
BITMAP
001C00
003E00
003E00
003E00
001C00
000000
000000
00FC00
03FF00
0FC380
1F0380
3E0380
3E0380
7C0780
7C0300
F80000
F80000
F80000
F80700
F80F00
F80F00
F80F00
F81F00
F83E00
7C7E00
7FDE00
3FBE00
0F3C00
003C00
1F3C00
3F7C00
3F7800
707800
707800
70F000
39E000
3FC000
0F8000
ENDCHAR
STARTCHAR gdotaccent
ENCODING 289
SWIDTH 507 0
DWIDTH 16 0
BBX 18 32 0 -8
BITMAP
007000
007800
00F800
007800
007000
000000
000000
000000
07DE00
0FFE00
1E3E00
3C3E00
7C3C00
783C00
F87C00
F87C00
F87C00
F07800
F0F8C0
F0F880
F9F980
FFF300
7FF600
3DFC00
03F000
0FF000
1DE000
31E000
33E000
33C000
3FC000
0F0000
ENDCHAR
STARTCHAR Gcommaaccent
ENCODING 290
SWIDTH 578 0
DWIDTH 19 0
BBX 17 32 0 -8
BITMAP
007C00
01FF00
03E700
07C380
0F8380
1F0780
3F0F00
3E0000
3E0000
7C0000
7C0000
7C0000
FC0780
FC0780
FC0780
FC0F00
FC0F00
FC0F00
FC1F00
7C3F00
7E3E00
3FFE00
3FDE00
0FBE00
000000
000000
018000
03C000
01C000
008000
018000
030000
ENDCHAR
STARTCHAR gcommaaccent
ENCODING 291
SWIDTH 507 0
DWIDTH 16 0
BBX 18 32 0 -8
BITMAP
001000
002000
006000
006000
00F000
007000
000000
000000
07DE00
0FFE00
1E3E00
3C3E00
7C3C00
783C00
F87C00
F87C00
F87C00
F07800
F0F8C0
F0F880
F9F980
FFF300
7FF600
3DFC00
03F000
0FF000
1DE000
31E000
33E000
33C000
3FC000
0F0000
ENDCHAR
STARTCHAR Hcircumflex
ENCODING 292
SWIDTH 665 0
DWIDTH 21 0
BBX 22 32 0 0
BITMAP
000040
0000E0
0001E0
0003E0
000730
000C30
001010
000000
00F87C
03F87C
0FF07C
1CF078
39F078
71F0F8
71F0F8
F1E0F8
E1E0F0
E3E0F0
63FFF0
33FFF0
03C1F0
07C1E0
07C1E0
07C3E0
0783E0
0783E0
0F83C0
0F87C0
0F87C0
0F07C0
0F0780
1F0780
ENDCHAR
STARTCHAR hcircumflex
ENCODING 293
SWIDTH 505 0
DWIDTH 16 0
BBX 19 29 -1 0
BITMAP
004000
00E000
01E000
03E000
063000
181000
000000
078000
0F8000
0F8000
0F0000
0F0000
1F0000
1F7800
1FFC00
1FFE00
3F3E00
3E3E00
3E3E00
3C3C00
3C3C00
7C7C00
7C7C00
7C7860
787840
7878C0
F87F80
F87F00
F83E00
ENDCHAR
STARTCHAR Hbar
ENCODING 294
SWIDTH 665 0
DWIDTH 21 0
BBX 24 24 0 0
BITMAP
00F87C
03F87C
0EF07C
1CF078
39F078
71F0F8
77FFFF
F7FFFE
E1E0F0
63E0F0
63FFF0
03FFF0
03C1F0
07C1E0
07C1E0
07C3E0
0783E0
0783E0
0F83C0
0F87C0
0F87C0
0F07C0
0F0780
1F0780
ENDCHAR
STARTCHAR hbar
ENCODING 295
SWIDTH 505 0
DWIDTH 16 0
BBX 19 23 -1 0
BITMAP
018000
0F8000
0F8000
3FF000
7FE000
1F0000
1F0000
1F7800
1EFC00
1FFE00
3F3E00
3E3E00
3E3E00
3C3C00
3C3C00
7C7C00
7C7C00
7C7860
787840
7878C0
F87F80
F87F00
F83E00
ENDCHAR
STARTCHAR Itilde
ENCODING 296
SWIDTH 375 0
DWIDTH 12 0
BBX 17 30 0 0
BITMAP
004000
03F880
07FF00
087C00
000000
000000
00F800
03F000
0EF000
1DF000
39F000
71F000
F1E000
E1E000
E3E000
E3E000
63C000
13C000
07C000
07C000
07C000
078000
078000
0F8000
0F8000
0F8000
0F0000
0F0000
1F0000
1F0000
ENDCHAR
STARTCHAR itilde
ENCODING 297
SWIDTH 267 0
DWIDTH 9 0
BBX 10 22 0 0
BITMAP
0840
3F80
7F80
8F00
0000
0000
3E00
3C00
3C00
7C00
7C00
7C00
7800
7800
F800
F800
F8C0
F080
F980
FF00
FE00
7800
ENDCHAR
STARTCHAR Imacron
ENCODING 298
SWIDTH 375 0
DWIDTH 12 0
BBX 16 29 0 0
BITMAP
07FF
07FE
0000
0000
0000
00F8
03F0
0EF0
1DF0
39F0
71F0
F1E0
E1E0
E3E0
E3E0
63C0
13C0
07C0
07C0
07C0
0780
0780
0F80
0F80
0F80
0F00
0F00
1F00
1F00
ENDCHAR
STARTCHAR imacron
ENCODING 299
SWIDTH 267 0
DWIDTH 9 0
BBX 10 21 0 0
BITMAP
7FC0
7F80
0000
0000
0000
3E00
3C00
3C00
7C00
7C00
7C00
7800
7800
F800
F800
F8C0
F080
F980
FF00
FE00
7800
ENDCHAR
STARTCHAR Ibreve
ENCODING 300
SWIDTH 375 0
DWIDTH 12 0
BBX 17 30 0 0
BITMAP
030380
038780
03FF00
00FC00
000000
000000
00F800
03F000
0EF000
1DF000
39F000
71F000
F1E000
E1E000
E3E000
E3E000
63C000
13C000
07C000
07C000
07C000
078000
078000
0F8000
0F8000
0F8000
0F0000
0F0000
1F0000
1F0000
ENDCHAR
STARTCHAR ibreve
ENCODING 301
SWIDTH 267 0
DWIDTH 9 0
BBX 11 23 0 0
BITMAP
60E0
71C0
3F80
1F00
0000
0000
0000
3E00
3C00
3C00
7C00
7C00
7C00
7800
7800
F800
F800
F8C0
F080
F980
FF00
FE00
7800
ENDCHAR
STARTCHAR Iogonek
ENCODING 302
SWIDTH 375 0
DWIDTH 12 0
BBX 13 38 0 -7
BITMAP
0780
0380
0380
0180
01C0
01C0
0000
00F8
03F0
0EF0
1DF0
39F0
71F0
F1E0
E1E0
E3E0
E3E0
63C0
13C0
07C0
07C0
07C0
0780
0780
0F80
0F80
0F80
0F00
0F00
1F00
1F00
0800
1800
3800
3800
3880
3F00
1E00
ENDCHAR
STARTCHAR iogonek
ENCODING 303
SWIDTH 267 0
DWIDTH 9 0
BBX 11 29 -1 -7
BITMAP
0700
0F80
0F80
0F80
0700
0000
1F00
1E00
1E00
3E00
3E00
3E00
3C00
3C00
7C00
7C00
7C60
7840
7CC0
7F80
7F00
3C00
6000
E000
C000
C000
E200
FC00
7800
ENDCHAR
STARTCHAR Idotaccent
ENCODING 304
SWIDTH 375 0
DWIDTH 12 0
BBX 14 31 0 0
BITMAP
0038
007C
007C
007C
0038
0000
0000
00F8
03F0
0EF0
1DF0
39F0
71F0
F1E0
E1E0
E3E0
E3E0
63C0
13C0
07C0
07C0
07C0
0780
0780
0F80
0F80
0F80
0F00
0F00
1F00
1F00
ENDCHAR
STARTCHAR dotlessi
ENCODING 305
SWIDTH 267 0
DWIDTH 9 0
BBX 10 16 0 0
BITMAP
3E00
3C00
3C00
7C00
7C00
7C00
7800
7800
F800
F800
F8C0
F080
F980
FF00
FE00
7800
ENDCHAR
STARTCHAR IJ
ENCODING 306
SWIDTH 663 0
DWIDTH 21 0
BBX 22 31 0 -7
BITMAP
00F81C
03F078
0EF0F8
1DF0F8
39F0F8
71F0F0
F1E0F0
E1E1F0
E3E1F0
E3E1F0
63C1E0
13C3E0
07C3E0
07C3E0
07C3E0
0783C0
0787C0
0F87C0
0F87C0
0F8780
0F0F80
0F0F80
1F8F80
1FCF80
0FCF00
0E1F00
0C1F00
0C1E00
0E3C00
07F800
03E000
ENDCHAR
STARTCHAR ij
ENCODING 307
SWIDTH 507 0
DWIDTH 16 0
BBX 18 30 0 -8
BITMAP
0E0E00
1F1F00
1F1F00
1F1F00
0E0E00
000000
3E1E00
3C3E00
3C3E00
7C3E00
7C3C00
7C3C00
787C00
787C00
F87C00
F87800
F8F8C0
F0F880
F8F980
FEF300
FCF600
79FC00
03F000
0FF000
19E000
31E000
33E000
3FC000
3FC000
0F0000
ENDCHAR
STARTCHAR Jcircumflex
ENCODING 308
SWIDTH 536 0
DWIDTH 17 0
BBX 19 39 1 -7
BITMAP
000040
0000C0
0001C0
0007E0
000F60
001C20
003020
000000
0007C0
003F80
007F80
01CF80
038F80
038F00
070F00
071F00
071F00
071F00
031E00
003E00
003E00
003E00
003C00
003C00
007C00
007C00
007C00
007800
00F800
00F800
7CF800
FEF800
FEF000
E1F000
C1F000
C1E000
E3C000
7F8000
3E0000
ENDCHAR
STARTCHAR jcircumflex
ENCODING 309
SWIDTH 240 0
DWIDTH 8 0
BBX 15 32 -6 -8
BITMAP
0008
001C
003C
007C
01C6
0302
0000
0000
00F8
00F8
00F0
01F0
01F0
01F0
01E0
01E0
03E0
03E0
03E0
03C6
03C4
07CC
07D8
07F0
0F80
3F80
FF80
CF80
8F00
9F00
FE00
7C00
ENDCHAR
STARTCHAR Kcommaaccent
ENCODING 310
SWIDTH 601 0
DWIDTH 19 0
BBX 21 32 0 -8
BITMAP
00F838
03F070
0EF0E0
1DF1C0
39F1C0
71F380
71E700
E1E600
E3EC00
E3FC00
63F800
33FF00
07CF80
07C780
07C780
07C780
078780
0F8780
0F8F80
0F8F00
0F0F00
0F0F00
1F1F00
1F0F80
000400
000000
00E000
00E000
00E000
006000
004000
008000
ENDCHAR
STARTCHAR kcommaaccent
ENCODING 311
SWIDTH 518 0
DWIDTH 17 0
BBX 19 30 -1 -8
BITMAP
0F8000
0F8000
0F8000
0F0000
0F0000
1F0000
1F0F00
1F1C00
1E3800
3E6000
3FF000
3FF800
3FFC00
3E7C00
7C3C00
7C7C00
7C7C60
787C40
787CC0
F87F80
F83F80
F81E00
000000
000000
030000
078000
038000
010000
030000
060000
ENDCHAR
STARTCHAR kgreenlandic
ENCODING 312
SWIDTH 518 0
DWIDTH 17 0
BBX 19 16 -1 0
BITMAP
1F0F00
1F1C00
1E3800
3E6000
3FF000
3FF800
3FFC00
3E7C00
7C3C00
7C7C00
7C7C60
787C40
787CC0
F87F80
F83F80
F81E00
ENDCHAR
STARTCHAR Lacute
ENCODING 313
SWIDTH 379 0
DWIDTH 12 0
BBX 21 40 0 -8
BITMAP
000700
000E00
000E00
001C00
001800
003800
003000
000000
00F800
03F000
0EF000
1DF000
39F000
71F000
71E000
E1E000
E3E000
E3E000
63C000
13C000
07C000
07C000
07C000
078000
078000
0F8000
0F8000
0F8000
0F0000
0F0000
1F0000
1F8000
1FE000
01F000
007C00
003F08
001FF8
0007F8
0003F0
0000E0
ENDCHAR
STARTCHAR lacute
ENCODING 314
SWIDTH 267 0
DWIDTH 9 0
BBX 11 30 0 0
BITMAP
00E0
00E0
01C0
0180
0380
0300
0600
0000
0700
1F00
1F00
1E00
1E00
3E00
3E00
3E00
3C00
7C00
7C00
7C00
7800
7800
F800
F800
F8C0
F080
F980
FF00
FE00
7C00
ENDCHAR
STARTCHAR Lcommaaccent
ENCODING 315
SWIDTH 379 0
DWIDTH 12 0
BBX 21 32 0 -8
BITMAP
00F800
03F000
0EF000
1DF000
39F000
71F000
71E000
E1E000
E3E000
E3E000
63C000
13C000
07C000
07C000
07C000
078000
078000
0F8000
0F8000
0F8000
0F0000
0F0000
1F0000
1F8000
1FE000
01F000
187C00
1C3F08
1C1FF8
0C07F8
1803F0
1000E0
ENDCHAR
STARTCHAR lcommaaccent
ENCODING 316
SWIDTH 267 0
DWIDTH 9 0
BBX 10 30 0 -8
BITMAP
1F00
1F00
1F00
1E00
3E00
3E00
3E00
3C00
3C00
7C00
7C00
7C00
7800
7800
F800
F800
F8C0
F080
F980
FF00
FE00
7C00
0000
0000
E000
E000
E000
6000
4000
8000
ENDCHAR
STARTCHAR Lcaron
ENCODING 317
SWIDTH 379 0
DWIDTH 12 0
BBX 21 40 0 -8
BITMAP
004060
006180
003700
003E00
003C00
001800
001000
000000
00F800
03F000
0EF000
1DF000
39F000
71F000
71E000
E1E000
E3E000
E3E000
63C000
13C000
07C000
07C000
07C000
078000
078000
0F8000
0F8000
0F8000
0F0000
0F0000
1F0000
1F8000
1FE000
01F000
007C00
003F08
001FF8
0007F8
0003F0
0000E0
ENDCHAR
STARTCHAR lcaron
ENCODING 318
SWIDTH 267 0
DWIDTH 9 0
BBX 13 24 0 0
BITMAP
0030
0078
0778
1F38
1F30
1E20
1E40
3E00
3E00
3E00
3C00
7C00
7C00
7C00
7800
7800
F800
F800
F8C0
F080
F980
FF00
FE00
7800
ENDCHAR
STARTCHAR Ldot
ENCODING 319
SWIDTH 605 0
DWIDTH 19 0
BBX 21 32 0 -8
BITMAP
00F800
03F000
0FF000
1DF000
39F000
71F000
71E000
E1E000
E3E000
E3E000
E3E000
63C000
17C000
07C000
07C380
0787C0
0787C0
0F87C0
0F8380
0F8000
0F0000
0F0000
1F0000
1F0000
1FC000
01F000
007C00
003F08
001FF8
0007F8
0003F0
0000E0
ENDCHAR
STARTCHAR ldot
ENCODING 320
SWIDTH 353 0
DWIDTH 11 0
BBX 11 22 0 0
BITMAP
1F00
1F00
1F00
1E00
3E00
3E00
3E00
3C00
3C00
7CC0
7DE0
7DE0
78C0
7800
F800
F800
F800
F000
F800
FE00
FC00
7800
ENDCHAR
STARTCHAR Lslash
ENCODING 321
SWIDTH 392 0
DWIDTH 13 0
BBX 21 32 0 -8
BITMAP
00F800
03F000
0EF000
1DF000
39F000
71F000
71E200
E1E600
E3FC00
E3F800
63E000
13C000
07C000
0FC000
1FC000
178000
078000
0F8000
0F8000
0F8000
0F0000
0F0000
1F0000
1F8000
1FE000
01F000
007C00
003F08
001FF8
0007F8
0003F0
0000E0
ENDCHAR
STARTCHAR lslash
ENCODING 322
SWIDTH 286 0
DWIDTH 9 0
BBX 11 22 -1 0
BITMAP
0F80
0F80
0F80
0F00
1F00
1F20
1F60
1FC0
1F00
3E00
3E00
7E00
FC00
BC00
7C00
7C00
7C60
7840
7CC0
7F80
7F00
3E00
ENDCHAR
STARTCHAR Nacute
ENCODING 323
SWIDTH 702 0
DWIDTH 22 0
BBX 23 32 0 0
BITMAP
00001C
00003C
000038
000070
000070
0000E0
0000C0
000000
01F00E
0FF80E
1EF81C
39F81C
79F81C
71FC1C
F1FC1C
E1FC38
E3FC38
E3BC38
73BE38
33BE30
079E70
071E70
071F70
071F70
070FE0
0E0FE0
0E0FE0
0E0FE0
0E07E0
1E07C0
1C07C0
1C07C0
ENDCHAR
STARTCHAR nacute
ENCODING 324
SWIDTH 505 0
DWIDTH 16 0
BBX 19 24 -1 0
BITMAP
000F00
000E00
001C00
001800
003800
003000
004000
000000
1F7800
1FFC00
1FFE00
3F3E00
3E3E00
3E3E00
3C3C00
3C3C00
7C7C00
7C7C00
7C7860
787840
7878C0
F87F80
F87F00
F83E00
ENDCHAR
STARTCHAR Ncommaaccent
ENCODING 325
SWIDTH 668 0
DWIDTH 21 0
BBX 23 32 0 -8
BITMAP
01F00E
0FF80E
1EF81C
39F81C
79F81C
71FC1C
F1FC1C
E1FC38
E3FC38
E3BC38
73BE38
33BE30
079E70
071E70
071F70
071F70
070FE0
0E0FE0
0E0FE0
0E0FE0
0E07E0
1E07C0
1C07C0
1C07C0
000000
000000
00E000
00E000
00E000
006000
00C000
008000
ENDCHAR
STARTCHAR ncommaaccent
ENCODING 326
SWIDTH 505 0
DWIDTH 16 0
BBX 19 24 -1 -8
BITMAP
1F7800
1FFC00
1FFE00
3F3E00
3E3E00
3E3E00
3C3C00
3C3C00
7C7C00
7C7C00
7C7860
787840
7878C0
F87F80
F87F00
F83E00
000000
000000
060000
0F0000
070000
020000
060000
040000
ENDCHAR
STARTCHAR Ncaron
ENCODING 327
SWIDTH 668 0
DWIDTH 21 0
BBX 23 32 0 0
BITMAP
000202
00030C
0001B8
0001F0
0001E0
0000C0
000080
000000
01F00E
0FF80E
1EF81C
39F81C
79F81C
71FC1C
F1FC1C
E1FC38
E3FC38
E3BC38
73BE38
33BE30
079E70
071E70
071F70
071F70
070FE0
0E0FE0
0E0FE0
0E0FE0
0E07E0
1E07C0
1C07C0
1C07C0
ENDCHAR
STARTCHAR ncaron
ENCODING 328
SWIDTH 505 0
DWIDTH 16 0
BBX 19 24 -1 0
BITMAP
010300
018C00
01F800
00F000
00E000
00C000
000000
000000
1F7800
1FFC00
1FFE00
3F3E00
3E3E00
3E3E00
3C3C00
3C3C00
7C7C00
7C7C00
7C7860
787840
7878C0
F87F80
F87F00
F83E00
ENDCHAR
STARTCHAR napostrophe
ENCODING 329
SWIDTH 505 0
DWIDTH 16 0
BBX 19 24 -1 0
BITMAP
1C0000
3C0000
3C0000
1C0000
180000
300000
100000
000000
1F7800
1FFC00
1FFE00
3F3E00
3E3E00
3E3E00
3C3C00
3C3C00
7C7C00
7C7C00
7C7860
787840
7878C0
F87F80
F87F00
F83E00
ENDCHAR
STARTCHAR Eng
ENCODING 330
SWIDTH 723 0
DWIDTH 23 0
BBX 23 30 2 -6
BITMAP
03F01E
0FF01C
1FF01C
39F81C
71F81C
E1F838
E3F838
E3FC38
E3FC38
E3FC78
E7BC70
373C70
073E70
073E70
071EE0
0E1EE0
0E1FE0
0E0FE0
0E0FC0
1C0FC0
1C0FC0
1C07C0
1C0780
3C0780
018780
038700
030F00
030E00
03FC00
00F000
ENDCHAR
STARTCHAR eng
ENCODING 331
SWIDTH 505 0
DWIDTH 16 0
BBX 14 24 -1 -8
BITMAP
1F78
1EFC
1FFC
3F3C
3E3C
3E3C
3C3C
3C3C
7C7C
7C7C
7C78
7878
F878
F8F8
F8F8
F0F0
03F0
07F0
19F0
11E0
11E0
13E0
1FC0
0F80
ENDCHAR
STARTCHAR Omacron
ENCODING 332
SWIDTH 665 0
DWIDTH 21 0
BBX 20 29 1 0
BITMAP
00FFC0
00FFC0
000000
000000
000000
00FF00
03FFC0
0F03C0
3C79E0
78F1E0
71E0F0
E3C0F0
E7C0F0
E780F0
CF80F0
CF81F0
3F01F0
1F01E0
1F01E0
1F03E0
1E03E0
3E03C0
3E07C0
3E0780
1E0F00
1F1F00
1FFE00
0FF800
07E000
ENDCHAR
STARTCHAR omacron
ENCODING 333
SWIDTH 433 0
DWIDTH 14 0
BBX 19 21 -1 0
BITMAP
0FFE00
0FFC00
000000
000000
000000
03E000
07F000
0F3800
1E1820
3E38C0
3C3F80
7C3C00
7C3800
783800
F83800
F87000
F87000
F8E000
7FE000
7FC000
1F0000
ENDCHAR
STARTCHAR Obreve
ENCODING 334
SWIDTH 665 0
DWIDTH 21 0
BBX 20 30 1 0
BITMAP
007070
007070
003FE0
001F80
000000
000000
00FF00
03FFC0
0F03C0
3C79E0
78F1E0
71E0F0
E3C0F0
E7C0F0
E780F0
CF80F0
CF81F0
3F01F0
1F01E0
1F01E0
1F03E0
1E03E0
3E03C0
3E07C0
3E0780
1E0F00
1F1F00
1FFE00
0FF800
07E000
ENDCHAR
STARTCHAR obreve
ENCODING 335
SWIDTH 433 0
DWIDTH 14 0
BBX 19 23 -1 0
BITMAP
0E0700
070E00
07FC00
03F000
000000
000000
000000
03E000
07F000
0F3800
1E1820
3E38C0
3C3F80
7C3C00
7C3800
783800
F83800
F87000
F87000
F8E000
7FE000
7FC000
1F0000
ENDCHAR
STARTCHAR Ohungarumlaut
ENCODING 336
SWIDTH 665 0
DWIDTH 21 0
BBX 22 32 1 0
BITMAP
00039C
000738
000630
000E70
000C60
0018C0
000000
000000
00FF00
03FFC0
0F03C0
3C79E0
78F1E0
71E0F0
E3C0F0
E7C0F0
E780F0
CF80F0
CF81F0
3F01F0
1F01E0
1F01E0
1F03E0
1E03E0
3E03C0
3E07C0
3E0780
1E0F00
1F1F00
1FFE00
0FF800
07E000
ENDCHAR
STARTCHAR ohungarumlaut
ENCODING 337
SWIDTH 433 0
DWIDTH 14 0
BBX 19 24 -1 0
BITMAP
00F780
00E700
01CE00
018C00
031C00
031800
000000
000000
03E000
07F000
0F3800
1E1820
3E38C0
3C3F80
7C3C00
7C3800
783800
F83800
F87000
F87000
F8E000
7FE000
7FC000
1F0000
ENDCHAR
STARTCHAR OE
ENCODING 338
SWIDTH 846 0
DWIDTH 27 0
BBX 28 24 1 0
BITMAP
00FFFFF0
03FFFFF0
0F1BFFE0
3CF1E000
79E1E000
73C0F000
E7C0F000
E7C0F000
EF80F000
CF80F000
CF01F000
1F01FF00
1F01FF00
1F01E000
1F01E000
1E03E000
3E03C000
3E07C000
3E078000
1E0F8000
1E0F0000
1F1FFF00
0FFFFE00
03FFFE00
ENDCHAR
STARTCHAR oe
ENCODING 339
SWIDTH 663 0
DWIDTH 21 0
BBX 23 16 0 0
BITMAP
07C1E0
1FE7F8
3E7F98
3C3F18
787E18
78FE10
F8FE30
F03C60
F07F80
F07E00
F07C06
F0FC0C
F8FC18
FFFE70
7F9FE0
3E0F80
ENDCHAR
STARTCHAR Racute
ENCODING 340
SWIDTH 601 0
DWIDTH 19 0
BBX 19 33 0 -1
BITMAP
0001C0
000380
000380
000700
000700
000E00
000C00
000000
00FE00
03FF80
0F03C0
1C11C0
39F1E0
71F1E0
F1E1C0
E1E1C0
E3E380
E3E700
63FF00
13FF80
07C780
07C780
07C780
078780
078780
0F8780
0F8F80
0F8F00
0F0F00
0F0F00
1F1F00
1F0F80
000400
ENDCHAR
STARTCHAR racute
ENCODING 341
SWIDTH 376 0
DWIDTH 12 0
BBX 14 24 -1 0
BITMAP
003C
0038
0070
0070
00E0
00C0
0000
0000
1F78
1FF8
1FF8
3F38
3E38
3E00
3C00
3C00
7C00
7C00
7C00
7800
7800
F800
F800
F800
ENDCHAR
STARTCHAR Rcommaaccent
ENCODING 342
SWIDTH 601 0
DWIDTH 19 0
BBX 19 32 0 -8
BITMAP
00FE00
03FF80
0F03C0
1C11C0
39F1E0
71F1E0
F1E1C0
E1E1C0
E3E380
E3E700
63FF00
13FF80
07C780
07C780
07C780
078780
078780
0F8780
0F8F80
0F8F00
0F0F00
0F0F00
1F1F00
1F0F80
000400
000000
00C000
01E000
00E000
00C000
00C000
018000
ENDCHAR
STARTCHAR rcommaaccent
ENCODING 343
SWIDTH 376 0
DWIDTH 12 0
BBX 13 24 -1 -8
BITMAP
1F78
1FF8
1FF8
3F38
3E38
3E00
3C00
3C00
7C00
7C00
7C00
7800
7800
F800
F800
F800
0000
0000
1800
3C00
1C00
0800
1800
3000
ENDCHAR
STARTCHAR Rcaron
ENCODING 344
SWIDTH 601 0
DWIDTH 19 0
BBX 20 33 0 -1
BITMAP
001010
001860
000DC0
000F80
000F00
000600
000400
000000
00FE00
03FF80
0F03C0
1C11C0
39F1E0
71F1E0
F1E1C0
E1E1C0
E3E380
E3E700
63FF00
13FF80
07C780
07C780
07C780
078780
078780
0F8780
0F8F80
0F8F00
0F0F00
0F0F00
1F1F00
1F0F80
000400
ENDCHAR
STARTCHAR rcaron
ENCODING 345
SWIDTH 376 0
DWIDTH 12 0
BBX 14 24 -1 0
BITMAP
040C
0638
03F0
03C0
0380
0100
0000
0000
1F78
1FF8
1FF8
3F38
3E38
3E00
3C00
3C00
7C00
7C00
7C00
7800
7800
F800
F800
F800
ENDCHAR
STARTCHAR Sacute
ENCODING 346
SWIDTH 570 0
DWIDTH 18 0
BBX 17 33 1 -1
BITMAP
000780
000700
000E00
000E00
001C00
001C00
003800
000000
00FC00
03FE00
07C700
0F8380
0F0380
0F8780
0F8F00
0F8600
0FC000
07E000
03F000
01F800
01FC00
00FC00
1C7E00
7E3E00
7C3E00
F01E00
F01E00
F03E00
F03E00
787C00
7FF800
1FE000
020000
ENDCHAR
STARTCHAR sacute
ENCODING 347
SWIDTH 382 0
DWIDTH 12 0
BBX 15 24 -1 0
BITMAP
003C
0038
0038
0070
0060
00E0
0000
00C0
07C0
07C0
07C0
0FE0
0BE0
1BE0
1BE0
13E0
33E0
63E0
F3E2
F3EC
C3F8
C7E0
7F80
3F00
ENDCHAR
STARTCHAR Scircumflex
ENCODING 348
SWIDTH 570 0
DWIDTH 18 0
BBX 17 33 1 -1
BITMAP
000200
000600
001E00
003E00
007300
00C100
010100
000000
00FC00
03FE00
07C700
0F8380
0F0380
0F8780
0F8F00
0F8600
0FC000
07E000
03F000
01F800
01FC00
00FC00
1C7E00
7E3E00
7C3E00
F01E00
F01E00
F03E00
F03E00
787C00
7FF800
1FE000
020000
ENDCHAR
STARTCHAR scircumflex
ENCODING 349
SWIDTH 382 0
DWIDTH 12 0
BBX 15 24 -1 0
BITMAP
0060
00E0
01E0
03F0
0730
0C10
1008
00C0
07C0
07C0
07C0
0FE0
0BE0
1BE0
1BE0
13E0
33E0
63E0
F3E2
F3EC
C3F8
C7E0
7F80
3F00
ENDCHAR
STARTCHAR Scedilla
ENCODING 350
SWIDTH 570 0
DWIDTH 18 0
BBX 17 31 1 -7
BITMAP
00FC00
03FE00
07C700
0F8380
0F0380
0F0780
0F8F00
0F8600
0FC000
07E000
03F000
01F800
01FC00
00FC00
1C7E00
3E3E00
7E3E00
F01E00
F01E00
F01E00
F03E00
707C00
7DF800
3FF000
030000
020000
07E000
00E000
08E000
0FC000
078000
ENDCHAR
STARTCHAR scedilla
ENCODING 351
SWIDTH 382 0
DWIDTH 12 0
BBX 15 24 -1 -7
BITMAP
03C0
07C0
07C0
07E0
0FE0
0BE0
1BE0
13E0
33E0
23E0
73E0
F3E6
E3E8
C7F0
FFE0
7F80
3F00
1800
1400
3F00
0700
4700
7E00
3C00
ENDCHAR
STARTCHAR Scaron
ENCODING 352
SWIDTH 570 0
DWIDTH 18 0
BBX 19 33 1 -1
BITMAP
002020
0030C0
001B80
001F00
001E00
000C00
000800
000000
00FC00
03FE00
07C700
0F8380
0F0380
0F8780
0F8F00
0F8600
0FC000
07E000
03F000
01F800
01FC00
00FC00
1C7E00
7E3E00
7C3E00
F01E00
F01E00
F03E00
F03E00
787C00
7FF800
1FE000
020000
ENDCHAR
STARTCHAR scaron
ENCODING 353
SWIDTH 369 0
DWIDTH 12 0
BBX 15 24 -1 0
BITMAP
060E
0338
0370
01E0
01C0
0180
0000
01C0
07C0
07C0
07E0
0FE0
0BE0
1BE0
13E0
33E0
33E0
73E0
F3E6
E3F8
C3F0
FFE0
7F80
3E00
ENDCHAR
STARTCHAR uni0162
ENCODING 354
SWIDTH 481 0
DWIDTH 15 0
BBX 23 31 0 -7
BITMAP
01FC02
0FFF86
1FFFFE
3C7FFC
787DF8
707C00
F07C00
E07800
E0F800
E0F800
60F800
70F000
01F000
01F000
01F000
01F000
01E000
03E000
03E000
03E000
03C000
03C000
07C000
07C000
010000
030000
03E000
04E000
08E000
0FE000
078000
ENDCHAR
STARTCHAR uni0163
ENCODING 355
SWIDTH 267 0
DWIDTH 9 0
BBX 11 28 -1 -7
BITMAP
0780
0F80
0F00
1F00
1F00
3FC0
1E00
1E00
3E00
3E00
3E00
3C00
3C00
7C00
7C00
7C60
7840
7CC0
7F80
7F00
3C00
3000
2800
7E00
0E00
8E00
FC00
7800
ENDCHAR
STARTCHAR Tcaron
ENCODING 356
SWIDTH 481 0
DWIDTH 15 0
BBX 23 32 0 0
BITMAP
002030
0010C0
001B80
001F00
001E00
000C00
000800
000000
01FC02
0FFF86
1FFFFE
3C7FFC
787DF8
707C00
F07C00
E07800
E0F800
E0F800
60F800
70F000
01F000
01F000
01F000
01F000
01E000
03E000
03E000
03E000
03C000
03C000
07C000
07C000
ENDCHAR
STARTCHAR tcaron
ENCODING 357
SWIDTH 267 0
DWIDTH 9 0
BBX 13 24 0 0
BITMAP
0038
0078
0038
0338
1F30
1E60
3E20
3E00
7F80
3C00
3C00
7C00
7C00
7C00
7800
7800
F800
F800
F8C0
F080
F980
FF00
FE00
7800
ENDCHAR
STARTCHAR Tbar
ENCODING 358
SWIDTH 481 0
DWIDTH 15 0
BBX 23 24 0 0
BITMAP
01FC02
0FFF86
1FFFFE
3C7FFC
787CF8
707C00
F07800
E07800
E0F800
E0F800
60F800
30F000
00F000
01F000
1FFF80
1FFF80
01E000
03E000
03E000
03E000
03C000
03C000
07C000
07C000
ENDCHAR
STARTCHAR tbar
ENCODING 359
SWIDTH 267 0
DWIDTH 9 0
BBX 11 21 -1 0
BITMAP
0780
0F80
0F00
1F00
1F00
3FC0
1E00
1E00
7FC0
FF80
3E00
3C00
3C00
7C00
7C00
7C60
7840
7CC0
7F80
7F00
3C00
ENDCHAR
STARTCHAR Utilde
ENCODING 360
SWIDTH 716 0
DWIDTH 23 0
BBX 24 30 0 0
BITMAP
000081
0007FE
001FFC
0010F8
000000
000000
00F80F
07F81F
0EF81F
38F81E
70F01E
70F03E
E1F03E
E1E03E
E1E03C
E1E03C
63E07C
03C07C
03C078
03C078
07C0F8
0780F8
0780F0
0781F0
0781F0
0781E0
07C3E0
07FFC0
03FF80
01FC00
ENDCHAR
STARTCHAR utilde
ENCODING 361
SWIDTH 505 0
DWIDTH 16 0
BBX 18 22 0 0
BITMAP
008100
07FE00
0FFC00
10F800
000000
000000
3E3E00
3C3C00
3C3C00
7C7C00
7C7C00
7C7C00
787800
78F800
F8F800
F8F800
F8F0C0
F1F080
F9F100
FFFF00
FEFE00
787800
ENDCHAR
STARTCHAR Umacron
ENCODING 362
SWIDTH 716 0
DWIDTH 23 0
BBX 24 29 0 0
BITMAP
000FFE
000FFC
000000
000000
000000
00F80F
07F81F
0EF81F
38F81E
70F01E
70F03E
E1F03E
E1E03E
E1E03C
E1E03C
63E07C
03C07C
03C078
03C078
07C0F8
0780F8
0780F0
0781F0
0781F0
0781E0
07C3E0
07FFC0
03FF80
01FC00
ENDCHAR
STARTCHAR umacron
ENCODING 363
SWIDTH 505 0
DWIDTH 16 0
BBX 18 21 0 0
BITMAP
0FFC00
0FFC00
000000
000000
000000
3E3E00
3C3C00
3C3C00
7C7C00
7C7C00
7C7C00
787800
78F800
F8F800
F8F800
F8F0C0
F1F080
F9F100
FFFF00
FEFE00
787800
ENDCHAR
STARTCHAR Ubreve
ENCODING 364
SWIDTH 716 0
DWIDTH 23 0
BBX 24 30 0 0
BITMAP
000E07
000E0E
0007FC
0003F0
000000
000000
00F80F
07F81F
0EF81F
38F81E
70F01E
70F03E
E1F03E
E1E03E
E1E03C
E1E03C
63E07C
03C07C
03C078
03C078
07C0F8
0780F8
0780F0
0781F0
0781F0
0781E0
07C3E0
07FFC0
03FF80
01FC00
ENDCHAR
STARTCHAR ubreve
ENCODING 365
SWIDTH 505 0
DWIDTH 16 0
BBX 18 23 0 0
BITMAP
0E0E00
0E0E00
07FC00
03F000
000000
000000
000000
3E3E00
3C3C00
3C3C00
7C7C00
7C7C00
7C7C00
787800
78F800
F8F800
F8F800
F8F0C0
F1F080
F9F100
FFFF00
FEFE00
787800
ENDCHAR
STARTCHAR Uring
ENCODING 366
SWIDTH 716 0
DWIDTH 23 0
BBX 24 31 0 0
BITMAP
0000E0
000120
000320
000120
0001C0
000000
000000
00F80F
07F81F
0EF81F
38F81E
70F01E
70F03E
E1F03E
E1E03E
E1E03C
E1E03C
63E07C
03C07C
03C078
03C078
07C0F8
0780F8
0780F0
0781F0
0781F0
0781E0
07C3E0
07FFC0
03FF80
01FC00
ENDCHAR
STARTCHAR uring
ENCODING 367
SWIDTH 505 0
DWIDTH 16 0
BBX 18 22 0 0
BITMAP
01E000
012000
032000
01E000
000000
000000
3E3E00
3C3C00
3C3C00
7C7C00
7C7C00
7C7C00
787800
78F800
F8F800
F8F800
F8F0C0
F1F080
F9F100
FFFF00
FEFE00
787800
ENDCHAR
STARTCHAR Uhungarumlaut
ENCODING 368
SWIDTH 716 0
DWIDTH 23 0
BBX 25 32 0 0
BITMAP
0000F780
0000E700
0001CE00
00018C00
00031C00
00071800
00000000
00000000
00F80F00
07F81F00
0EF81F00
38F81E00
70F01E00
70F03E00
E1F03E00
E1E03E00
E1E03C00
E1E03C00
63E07C00
03C07C00
03C07800
03C07800
07C0F800
0780F800
0780F000
0781F000
0781F000
0781E000
07C3E000
07FFC000
03FF8000
01FC0000
ENDCHAR
STARTCHAR uhungarumlaut
ENCODING 369
SWIDTH 505 0
DWIDTH 16 0
BBX 18 24 0 0
BITMAP
01E700
01CE00
038C00
031C00
071800
063000
000000
000000
3E3E00
3C3C00
3C3C00
7C7C00
7C7C00
7C7C00
787800
78F800
F8F800
F8F800
F8F0C0
F1F080
F9F100
FFFF00
FEFE00
787800
ENDCHAR
STARTCHAR Uogonek
ENCODING 370
SWIDTH 716 0
DWIDTH 23 0
BBX 24 39 0 -7
BITMAP
000700
000780
000380
000380
000380
000180
000000
000000
00F80F
07F81F
0EF81F
38F81E
70F01E
70F03E
E1F03E
E1E03E
E1E03C
E1E03C
63E07C
03C07C
03C07C
03C078
07C0F8
0780F8
0780F0
0781F0
0781F0
0781E0
07C3E0
07FFC0
03FF80
01FE00
006000
006000
00E000
00E000
00E200
00FC00
007800
ENDCHAR
STARTCHAR uogonek
ENCODING 371
SWIDTH 505 0
DWIDTH 16 0
BBX 18 23 0 -7
BITMAP
3E3E00
3C3C00
3C3C00
7C7C00
7C7C00
7C7C00
787800
78F800
F8F800
F8F800
F8F0C0
F1F080
F9F180
FFFF00
FEFE00
787C00
006000
006000
00E000
00E000
00E200
00FC00
007800
ENDCHAR
STARTCHAR Wcircumflex
ENCODING 372
SWIDTH 962 0
DWIDTH 31 0
BBX 33 32 0 0
BITMAP
0000008000
0000018000
0000038000
00000FC000
00001EC000
0000384000
0000604000
0000000000
00F80F0180
03F81F0300
0EF81F0300
1CF81F0300
38F83F0600
70F83F0600
F0F87F0600
E0F87F0C00
E0F87F0C00
E0F8DF0C00
60F8DF1800
10F8DF1800
00F99F1000
00F99F3000
00F99F3000
00FB1F6000
00FB1F6000
00FA1F6000
00FE1FC000
00FE1FC000
00FC1F8000
00FC1F8000
00FC1F8000
00F81F0000
ENDCHAR
STARTCHAR wcircumflex
ENCODING 373
SWIDTH 661 0
DWIDTH 21 0
BBX 21 24 0 0
BITMAP
000400
000E00
001E00
003E00
007300
00C300
010100
000000
3E3E70
3C3C78
3C3C78
7C7C18
7C7C18
7C7C30
787830
78F830
F8F870
F8F860
F8F0E0
F1F0C0
F9F1C0
FFFF80
FEFF00
787C00
ENDCHAR
STARTCHAR Ycircumflex
ENCODING 374
SWIDTH 620 0
DWIDTH 20 0
BBX 22 32 0 0
BITMAP
000020
000060
0000E0
0003E0
000730
000C10
001010
000000
00F80C
03F80C
0EF818
1CFC18
387C30
707C30
F07C20
E07E60
E03E60
E03EC0
603EC0
103F80
001F80
001F00
001F00
001F00
003F00
003E00
003E00
003E00
003E00
007E00
007C00
007C00
ENDCHAR
STARTCHAR ycircumflex
ENCODING 375
SWIDTH 505 0
DWIDTH 16 0
BBX 17 32 0 -8
BITMAP
002000
007000
00F000
01F000
031800
0C0800
000000
000000
3E3E00
3C3C00
3C3C00
7C7C00
7C7C00
7C7C00
787800
78F800
F8F800
F8F800
F8F180
F1F100
F9F300
FFF200
FFFC00
79F800
07E000
1FE000
3BE000
33E000
67C000
7FC000
3F8000
1E0000
ENDCHAR
STARTCHAR Ydieresis
ENCODING 376
SWIDTH 620 0
DWIDTH 20 0
BBX 22 30 0 0
BITMAP
000618
000F3C
000F3C
000618
000000
000000
00F80C
03F80C
0EF818
1CFC18
387C30
707C30
F07C20
E07E60
E03E60
E03EC0
603EC0
103F80
001F80
001F00
001F00
001F00
003F00
003E00
003E00
003E00
003E00
007E00
007C00
007C00
ENDCHAR
STARTCHAR Zacute
ENCODING 377
SWIDTH 542 0
DWIDTH 17 0
BBX 18 32 0 0
BITMAP
0001C0
000380
000380
000700
000600
000E00
000C00
000000
07FFC0
1FFF80
1C1F00
1C1F00
1C3E00
003E00
007C00
007C00
00F800
00F800
01F000
01F000
03E000
03E000
07C000
07C000
0F8000
0F8000
1F0000
1F0700
3E0F00
3E0700
7FFE00
FFFC00
ENDCHAR
STARTCHAR zacute
ENCODING 378
SWIDTH 428 0
DWIDTH 14 0
BBX 14 24 0 0
BITMAP
003C
0038
0070
0060
00E0
00C0
0100
0000
0FFC
3FF8
38F0
39F0
31E0
03E0
07C0
0780
0F80
0F00
1F00
1E20
3E70
7C30
7FF0
FFE0
ENDCHAR
STARTCHAR Zdotaccent
ENCODING 379
SWIDTH 530 0
DWIDTH 17 0
BBX 18 30 0 0
BITMAP
003800
003800
003800
003800
000000
000000
07FFC0
1FFF80
1C1F00
1C1F00
1C3E00
003E00
007C00
007C00
00F800
00F800
01F000
01F000
03E000
03E000
07C000
07C000
0F8000
0F8000
1F0000
1F0700
3E0F00
3E0700
7FFE00
FFFC00
ENDCHAR
STARTCHAR zdotaccent
ENCODING 380
SWIDTH 428 0
DWIDTH 14 0
BBX 14 22 0 0
BITMAP
00C0
01E0
01E0
00C0
0000
0000
0FFC
3FF8
38F0
39F0
31E0
03E0
07C0
0780
0F80
0F00
1F00
1E20
3E70
7C30
7FF0
FFE0
ENDCHAR
STARTCHAR Zcaron
ENCODING 381
SWIDTH 542 0
DWIDTH 17 0
BBX 19 32 0 0
BITMAP
002020
0030C0
003380
001F00
001E00
001800
001000
000000
07FFC0
1FFF80
1C1F00
1C1F00
1C3E00
003E00
007C00
007C00
00F800
00F800
01F000
01F000
03E000
03E000
07C000
07C000
0F8000
0F8000
1F0000
1F0700
3E0F00
3E0700
7FFE00
FFFC00
ENDCHAR
STARTCHAR zcaron
ENCODING 382
SWIDTH 428 0
DWIDTH 14 0
BBX 15 24 0 0
BITMAP
0206
031C
01F8
01E0
01C0
0080
0000
0000
0FFC
3FF8
38F0
39F0
31E0
03E0
07C0
0780
0F80
0F00
1F00
1E20
3E70
7C30
7FF0
FFE0
ENDCHAR
STARTCHAR longs
ENCODING 383
SWIDTH 267 0
DWIDTH 9 0
BBX 19 32 -7 -8
BITMAP
000780
000FE0
001FE0
003E20
003E20
003C00
007C00
007C00
01FC00
007800
007800
00F800
00F800
00F800
00F000
00F000
01F000
01F000
01F000
01E000
01E000
03E000
03E000
03E000
0FC000
37C000
67C000
C7C000
CF8000
FF8000
7F0000
3C0000
ENDCHAR
STARTCHAR uni018F
ENCODING 399
SWIDTH 544 0
DWIDTH 17 0
BBX 16 24 1 0
BITMAP
07F0
0FFC
1FFE
3FFE
383F
301F
001F
001F
001F
001F
00FF
07FF
0F3F
3E3E
3C3E
783E
F07C
F07C
F0F8
F0F0
F1F0
F3E0
7F80
3E00
ENDCHAR
STARTCHAR florin
ENCODING 402
SWIDTH 267 0
DWIDTH 9 0
BBX 22 32 -8 -8
BITMAP
0000F8
0001FC
0003DC
00079C
000FBC
000F10
001F00
001F00
00FFE0
003E00
003E00
003E00
003C00
007C00
007C00
007800
007800
00F800
00F800
00F000
01F000
01F000
01E000
01E000
03E000
03C000
63C000
F78000
E78000
EF0000
FE0000
7C0000
ENDCHAR
STARTCHAR Ohorn
ENCODING 416
SWIDTH 665 0
DWIDTH 21 0
BBX 22 28 1 0
BITMAP
00001C
00001C
00001C
00001C
00FE18
03FFB8
0F03F0
3C79E0
78F1E0
71E0F0
E3C0F0
E7C0F0
E780F0
CF80F0
CF81F0
3F01F0
1F01F0
1F01E0
1F03E0
1E03E0
3E03C0
3E07C0
3E0780
1E0F80
1F1F00
1FFE00
0FFC00
07E000
ENDCHAR
STARTCHAR ohorn
ENCODING 417
SWIDTH 439 0
DWIDTH 14 0
BBX 16 21 0 0
BITMAP
0002
0007
0007
0006
0006
03CE
0FFC
1E78
3C30
7C30
7830
F830
F870
F870
F070
F0F0
F0E0
F9C0
FFC0
7F80
3E00
ENDCHAR
STARTCHAR Uhorn
ENCODING 431
SWIDTH 716 0
DWIDTH 23 0
BBX 28 30 0 0
BITMAP
00000020
00000070
00000070
00000070
00000060
000000E0
00F80FC0
07F81F80
0EF81F00
38F81F00
70F01E00
70F03E00
E1F03E00
E1E03E00
E1E03C00
E1E03C00
63E07C00
03C07C00
03C07C00
03C07800
07C0F800
0780F800
0780F000
0781F000
0781F000
0781E000
07C3E000
07FFC000
03FF8000
01FE0000
ENDCHAR
STARTCHAR uhorn
ENCODING 432
SWIDTH 505 0
DWIDTH 16 0
BBX 18 21 0 0
BITMAP
000180
0001C0
000180
000180
000300
3E3F00
3C3E00
3C3C00
7C7C00
7C7C00
7C7C00
787800
78F800
F8F800
F8F800
F8F0C0
F1F080
F9F100
FFFF00
FEFE00
787800
ENDCHAR
STARTCHAR uni01B7
ENCODING 439
SWIDTH 555 0
DWIDTH 18 0
BBX 17 25 1 -1
BITMAP
0FFF80
1FFF00
381F00
3C3E00
3C7C00
007800
00F800
01F000
03E000
03C000
07F000
07F800
00FC00
007E00
003E00
003E00
003E00
203E00
F03E00
E07C00
E07C00
E0F800
F3F000
7FC000
040000
ENDCHAR
STARTCHAR uni01CD
ENCODING 461
SWIDTH 668 0
DWIDTH 21 0
BBX 27 35 0 -3
BITMAP
00002020
000030C0
00001B80
00001F00
00001E00
00000C00
00000800
00000000
00007C00
0000FC00
0003FC00
00077C00
000E7800
000C7800
001CF800
0038F800
0070F000
0070F000
0FE1F000
3FFFF000
79C3F000
F3C1E000
F381E000
2783E000
0783E000
0F03E000
0F03C000
0F03C000
1E07C000
1E07C000
1E078000
1E078000
1E000000
1E000000
1E000000
ENDCHAR
STARTCHAR uni01CE
ENCODING 462
SWIDTH 526 0
DWIDTH 17 0
BBX 18 24 0 0
BITMAP
008180
00C600
00DC00
007800
007000
006000
000000
000000
07DE00
0FFE00
1E3E00
3C3E00
7C3C00
783C00
F87C00
F87C00
F87C00
F07800
F07840
F0F8C0
F9F880
FF7F80
7E7F00
3C3C00
ENDCHAR
STARTCHAR uni01CF
ENCODING 463
SWIDTH 375 0
DWIDTH 12 0
BBX 18 32 0 0
BITMAP
00C0C0
004380
006700
007C00
003800
003000
002000
000000
00F800
03F000
0EF000
1DF000
39F000
71F000
F1E000
E1E000
E3E000
E3E000
63C000
13C000
07C000
07C000
07C000
078000
078000
0F8000
0F8000
0F8000
0F0000
0F0000
1F0000
1F0000
ENDCHAR
STARTCHAR uni01D0
ENCODING 464
SWIDTH 267 0
DWIDTH 9 0
BBX 12 24 0 0
BITMAP
3070
19C0
1F80
0F00
0E00
0C00
0000
0000
3E00
3C00
3C00
7C00
7C00
7C00
7800
7800
F800
F800
F8C0
F080
F980
FF00
FE00
7800
ENDCHAR
STARTCHAR uni01D1
ENCODING 465
SWIDTH 665 0
DWIDTH 21 0
BBX 21 32 1 0
BITMAP
000808
000C30
0006E0
0007C0
000780
000300
000200
000000
00FF00
03FFC0
0F03C0
3C79E0
78F1E0
71E0F0
E3C0F0
E7C0F0
E780F0
CF80F0
CF81F0
3F01F0
1F01E0
1F01E0
1F03E0
1E03E0
3E03C0
3E07C0
3E0780
1E0F00
1F1F00
1FFE00
0FF800
07E000
ENDCHAR
STARTCHAR uni01D2
ENCODING 466
SWIDTH 433 0
DWIDTH 14 0
BBX 19 24 -1 0
BITMAP
010300
018C00
01F800
00F000
00E000
00C000
000000
000000
03E000
07F000
0F3800
1E1820
3E38C0
3C3F80
7C3C00
7C3800
783800
F83800
F87000
F87000
F8E000
7FE000
7FC000
1F0000
ENDCHAR
STARTCHAR uni01D3
ENCODING 467
SWIDTH 716 0
DWIDTH 23 0
BBX 24 32 0 0
BITMAP
000101
000106
00019C
0000F8
0000F0
0000C0
000040
000000
00F80F
07F81F
0EF81F
38F81E
70F01E
70F03E
E1F03E
E1E03E
E1E03C
E1E03C
63E07C
03C07C
03C078
03C078
07C0F8
0780F8
0780F0
0781F0
0781F0
0781E0
07C3E0
07FFC0
03FF80
01FC00
ENDCHAR
STARTCHAR uni01D4
ENCODING 468
SWIDTH 505 0
DWIDTH 16 0
BBX 18 24 0 0
BITMAP
030700
011C00
01F800
01F000
00E000
00C000
000000
000000
3E3E00
3C3C00
3C3C00
7C7C00
7C7C00
7C7C00
787800
78F800
F8F800
F8F800
F8F0C0
F1F080
F9F100
FFFF00
FEFE00
787800
ENDCHAR
STARTCHAR uni01D5
ENCODING 469
SWIDTH 716 0
DWIDTH 23 0
BBX 24 32 0 0
BITMAP
0007FE
0007FE
000000
00061C
000F1E
000F1E
00061C
000000
00F80F
07F81F
0EF81F
38F81E
70F01E
70F03E
E1F03E
E1E03E
E1E03C
E1E03C
63E07C
03C07C
03C078
03C078
07C0F8
0780F8
0780F0
0781F0
0781F0
0781E0
07C3E0
07FFC0
03FF80
01FC00
ENDCHAR
STARTCHAR uni01D6
ENCODING 470
SWIDTH 505 0
DWIDTH 16 0
BBX 18 27 0 0
BITMAP
07FE00
07FE00
000000
000000
000000
071800
0F3C00
0F3C00
071800
000000
000000
3E3E00
3C3C00
3C3C00
7C7C00
7C7C00
7C7C00
787800
78F800
F8F800
F8F800
F8F0C0
F1F080
F9F100
FFFF00
FEFE00
787800
ENDCHAR
STARTCHAR uni01D7
ENCODING 471
SWIDTH 716 0
DWIDTH 23 0
BBX 24 32 0 0
BITMAP
000038
000070
001C77
001CEF
001CCF
001DC7
000000
000000
00F80F
07F81F
0EF81F
38F81E
70F01E
70F03E
E1F03E
E1E03E
E1E03C
E1E03C
63E07C
03C07C
03C078
03C078
07C0F8
0780F8
0780F0
0781F0
0781F0
0781E0
07C3E0
07FFC0
03FF80
01FC00
ENDCHAR
STARTCHAR uni01D8
ENCODING 472
SWIDTH 505 0
DWIDTH 16 0
BBX 18 30 0 0
BITMAP
001E00
001C00
003800
003800
007000
006000
00E000
000000
071800
0F3C00
0F3C00
071800
000000
000000
3E3E00
3C3C00
3C3C00
7C7C00
7C7C00
7C7C00
787800
78F800
F8F800
F8F800
F8F0C0
F1F080
F9F100
FFFF00
FEFE00
787800
ENDCHAR
STARTCHAR uni01D9
ENCODING 473
SWIDTH 716 0
DWIDTH 23 0
BBX 24 32 0 0
BITMAP
000206
000118
001DF7
001DEF
001CCF
001C87
000000
000000
00F80F
07F81F
0EF81F
38F81E
70F01E
70F03E
E1F03E
E1E03E
E1E03C
E1E03C
63E07C
03C07C
03C078
03C078
07C0F8
0780F8
0780F0
0781F0
0781F0
0781E0
07C3E0
07FFC0
03FF80
01FC00
ENDCHAR
STARTCHAR uni01DA
ENCODING 474
SWIDTH 505 0
DWIDTH 16 0
BBX 18 29 0 0
BITMAP
018300
008E00
00FC00
00F800
006000
004000
000000
071800
0F3C00
0F3C00
071800
000000
000000
3E3E00
3C3C00
3C3C00
7C7C00
7C7C00
7C7C00
787800
78F800
F8F800
F8F800
F8F0C0
F1F080
F9F100
FFFF00
FEFE00
787800
ENDCHAR
STARTCHAR uni01DB
ENCODING 475
SWIDTH 716 0
DWIDTH 23 0
BBX 24 32 0 0
BITMAP
0001C0
0001E0
001CE7
001CEF
001CEF
001C67
000000
000000
00F80F
07F81F
0EF81F
38F81E
70F01E
70F03E
E1F03E
E1E03E
E1E03C
E1E03C
63E07C
03C07C
03C078
03C078
07C0F8
0780F8
0780F0
0781F0
0781F0
0781E0
07C3E0
07FFC0
03FF80
01FC00
ENDCHAR
STARTCHAR uni01DC
ENCODING 476
SWIDTH 505 0
DWIDTH 16 0
BBX 18 30 0 0
BITMAP
03C000
01C000
01C000
01C000
01C000
00C000
000000
000000
071800
0F3C00
0F3C00
071800
000000
000000
3E3E00
3C3C00
3C3C00
7C7C00
7C7C00
7C7C00
787800
78F800
F8F800
F8F800
F8F0C0
F1F080
F9F100
FFFF00
FEFE00
787800
ENDCHAR
STARTCHAR uni01E4
ENCODING 484
SWIDTH 601 0
DWIDTH 19 0
BBX 18 31 1 -7
BITMAP
00FC00
03FF00
0FC380
1F0380
3E0380
3E0380
7C0780
7C0300
F80000
F80000
F80000
F80700
F80F00
F8FFC0
F8FFC0
F81F00
F83E00
7C7E00
7FDE00
3FBE00
0F3C00
003C00
1F3C00
3F7C00
3F7800
707800
707800
70F000
39E000
3FC000
0F8000
ENDCHAR
STARTCHAR uni01E5
ENCODING 485
SWIDTH 507 0
DWIDTH 16 0
BBX 18 24 0 -8
BITMAP
07DE00
0FFE00
1E3E00
3C3E00
7C3C00
783C00
F87C00
F87C00
F87C00
F07800
F0F8C0
F0F880
F9F980
FFF300
7FF600
3DFC00
03F000
0FF000
7FF800
7FF800
33E000
33C000
3F8000
1F0000
ENDCHAR
STARTCHAR Gcaron
ENCODING 486
SWIDTH 578 0
DWIDTH 19 0
BBX 20 39 1 -7
BITMAP
002030
0010E0
001B80
001F00
000E00
000C00
000800
000000
00FC00
03FF00
0FC380
1F0380
3E0380
3E0380
7C0780
7C0300
F80000
F80000
F80000
F80700
F80F00
F80F00
F80F00
F81F00
F83E00
7C7E00
7FDE00
3FBE00
0F3C00
003C00
1F3C00
3F7C00
3F7800
707800
707800
70F000
39E000
3FC000
0F8000
ENDCHAR
STARTCHAR gcaron
ENCODING 487
SWIDTH 507 0
DWIDTH 16 0
BBX 18 32 0 -8
BITMAP
008180
00C600
00DC00
007800
007000
006000
000000
000000
07DE00
0FFE00
1E3E00
3C3E00
7C3C00
783C00
F87C00
F87C00
F87C00
F07800
F0F8C0
F0F880
F9F980
FFF300
7FF600
3DFC00
03F000
0FF000
1DE000
31E000
33E000
33C000
3FC000
0F0000
ENDCHAR
STARTCHAR uni01E8
ENCODING 488
SWIDTH 601 0
DWIDTH 19 0
BBX 23 33 0 -1
BITMAP
00060E
000338
0003F0
0001E0
0001C0
000180
000000
000000
00F838
03F070
0EF0E0
1DF1C0
39F1C0
71F380
71E700
E1E600
E3EC00
E3FC00
63F800
33FF00
07CF80
07C780
07C780
07C780
078780
0F8780
0F8F80
0F8F00
0F0F00
0F0F00
1F1F00
1F0F80
000400
ENDCHAR
STARTCHAR uni01E9
ENCODING 489
SWIDTH 518 0
DWIDTH 17 0
BBX 19 30 -1 0
BITMAP
0060E0
003380
003F00
003E00
001C00
001800
000000
000000
0F8000
0F8000
0F8000
0F0000
0F0000
1F0000
1F0F00
1F1C00
1E3800
3E6000
3FF000
3FF800
3FFC00
3E7C00
7C3C00
7C7C00
7C7C60
787C40
787CC0
F87F80
F83F80
F81E00
ENDCHAR
STARTCHAR uni01EA
ENCODING 490
SWIDTH 665 0
DWIDTH 21 0
BBX 20 39 1 -7
BITMAP
00F000
007000
007000
007000
003000
003800
000000
000000
00FF00
03FFC0
0F03C0
3C79E0
78F1E0
71E0F0
E3C0F0
E7C0F0
E780F0
CF80F0
CF81F0
3F01F0
1F01E0
1F01E0
1F03E0
1E03E0
3E03C0
3E07C0
3E0780
1E0F00
1F1F00
1FFE00
0FFC00
07F000
030000
060000
060000
0E0000
073000
07E000
038000
ENDCHAR
STARTCHAR uni01EB
ENCODING 491
SWIDTH 433 0
DWIDTH 14 0
BBX 19 23 -1 -7
BITMAP
03E000
07F000
0F3800
1E1820
3E38C0
3C3F80
7C3C00
7C3800
783800
F83800
F87000
F87000
F8E000
7FE000
7FC000
1F0000
180000
300000
300000
700000
798000
3F0000
1C0000
ENDCHAR
STARTCHAR uni01EE
ENCODING 494
SWIDTH 525 0
DWIDTH 17 0
BBX 18 33 1 -1
BITMAP
00C1C0
004700
007E00
007C00
003000
002000
000000
000000
0FFF80
1FFF00
381F00
3C3E00
3C7C00
007800
00F800
01F000
03E000
03C000
07F000
07F800
00FC00
007E00
003E00
003E00
003E00
203E00
F03E00
E07C00
E07C00
E0F800
F3F000
7FC000
040000
ENDCHAR
STARTCHAR uni01EF
ENCODING 495
SWIDTH 600 0
DWIDTH 19 0
BBX 15 32 0 -8
BITMAP
0206
031C
01F8
01E0
01C0
0080
0000
0000
1FF8
3FF0
71F0
71E0
73C0
07C0
0780
0F80
0F00
1E00
1E00
0F02
0F86
0784
078C
07B8
07E0
1FC0
7780
E780
CF80
CF00
FF00
7C00
ENDCHAR
STARTCHAR uni01F4
ENCODING 500
SWIDTH 578 0
DWIDTH 19 0
BBX 17 38 1 -7
BITMAP
000380
000700
000600
000E00
001C00
000000
000000
00FC00
03FF00
0FC380
1F0380
3E0380
3E0380
7C0780
7C0700
F80000
F80000
F80000
F80700
F80F00
F80F00
F80F00
F81F00
F83E00
7C7E00
7FDE00
3FBE00
0F3C00
003C00
1F3C00
3F7C00
3F7800
707800
707800
70F000
39E000
3FC000
0F8000
ENDCHAR
STARTCHAR uni01F5
ENCODING 501
SWIDTH 507 0
DWIDTH 16 0
BBX 18 32 0 -8
BITMAP
003C00
003800
003800
007000
006000
00E000
000000
000000
07DE00
0FFE00
1E3E00
3C3E00
7C3C00
783C00
F87C00
F87C00
F87C00
F07800
F0F8C0
F0F880
F9F980
FFF300
7FF600
3DFC00
03F000
0FF000
1DE000
31E000
33E000
33C000
3FC000
0F0000
ENDCHAR
STARTCHAR Aringacute
ENCODING 506
SWIDTH 668 0
DWIDTH 21 0
BBX 25 35 0 -3
BITMAP
00000380
00000780
00000700
00000600
00001C00
00003C00
00002600
00002600
00003C00
00007C00
0001FC00
00037C00
00067800
000C7800
001CF800
0038F800
0030F800
0070F000
0FE1F000
3FFFF000
79C3F000
F3C1E000
F381E000
2783E000
0783E000
0F03E000
0F03C000
0F03C000
1E07C000
1E07C000
1E078000
1E078000
1E000000
1E000000
1E000000
ENDCHAR
STARTCHAR aringacute
ENCODING 507
SWIDTH 526 0
DWIDTH 17 0
BBX 18 26 0 0
BITMAP
001C00
001C00
003800
007000
00F000
019800
009000
00F000
000000
000000
07DE00
0FFE00
1E3E00
3C3E00
7C3C00
783C00
F87C00
F87C00
F87C00
F07800
F07840
F0F8C0
F9F880
FF7F80
7E7F00
3C3C00
ENDCHAR
STARTCHAR AEacute
ENCODING 508
SWIDTH 764 0
DWIDTH 24 0
BBX 29 35 0 -3
BITMAP
000001E0
000001C0
00000380
00000300
00000700
00000600
00000C00
00000000
00007C08
0000FFF8
0003FFF0
00077CE0
000E7800
000C7800
0018F800
0038F800
0070F000
0070F000
1FF1F000
7FFFFF80
F1C3FF00
F3C1E000
7381E000
0783E000
0783E000
0F03E000
0F03C000
0F07C000
1E07C000
1E07FF80
1E07FF80
1E07FF00
1E000000
1E000000
1E000000
ENDCHAR
STARTCHAR aeacute
ENCODING 509
SWIDTH 650 0
DWIDTH 21 0
BBX 22 24 0 0
BITMAP
0001E0
0001C0
000380
000300
000700
000600
000800
000000
07E3E0
0FF7F0
387F30
107E30
007C30
007C70
007CE0
1FF9C0
7FFF80
F8FE00
F0F804
F0F808
F9F830
FF7FE0
FE7FC0
7C3F00
ENDCHAR
STARTCHAR Oslashacute
ENCODING 510
SWIDTH 658 0
DWIDTH 21 0
BBX 20 34 0 -2
BITMAP
000070
0000F0
0000E0
0001C0
0001C0
000380
000300
000000
000300
000200
007F00
03FFC0
0FFFE0
1CF6E0
39E4F0
73ECF0
73CCF0
E7CCF0
678CF0
7F88F0
0F98F0
0F99F0
0F19E0
1F11E0
1F13E0
1F33C0
1F37C0
1F3780
0F2F00
0FFE00
07FC00
03F000
004000
00C000
ENDCHAR
STARTCHAR oslashacute
ENCODING 511
SWIDTH 428 0
DWIDTH 14 0
BBX 17 25 -2 -1
BITMAP
000F00
000E00
001C00
001C00
003800
003000
000000
000000
00F180
03FB00
078E00
0F0C00
1F0C00
1E1C00
3E3C00
3E6C00
3EDC00
3D9C00
3F3800
3E3800
3E7000
3FF000
1FC000
3F8000
E00000
ENDCHAR
STARTCHAR uni0200
ENCODING 512
SWIDTH 668 0
DWIDTH 21 0
BBX 23 34 0 -3
BITMAP
001EF0
000E38
000738
000318
00018C
000186
000040
00007C
0000FC
0003FC
00077C
000E78
000C78
001CF8
0038F8
0070F0
0070F0
0FE1F0
3FFFF0
79C3F0
F3C1E0
F381E0
2783E0
0783E0
0F03E0
0F03C0
0F03C0
1E07C0
1E07C0
1E0780
1E0780
1E0000
1E0000
1E0000
ENDCHAR
STARTCHAR uni0201
ENCODING 513
SWIDTH 526 0
DWIDTH 17 0
BBX 18 24 0 0
BITMAP
3DE000
1C7000
0E7000
063800
031800
038C00
000000
000000
07DE00
0FFE00
1E3E00
3C3E00
7C3C00
783C00
F87C00
F87C00
F87C00
F07800
F07840
F0F8C0
F9F880
FF7F80
7E7F00
3C3C00
ENDCHAR
STARTCHAR uni0202
ENCODING 514
SWIDTH 668 0
DWIDTH 21 0
BBX 26 33 0 -3
BITMAP
00003F00
0000FF80
0001C3C0
000381C0
00000000
00000000
00007C00
0000FC00
0003FC00
00077C00
000E7800
000C7800
001CF800
0038F800
0070F000
0070F000
0FE1F000
3FFFF000
79C3F000
F3C1E000
F381E000
2783E000
0783E000
0F03E000
0F03C000
0F03C000
1E07C000
1E07C000
1E078000
1E078000
1E000000
1E000000
1E000000
ENDCHAR
STARTCHAR uni0203
ENCODING 515
SWIDTH 526 0
DWIDTH 17 0
BBX 18 22 0 0
BITMAP
00F800
03FE00
070E00
0E0600
000100
000000
07DE00
0FFE00
1E3E00
3C3E00
7C3C00
783C00
F87C00
F87C00
F87C00
F07800
F07840
F0F8C0
F9F880
FF7F80
7E7F00
3C3C00
ENDCHAR
STARTCHAR uni0204
ENCODING 516
SWIDTH 459 0
DWIDTH 15 0
BBX 16 33 0 -1
BITMAP
1E70
0638
0738
031C
018C
00C6
0000
0000
007C
01FE
03C7
0787
0787
0F07
0F0E
0F00
0F80
0780
03F0
0FC0
1F00
3F00
7E00
7C00
7C00
FC00
FC02
FC02
FC0C
7FF8
7FF0
3FE0
0600
ENDCHAR
STARTCHAR uni0205
ENCODING 517
SWIDTH 384 0
DWIDTH 12 0
BBX 13 24 0 0
BITMAP
F780
71C0
39C0
18E0
0C60
0E30
0000
0000
07C0
0FE0
1E70
3C70
7C70
7860
F8E0
F9C0
FF80
FE00
F000
F018
F830
FFE0
7FC0
3F00
ENDCHAR
STARTCHAR uni0206
ENCODING 518
SWIDTH 459 0
DWIDTH 15 0
BBX 18 31 0 -1
BITMAP
003F00
00FF80
01C1C0
0181C0
020000
000000
007C00
01FE00
03C700
078700
078700
0F0700
0F0E00
0F0000
0F8000
078000
03F000
0FC000
1F0000
3F0000
7E0000
7C0000
7C0000
FC0000
FC0200
FC0200
FC0C00
7FF800
7FF000
3FE000
060000
ENDCHAR
STARTCHAR uni0207
ENCODING 519
SWIDTH 384 0
DWIDTH 12 0
BBX 13 22 0 0
BITMAP
07E0
1FF0
3C38
3838
0000
0000
07C0
0FE0
1E70
3C70
7C70
7860
F8E0
F9C0
FF80
FE00
F000
F018
F830
FFE0
7FC0
3F00
ENDCHAR
STARTCHAR uni0208
ENCODING 520
SWIDTH 375 0
DWIDTH 12 0
BBX 13 31 0 0
BITMAP
3DE0
1CE0
0E70
0630
0718
0318
0000
00F8
03F0
0FF0
1DF0
39F0
71F0
71E0
E1E0
E3E0
E3E0
E3C0
73C0
03C0
07C0
07C0
0780
0780
0F80
0F80
0F80
0F00
0F00
1F00
1F00
ENDCHAR
STARTCHAR uni0209
ENCODING 521
SWIDTH 267 0
DWIDTH 9 0
BBX 13 24 -3 0
BITMAP
E780
7380
31C0
38C0
18E0
0C60
0000
0000
07C0
0780
0780
0F80
0F80
0F80
0F00
0F00
1F00
1F00
1F18
1E10
1F30
1FE0
1FC0
0F00
ENDCHAR
STARTCHAR uni020A
ENCODING 522
SWIDTH 375 0
DWIDTH 12 0
BBX 16 30 0 0
BITMAP
00FC
03FE
070F
0E07
0000
0000
00F8
03F0
0EF0
1DF0
39F0
71F0
F1E0
E1E0
E3E0
E3E0
63C0
13C0
07C0
07C0
07C0
0780
0780
0F80
0F80
0F80
0F00
0F00
1F00
1F00
ENDCHAR
STARTCHAR uni020B
ENCODING 523
SWIDTH 267 0
DWIDTH 9 0
BBX 10 22 0 0
BITMAP
1F00
7F80
E180
C1C0
0000
0000
3E00
3C00
3C00
7C00
7C00
7C00
7800
7800
F800
F800
F8C0
F080
F980
FF00
FE00
7800
ENDCHAR
STARTCHAR uni020C
ENCODING 524
SWIDTH 665 0
DWIDTH 21 0
BBX 20 32 1 0
BITMAP
07BC00
039C00
01CE00
00C600
00E300
006300
000080
000000
00FF00
03FFC0
0F03C0
3C79E0
78F1E0
71E0F0
E3C0F0
E7C0F0
E780F0
CF80F0
CF81F0
3F01F0
1F01E0
1F01E0
1F03E0
1E03E0
3E03C0
3E07C0
3E0780
1E0F00
1F1F00
1FFE00
0FF800
07E000
ENDCHAR
STARTCHAR uni020D
ENCODING 525
SWIDTH 433 0
DWIDTH 14 0
BBX 19 24 -1 0
BITMAP
7BC000
39C000
1CE000
0C6000
063000
063800
000000
000000
03E000
07F000
0F3800
1E1820
3E38C0
3C3F80
7C3C00
7C3800
783800
F83800
F87000
F87000
F8E000
7FE000
7FC000
1F0000
ENDCHAR
STARTCHAR uni020E
ENCODING 526
SWIDTH 665 0
DWIDTH 21 0
BBX 20 31 1 0
BITMAP
000F80
003FE0
0078E0
006070
00E070
000000
000000
00FF00
03FFC0
0F03C0
3C79E0
78F1E0
71E0F0
E3C0F0
E7C0F0
E780F0
CF80F0
CF81F0
3F01F0
1F01E0
1F01E0
1F03E0
1E03E0
3E03C0
3E07C0
3E0780
1E0F00
1F1F00
1FFE00
0FF800
07E000
ENDCHAR
STARTCHAR uni020F
ENCODING 527
SWIDTH 433 0
DWIDTH 14 0
BBX 19 22 -1 0
BITMAP
01F800
07FC00
0E1E00
0C0E00
100000
000000
03E000
07F000
0F3800
1E1820
3E38C0
3C3F80
7C3C00
7C3800
783800
F83800
F87000
F87000
F8E000
7FE000
7FC000
1F0000
ENDCHAR
STARTCHAR uni0210
ENCODING 528
SWIDTH 601 0
DWIDTH 19 0
BBX 19 33 0 -1
BITMAP
0E7800
073800
031800
038C00
018C00
00C600
000000
000000
00FE00
03FF80
0F03C0
1C11C0
39F1E0
71F1E0
F1E1C0
E1E1C0
E3E380
E3E700
63FF00
13FF80
07C780
07C780
07C780
078780
078780
0F8780
0F8F80
0F8F00
0F0F00
0F0F00
1F1F00
1F0F80
000400
ENDCHAR
STARTCHAR uni0211
ENCODING 529
SWIDTH 376 0
DWIDTH 12 0
BBX 13 24 -1 0
BITMAP
E780
7380
31C0
18C0
18E0
0C60
0000
0000
1F78
1FF8
1FF8
3F38
3E38
3E00
3C00
3C00
7C00
7C00
7C00
7800
7800
F800
F800
F800
ENDCHAR
STARTCHAR uni0212
ENCODING 530
SWIDTH 601 0
DWIDTH 19 0
BBX 19 31 0 -1
BITMAP
003F00
00FF80
01E1C0
0181C0
020000
000000
00FE00
03FF80
0F03C0
1C11C0
39F1E0
71F1E0
F1E1C0
E1E1C0
E3E380
E3E700
63FF00
13FF80
07C780
07C780
07C780
078780
078780
0F8780
0F8F80
0F8F00
0F0F00
0F0F00
1F1F00
1F0F80
000400
ENDCHAR
STARTCHAR uni0213
ENCODING 531
SWIDTH 376 0
DWIDTH 12 0
BBX 14 22 -1 0
BITMAP
03F0
0FF8
1E1C
1C1C
0000
0000
1F78
1FF8
1FF8
3F38
3E38
3E00
3C00
3C00
7C00
7C00
7C00
7800
7800
F800
F800
F800
ENDCHAR
STARTCHAR uni0214
ENCODING 532
SWIDTH 716 0
DWIDTH 23 0
BBX 24 32 0 0
BITMAP
0073C0
0039C0
0018C0
001C60
000C60
000630
000000
000000
00F80F
07F81F
0EF81F
38F81E
70F01E
70F03E
E1F03E
E1E03E
E1E03C
E1E03C
63E07C
03C07C
03C078
03C078
07C0F8
0780F8
0780F0
0781F0
0781F0
0781E0
07C3E0
07FFC0
03FF80
01FC00
ENDCHAR
STARTCHAR uni0215
ENCODING 533
SWIDTH 505 0
DWIDTH 16 0
BBX 18 24 0 0
BITMAP
738000
39C000
38C000
1CE000
0C6000
063000
000000
000000
3E3E00
3C3C00
3C3C00
7C7C00
7C7C00
7C7C00
787800
78F800
F8F800
F8F800
F8F0C0
F1F080
F9F100
FFFF00
FEFE00
787800
ENDCHAR
STARTCHAR uni0216
ENCODING 534
SWIDTH 716 0
DWIDTH 23 0
BBX 24 31 0 0
BITMAP
0001F0
0007FC
000E1C
001C0E
001C0E
000000
000000
00F80F
07F81F
0EF81F
38F81E
70F01E
70F03E
E1F03E
E1E03E
E1E03C
E1E03C
63E07C
03C07C
03C078
03C078
07C0F8
0780F8
0780F0
0781F0
0781F0
0781E0
07C3E0
07FFC0
03FF80
01FC00
ENDCHAR
STARTCHAR uni0217
ENCODING 535
SWIDTH 505 0
DWIDTH 16 0
BBX 18 22 0 0
BITMAP
01F000
07FC00
0E1C00
1C1C00
000000
000000
3E3E00
3C3C00
3C3C00
7C7C00
7C7C00
7C7C00
787800
78F800
F8F800
F8F800
F8F0C0
F1F080
F9F100
FFFF00
FEFE00
787800
ENDCHAR
STARTCHAR Scommaaccent
ENCODING 536
SWIDTH 570 0
DWIDTH 18 0
BBX 17 32 1 -8
BITMAP
00FC00
03FE00
07C700
0F8380
0F0380
0F8780
0F8F00
0F8600
0FC000
07E000
03F000
01F800
01FC00
00FC00
1C7E00
7E3E00
7C3E00
F01E00
F01E00
F03E00
F03E00
787C00
7FF800
1FE000
020000
000000
060000
0F0000
070000
060000
040000
080000
ENDCHAR
STARTCHAR scommaaccent
ENCODING 537
SWIDTH 382 0
DWIDTH 12 0
BBX 15 25 -1 -8
BITMAP
03C0
07C0
07C0
07E0
0FE0
0BE0
1BE0
13E0
33E0
23E0
73E0
F3E6
E3F8
C3F0
C7E0
7F80
3E00
0000
0000
1C00
1C00
1C00
0C00
1800
1000
ENDCHAR
STARTCHAR uni021A
ENCODING 538
SWIDTH 481 0
DWIDTH 15 0
BBX 23 32 0 -8
BITMAP
01FC02
0FFF86
1FFFFE
3C7FFC
787DF8
707C00
F07C00
E07800
E0F800
E0F800
60F800
70F000
01F000
01F000
01F000
01F000
01E000
03E000
03E000
03E000
03C000
03C000
07C000
07C000
000000
000000
030000
078000
038000
030000
020000
040000
ENDCHAR
STARTCHAR uni021B
ENCODING 539
SWIDTH 267 0
DWIDTH 9 0
BBX 10 29 0 -8
BITMAP
0F00
1F00
1E00
3E00
3E00
7F80
3C00
3C00
7C00
7C00
7C00
7800
7800
F800
F800
F8C0
F080
F980
FF00
FE00
7800
0000
0000
E000
E000
E000
6000
4000
8000
ENDCHAR
STARTCHAR uni021E
ENCODING 542
SWIDTH 665 0
DWIDTH 21 0
BBX 23 32 0 0
BITMAP
00060E
000338
0003F0
0001E0
0001C0
000180
000000
000000
00F87C
03F87C
0FF07C
1CF078
39F078
71F0F8
71F0F8
F1E0F8
E1E0F0
E3E0F0
63FFF0
33FFF0
03C1F0
07C1E0
07C1E0
07C3E0
0783E0
0783E0
0F83C0
0F87C0
0F87C0
0F07C0
0F0780
1F0780
ENDCHAR
STARTCHAR uni021F
ENCODING 543
SWIDTH 600 0
DWIDTH 19 0
BBX 19 30 -1 0
BITMAP
002060
0031C0
001F80
001E00
001C00
000800
000000
000000
0F8000
0F8000
0F8000
0F0000
0F0000
1F0000
1F7800
1FFC00
1FFE00
3F3E00
3E3E00
3E3E00
3C3C00
3C3C00
7C7C00
7C7C00
7C7860
787840
7878C0
F87F80
F87F00
F83E00
ENDCHAR
STARTCHAR uni0237
ENCODING 567
SWIDTH 240 0
DWIDTH 8 0
BBX 15 24 -6 -8
BITMAP
00F8
00F8
00F0
01F0
01F0
01F0
01E0
01E0
03E0
03E0
03E0
03C6
03C4
07CC
07D8
07F0
0F80
3F80
FF80
CF80
8F00
9F00
FE00
7C00
ENDCHAR
STARTCHAR uni0259
ENCODING 601
SWIDTH 404 0
DWIDTH 13 0
BBX 12 16 0 0
BITMAP
0FC0
3FE0
3FF0
21F0
00F0
00F0
07F0
1FF0
39F0
71F0
E1E0
E3E0
E3C0
E780
FF00
7C00
ENDCHAR
STARTCHAR uni0292
ENCODING 658
SWIDTH 442 0
DWIDTH 14 0
BBX 15 24 0 -8
BITMAP
1FF8
3FF0
71F0
71E0
73C0
07C0
0780
0F80
0F00
1E00
1E00
0F02
0F86
0784
078C
07B8
07E0
1FC0
7780
E780
CF80
CF00
FF00
7C00
ENDCHAR
STARTCHAR uni02BB
ENCODING 699
SWIDTH 241 0
DWIDTH 8 0
BBX 4 7 4 16
BITMAP
30
60
60
F0
F0
F0
70
ENDCHAR
STARTCHAR uni02BC
ENCODING 700
SWIDTH 228 0
DWIDTH 7 0
BBX 4 7 5 17
BITMAP
E0
F0
F0
60
60
C0
80
ENDCHAR
STARTCHAR circumflex
ENCODING 710
SWIDTH 293 0
DWIDTH 9 0
BBX 9 6 0 18
BITMAP
0300
0700
0F00
1F80
3180
C080
ENDCHAR
STARTCHAR caron
ENCODING 711
SWIDTH 294 0
DWIDTH 9 0
BBX 10 6 3 18
BITMAP
C1C0
4700
7E00
7C00
3800
2000
ENDCHAR
STARTCHAR uni02C9
ENCODING 713
SWIDTH 421 0
DWIDTH 13 0
BBX 11 2 4 19
BITMAP
FFE0
FFC0
ENDCHAR
STARTCHAR uni02CA
ENCODING 714
SWIDTH 256 0
DWIDTH 8 0
BBX 6 6 4 18
BITMAP
3C
38
70
60
E0
C0
ENDCHAR
STARTCHAR uni02CB
ENCODING 715
SWIDTH 274 0
DWIDTH 9 0
BBX 4 6 5 18
BITMAP
E0
70
70
70
30
30
ENDCHAR
STARTCHAR breve
ENCODING 728
SWIDTH 431 0
DWIDTH 14 0
BBX 12 5 2 18
BITMAP
E070
E070
70E0
7FC0
3F00
ENDCHAR
STARTCHAR dotaccent
ENCODING 729
SWIDTH 250 0
DWIDTH 8 0
BBX 5 5 2 19
BITMAP
70
F8
F8
F8
70
ENDCHAR
STARTCHAR ring
ENCODING 730
SWIDTH 156 0
DWIDTH 5 0
BBX 5 5 0 17
BITMAP
70
F8
D8
F8
70
ENDCHAR
STARTCHAR ogonek
ENCODING 731
SWIDTH 291 0
DWIDTH 9 0
BBX 8 7 1 -7
BITMAP
18
30
60
E0
F3
7E
3C
ENDCHAR
STARTCHAR tilde
ENCODING 732
SWIDTH 403 0
DWIDTH 13 0
BBX 13 4 1 18
BITMAP
0400
3FF8
7FF0
87C0
ENDCHAR
STARTCHAR hungarumlaut
ENCODING 733
SWIDTH 436 0
DWIDTH 14 0
BBX 11 6 3 18
BITMAP
3CE0
39C0
3180
6380
6300
C600
ENDCHAR
STARTCHAR gravecomb
ENCODING 768
SWIDTH 0 0
DWIDTH 0 0
BBX 5 6 -6 18
BITMAP
F0
70
70
30
30
18
ENDCHAR
STARTCHAR acutecomb
ENCODING 769
SWIDTH 0 0
DWIDTH 0 0
BBX 6 6 -6 18
BITMAP
3C
38
70
60
E0
C0
ENDCHAR
STARTCHAR uni0302
ENCODING 770
SWIDTH 0 0
DWIDTH 0 0
BBX 10 6 -9 18
BITMAP
0300
0700
0F00
1F80
3980
E0C0
ENDCHAR
STARTCHAR tildecomb
ENCODING 771
SWIDTH 0 0
DWIDTH 0 0
BBX 13 4 -12 18
BITMAP
0400
3FF8
7FF0
87C0
ENDCHAR
STARTCHAR uni0304
ENCODING 772
SWIDTH 0 0
DWIDTH 0 0
BBX 11 2 -10 19
BITMAP
7FE0
FFE0
ENDCHAR
STARTCHAR uni0306
ENCODING 774
SWIDTH 0 0
DWIDTH 0 0
BBX 11 5 -10 18
BITMAP
E060
E0E0
E1E0
7FC0
3F00
ENDCHAR
STARTCHAR uni0307
ENCODING 775
SWIDTH 0 0
DWIDTH 0 0
BBX 5 5 -4 19
BITMAP
70
F8
F8
F8
70
ENDCHAR
STARTCHAR uni0308
ENCODING 776
SWIDTH 0 0
DWIDTH 0 0
BBX 10 4 -9 18
BITMAP
6180
F3C0
F3C0
7180
ENDCHAR
STARTCHAR hookabovecomb
ENCODING 777
SWIDTH 0 0
DWIDTH 0 0
BBX 6 7 -7 18
BITMAP
78
FC
0C
0C
78
70
60
ENDCHAR
STARTCHAR uni030A
ENCODING 778
SWIDTH 0 0
DWIDTH 0 0
BBX 5 5 -4 17
BITMAP
70
F8
D8
F8
70
ENDCHAR
STARTCHAR uni030B
ENCODING 779
SWIDTH 0 0
DWIDTH 0 0
BBX 12 6 -10 18
BITMAP
1EF0
1CE0
39C0
3180
6300
E300
ENDCHAR
STARTCHAR uni030C
ENCODING 780
SWIDTH 0 0
DWIDTH 0 0
BBX 10 6 -8 18
BITMAP
C1C0
6700
7E00
3C00
3800
3000
ENDCHAR
STARTCHAR uni030F
ENCODING 783
SWIDTH 0 0
DWIDTH 0 0
BBX 12 6 -11 18
BITMAP
F780
7380
39C0
18C0
1C60
0C70
ENDCHAR
STARTCHAR uni0311
ENCODING 785
SWIDTH 0 0
DWIDTH 0 0
BBX 12 4 -11 18
BITMAP
0F80
3FE0
70E0
E070
ENDCHAR
STARTCHAR uni031B
ENCODING 795
SWIDTH 0 0
DWIDTH 0 0
BBX 5 7 -4 14
BITMAP
38
38
38
30
70
E0
40
ENDCHAR
STARTCHAR dotbelowcomb
ENCODING 803
SWIDTH 0 0
DWIDTH 0 0
BBX 5 5 -6 -7
BITMAP
70
F8
F8
F8
70
ENDCHAR
STARTCHAR uni0324
ENCODING 804
SWIDTH 0 0
DWIDTH 0 0
BBX 10 4 -14 -6
BITMAP
6380
F3C0
F3C0
6380
ENDCHAR
STARTCHAR uni0326
ENCODING 806
SWIDTH 0 0
DWIDTH 0 0
BBX 4 6 -8 -8
BITMAP
60
F0
70
60
60
C0
ENDCHAR
STARTCHAR uni0327
ENCODING 807
SWIDTH 0 0
DWIDTH 0 0
BBX 8 8 -12 -7
BITMAP
18
10
14
3F
07
47
FE
3C
ENDCHAR
STARTCHAR uni0328
ENCODING 808
SWIDTH 0 0
DWIDTH 0 0
BBX 7 7 -11 -7
BITMAP
38
60
C0
C0
E2
FC
78
ENDCHAR
STARTCHAR uni032E
ENCODING 814
SWIDTH 0 0
DWIDTH 0 0
BBX 10 3 -14 -6
BITMAP
E1C0
7F80
3F00
ENDCHAR
STARTCHAR uni0331
ENCODING 817
SWIDTH 0 0
DWIDTH 0 0
BBX 11 2 -15 -5
BITMAP
7FE0
FFE0
ENDCHAR
STARTCHAR uni0335
ENCODING 821
SWIDTH 0 0
DWIDTH 0 0
BBX 11 2 -12 8
BITMAP
FFE0
FFC0
ENDCHAR
STARTCHAR uni0394
ENCODING 916
SWIDTH 619 0
DWIDTH 20 0
BBX 19 24 0 0
BITMAP
000700
000F00
001F80
001F80
003B80
003B80
007380
00E380
00E3C0
01C3C0
01C1C0
0381C0
0301C0
0701C0
0E01C0
0E01E0
1C01E0
1C00E0
3800E0
7000E0
7000E0
FFFFE0
FFFFE0
FFFFE0
ENDCHAR
STARTCHAR uni03A9
ENCODING 937
SWIDTH 745 0
DWIDTH 24 0
BBX 21 25 1 0
BITMAP
000F80
007FE0
00FFF0
01E0F0
038078
070038
0E0038
1C0038
1C0018
1C0018
380038
380038
380038
380038
380030
380070
380060
3800E0
1800C0
1C0180
0C0300
060600
FF0FF0
FF1FF0
FF1FE0
ENDCHAR
STARTCHAR uni03BC
ENCODING 956
SWIDTH 505 0
DWIDTH 16 0
BBX 20 21 -2 -5
BITMAP
0F8F80
0F0F00
0F0F00
1F1F00
1F1F00
1F1F00
1E1E00
1E3E00
3E3E00
3E3E00
3E3C30
3C7C20
3E7C60
7FFFC0
7FBF80
7E1E00
780000
F80000
F80000
F80000
E00000
ENDCHAR
STARTCHAR pi
ENCODING 960
SWIDTH 530 0
DWIDTH 17 0
BBX 17 16 0 0
BITMAP
FFFF80
FFFF80
FFFF80
181800
383800
383800
383000
303000
707000
707000
707000
606000
606000
E0E000
E0F800
E07000
ENDCHAR
STARTCHAR uni0400
ENCODING 1024
SWIDTH 459 0
DWIDTH 15 0
BBX 16 33 0 -1
BITMAP
00F0
0070
0070
0030
0030
0018
0000
0000
007C
01FE
03C7
0787
0787
0F07
0F0E
0F00
0F80
0780
03F0
0FC0
1F00
3F00
7E00
7C00
7C00
FC00
FC02
FC02
FC0C
7FF8
7FF0
3FE0
0600
ENDCHAR
STARTCHAR uni0401
ENCODING 1025
SWIDTH 459 0
DWIDTH 15 0
BBX 17 31 0 -1
BITMAP
00E300
00E780
01E780
00E300
000000
000000
007C00
01FE00
03C700
078700
078700
0F0700
0F0E00
0F0000
0F8000
078000
03F000
0FC000
1F0000
3F0000
7E0000
7C0000
7C0000
FC0000
FC0200
FC0200
FC0C00
7FF800
7FF000
3FE000
060000
ENDCHAR
STARTCHAR uni0402
ENCODING 1026
SWIDTH 725 0
DWIDTH 23 0
BBX 23 30 0 -6
BITMAP
01FF02
0FFFFE
1FFFFE
3C3DF8
787C00
707C00
707C00
E07800
E07800
60F800
60FBE0
00FFF0
00F8F8
01F0F8
01F0F8
01F0F8
01E0F8
01E0F8
03E0F0
03E0F0
03E1F0
03C1F0
03C1E0
07C3E0
0003C0
0007C0
008F80
007F00
007E00
003C00
ENDCHAR
STARTCHAR uni0403
ENCODING 1027
SWIDTH 400 0
DWIDTH 13 0
BBX 20 32 0 0
BITMAP
0000F0
0000E0
0001C0
000180
000300
000300
000000
000000
01FFF0
0FFFF0
1CF7E0
38F000
71F000
71F000
F1E000
F1E000
F3E000
73E000
33E000
03C000
03C000
07C000
07C000
07C000
078000
078000
0F8000
0F8000
0F8000
0F0000
0F0000
1F0000
ENDCHAR
STARTCHAR uni0404
ENCODING 1028
SWIDTH 497 0
DWIDTH 16 0
BBX 16 25 1 -1
BITMAP
00FC
03FE
07C7
0F83
1F07
3F07
3E0F
7E06
7C00
7C00
FFF0
FFF0
F800
F800
F800
F800
F800
F800
F801
F802
FC06
FFFC
7FF8
3FE0
0200
ENDCHAR
STARTCHAR uni0405
ENCODING 1029
SWIDTH 570 0
DWIDTH 18 0
BBX 17 25 1 -1
BITMAP
00FC00
03FE00
07C700
0F8380
0F0380
0F8780
0F8F00
0F8600
0FC000
07E000
03F000
01F800
01FC00
00FC00
1C7E00
7E3E00
7C3E00
F01E00
F01E00
F03E00
F03E00
787C00
7FF800
1FE000
020000
ENDCHAR
STARTCHAR uni0406
ENCODING 1030
SWIDTH 374 0
DWIDTH 12 0
BBX 13 24 0 0
BITMAP
00F8
03F8
0EF0
1CF0
39F0
71F0
71F0
F1E0
E1E0
63E0
63E0
03C0
03C0
07C0
07C0
07C0
0780
0780
0F80
0F80
0F80
0F00
0F00
1F00
ENDCHAR
STARTCHAR uni0407
ENCODING 1031
SWIDTH 375 0
DWIDTH 12 0
BBX 16 30 0 0
BITMAP
0186
03CF
03CF
018E
0000
0000
00F8
03F0
0EF0
1DF0
39F0
71F0
F1E0
E1E0
E3E0
E3E0
63C0
13C0
07C0
07C0
07C0
0780
0780
0F80
0F80
0F80
0F00
0F00
1F00
1F00
ENDCHAR
STARTCHAR uni0408
ENCODING 1032
SWIDTH 536 0
DWIDTH 17 0
BBX 18 31 1 -7
BITMAP
0007C0
003F80
007F80
01CF80
038F80
038F00
070F00
071F00
071F00
071F00
031E00
003E00
003E00
003E00
003C00
003C00
007C00
007C00
007C00
007800
00F800
00F800
7CF800
FEF800
FEF000
E1F000
C1F000
C1E000
E3C000
7F8000
3E0000
ENDCHAR
STARTCHAR uni0409
ENCODING 1033
SWIDTH 817 0
DWIDTH 26 0
BBX 26 27 -1 -3
BITMAP
0001F000
0007E000
001FE000
003BE000
0073E000
0063C000
00E3C000
01C7C000
0387C000
0387C000
0707BE00
0707FF00
0E0F8F80
1E0F87C0
1E0F87C0
1C0F03C0
3C1F03C0
3C1F07C0
781F07C0
781E0780
781E8F80
F03EFF00
F03EFF00
F03EFC00
F0001000
F0000000
70000000
ENDCHAR
STARTCHAR uni040A
ENCODING 1034
SWIDTH 931 0
DWIDTH 30 0
BBX 29 25 0 -1
BITMAP
00F87C00
03F87C00
0FF07C00
1CF07800
39F07800
71F0F800
71F0F800
F1E0F800
E1E0F000
63E0F000
63FFF7C0
03FFFFE0
03C1F1F0
07C1E0F0
07C1E0F8
07C3E0F8
0783E0F8
0783E0F8
0F83C0F0
0F87C0F0
0F87E1F0
0F07DFE0
0F079FC0
1F079F80
00000400
ENDCHAR
STARTCHAR uni040B
ENCODING 1035
SWIDTH 745 0
DWIDTH 24 0
BBX 23 25 0 -1
BITMAP
01FF02
0FFFFE
1FFFFE
3C3DF8
787C00
707C00
707C00
E07800
E07800
60F800
60FBE0
00FFF0
00F8F8
01F0F8
01F0F8
01F0F8
01E0F8
01E0F8
03E0F0
03E1F0
03E1F0
03C1F0
03C1F0
07C1F8
000040
ENDCHAR
STARTCHAR uni040C
ENCODING 1036
SWIDTH 635 0
DWIDTH 20 0
BBX 22 33 0 -1
BITMAP
0000F0
0000E0
0001C0
000180
000300
000300
000000
000000
00F878
03F8FC
0EF1FC
1CF3B8
39F300
71F600
71FE00
F1EC00
E3F800
E3F800
63F000
33FF00
03CF80
07C7C0
07C7C0
07C7C0
078780
078780
0F8F80
0F8F80
0F8F00
0F0F00
0F0F00
1F0F80
000200
ENDCHAR
STARTCHAR uni040D
ENCODING 1037
SWIDTH 705 0
DWIDTH 23 0
BBX 23 32 0 0
BITMAP
000700
000700
000300
000380
000180
000180
000000
000000
00F81E
03F83E
0EF07E
1CF07E
39F0FE
71F0FC
71F1FC
F1E1FC
E3E3FC
63E378
63E778
03CEF8
03CCF8
07DCF8
07D8F0
07F8F0
07B1F0
07F1F0
0FE1F0
0FC1E0
0FC1E0
0F83E0
0F83E0
1F03E0
ENDCHAR
STARTCHAR uni040E
ENCODING 1038
SWIDTH 644 0
DWIDTH 21 0
BBX 23 31 0 0
BITMAP
000006
000E04
000F0C
000E18
000FF0
0007C0
000000
00F80E
03F80C
0EF80C
1C7C18
387C18
707C38
707C30
E03E70
E03E60
603E60
703EC0
001FC0
001FC0
001F80
000F80
000F00
000F00
000E00
000600
01CE00
01EC00
01F800
01F800
00E000
ENDCHAR
STARTCHAR uni040F
ENCODING 1039
SWIDTH 665 0
DWIDTH 21 0
BBX 22 35 0 -11
BITMAP
00F87C
03F87C
0EF07C
1CF078
39F078
71F0F8
71F0F8
F1E0F8
E1E0F0
63E0F0
63E1F0
03C1F0
03C1F0
07C1E0
07C3E0
07C3E0
0783E0
0783E0
0F83C0
0F87C0
0F87C0
0F07C0
0FFF80
1FFF80
000000
00C000
01C000
01E000
01F000
01F000
00F000
007000
007000
006000
004000
ENDCHAR
STARTCHAR uni0410
ENCODING 1040
SWIDTH 668 0
DWIDTH 21 0
BBX 22 27 0 -3
BITMAP
00007C
0000FC
0003FC
00077C
000E78
000C78
001CF8
0038F8
0070F0
0070F0
0FE1F0
3FFFF0
79C3F0
F3C1E0
F381E0
2783E0
0783E0
0F03E0
0F03C0
0F03C0
1E07C0
1E07C0
1E0780
1E0780
1E0000
1E0000
1E0000
ENDCHAR
STARTCHAR uni0411
ENCODING 1041
SWIDTH 638 0
DWIDTH 20 0
BBX 20 25 0 -1
BITMAP
01FFF0
0FFFF0
19FFE0
31F000
71E000
61E000
E3E000
E3E000
E3E000
E3C000
63DF00
17FF80
07C7C0
07C3C0
0783E0
0F83E0
0F83E0
0F83E0
0F83E0
0F03C0
1F47C0
1F7F80
1F7F00
1E7E00
001800
ENDCHAR
STARTCHAR uni0412
ENCODING 1042
SWIDTH 641 0
DWIDTH 21 0
BBX 19 25 0 -1
BITMAP
00FE00
03FF80
0F03C0
1C09E0
39F1E0
71F0E0
71F1E0
F1E1C0
E1E3C0
E3E780
63FF80
33FFC0
03C3E0
07C3E0
07C1E0
07C1E0
0781E0
0781E0
0F81E0
0F83E0
0FC3C0
0F7FC0
0F7F80
1F3F00
000800
ENDCHAR
STARTCHAR uni0413
ENCODING 1043
SWIDTH 400 0
DWIDTH 13 0
BBX 20 24 0 0
BITMAP
01FFF0
0FFFF0
1CF7E0
38F000
71F000
71F000
F1E000
F1E000
F3E000
73E000
33E000
03C000
03C000
07C000
07C000
07C000
078000
078000
0F8000
0F8000
0F8000
0F0000
0F0000
1F0000
ENDCHAR
STARTCHAR uni0414
ENCODING 1044
SWIDTH 669 0
DWIDTH 21 0
BBX 22 25 -1 -1
BITMAP
007F80
01FFE0
0781F0
0E08F0
1CF878
38F878
38F87C
78F07C
70F07C
31F07C
31F07C
01F07C
01E07C
03E078
03E078
03E0F8
03C0F8
3FC0F0
67C1F0
C7C1E0
C7C3E0
EFCFC0
7F7F80
7E3F00
100800
ENDCHAR
STARTCHAR uni0415
ENCODING 1045
SWIDTH 459 0
DWIDTH 15 0
BBX 16 25 0 -1
BITMAP
007C
01FE
03C7
0787
0787
0F07
0F0E
0F00
0F80
0780
03F0
0FC0
1F00
3F00
7E00
7C00
7C00
FC00
FC02
FC02
FC0C
7FF8
7FF0
3FE0
0600
ENDCHAR
STARTCHAR uni0416
ENCODING 1046
SWIDTH 777 0
DWIDTH 25 0
BBX 27 25 -1 -1
BITMAP
078061E0
0FC3C3E0
0FC7C7E0
0EE7CEE0
0067DC00
00679800
0067B800
006FB000
006FB000
006FE000
006F6000
03FFFC00
07FFFE00
0F9F1E00
1F1F1E00
1E1E1E00
1E1E1E00
1E3E1E00
3E3E3E00
3C3E3C00
3C3C3C00
3C7C7C00
7C7C7C00
F87C3E00
20001000
ENDCHAR
STARTCHAR uni0417
ENCODING 1047
SWIDTH 525 0
DWIDTH 17 0
BBX 16 25 0 -1
BITMAP
01F8
07FE
0C3E
081F
101F
101F
001F
003E
003E
00FC
07F0
07F8
007C
007E
003E
003E
003E
603E
F03E
E07C
E07C
E0F8
F3F0
7FC0
0400
ENDCHAR
STARTCHAR uni0418
ENCODING 1048
SWIDTH 705 0
DWIDTH 23 0
BBX 23 24 0 0
BITMAP
00F81E
03F83E
0EF07E
1CF07E
39F0FE
71F0FC
71F1FC
F1E1FC
E3E3FC
63E378
63E778
03CEF8
03CCF8
07DCF8
07D8F0
07F8F0
07B1F0
07F1F0
0FE1F0
0FC1E0
0FC1E0
0F83E0
0F83E0
1F03E0
ENDCHAR
STARTCHAR uni0419
ENCODING 1049
SWIDTH 705 0
DWIDTH 23 0
BBX 23 31 0 0
BITMAP
000004
000E0C
001E18
001E38
001FF0
0007C0
000000
00F81E
03F83E
0EF07E
1CF07E
39F0FE
71F0FC
71F1FC
F1E1FC
E3E3FC
63E378
63E778
03CEF8
03CCF8
07DCF8
07D8F0
07F8F0
07B1F0
07F1F0
0FE1F0
0FC1E0
0FC1E0
0F83E0
0F83E0
1F03E0
ENDCHAR
STARTCHAR uni041A
ENCODING 1050
SWIDTH 635 0
DWIDTH 20 0
BBX 22 25 0 -1
BITMAP
00F878
03F8FC
0EF1FC
1CF3B8
39F300
71F600
71FE00
F1EC00
E3F800
E3F800
63F000
33FF00
03CF80
07C7C0
07C7C0
07C7C0
078780
078780
0F8F80
0F8F80
0F8F00
0F0F00
0F0F00
1F0F80
000200
ENDCHAR
STARTCHAR uni041B
ENCODING 1051
SWIDTH 549 0
DWIDTH 18 0
BBX 20 27 -1 -3
BITMAP
0001F0
0007E0
001FE0
003BE0
0073E0
0063C0
00E3C0
01C7C0
0387C0
0387C0
070780
070780
0E0F80
1E0F80
1E0F80
1C0F00
3C1F00
3C1F00
781F00
781E00
781E00
F03E00
F03E00
F03E00
F00000
F00000
700000
ENDCHAR
STARTCHAR uni041C
ENCODING 1052
SWIDTH 787 0
DWIDTH 25 0
BBX 24 24 2 0
BITMAP
01F81F
07F83F
0EF83E
18F83E
31F87E
71F87E
71F8FE
E3F8FE
E3F0FE
E7F1FC
67F1BC
16F3FC
0EF3FC
0EF37C
0CF77C
1CF67C
18FE78
18FC78
38FC78
30FCF8
70F8F8
71F8F8
61F0F8
E1F0F0
ENDCHAR
STARTCHAR uni041D
ENCODING 1053
SWIDTH 665 0
DWIDTH 21 0
BBX 22 24 0 0
BITMAP
00F87C
03F87C
0FF07C
1CF078
39F078
71F0F8
71F0F8
F1E0F8
E1E0F0
E3E0F0
63FFF0
33FFF0
03C1F0
07C1E0
07C1E0
07C3E0
0783E0
0783E0
0F83C0
0F87C0
0F87C0
0F07C0
0F0780
1F0780
ENDCHAR
STARTCHAR uni041E
ENCODING 1054
SWIDTH 665 0
DWIDTH 21 0
BBX 20 24 1 0
BITMAP
00FF00
03FFC0
0F03C0
3C79E0
78F1E0
71E0F0
E3C0F0
E7C0F0
E780F0
CF80F0
CF81F0
3F01F0
1F01E0
1F01E0
1F03E0
1E03E0
3E03C0
3E07C0
3E0780
1E0F00
1F1F00
1FFE00
0FF800
07E000
ENDCHAR
STARTCHAR uni041F
ENCODING 1055
SWIDTH 688 0
DWIDTH 22 0
BBX 25 24 0 0
BITMAP
01FF0080
0FFFFF80
1FFFFF80
3CF0FF00
79F07800
71F0F800
71F0F800
E1E0F800
E1E0F000
63E0F000
63E1F000
03C1F000
03C1F000
07C1E000
07C1E000
07C3E000
0783E000
0783E000
0F83C000
0F87C000
0F87C000
0F07C000
0F078000
1F078000
ENDCHAR
STARTCHAR uni0420
ENCODING 1056
SWIDTH 573 0
DWIDTH 18 0
BBX 19 24 0 0
BITMAP
00FE00
03FF80
0F03C0
1C01C0
39F1E0
71F1E0
71E1E0
E1E1E0
E3E1E0
E3E1C0
63E3C0
13C380
03C700
07DE00
07F800
078000
078000
0F8000
0F8000
0F8000
0F0000
0F0000
1F0000
1F0000
ENDCHAR
STARTCHAR uni0421
ENCODING 1057
SWIDTH 497 0
DWIDTH 16 0
BBX 16 25 1 -1
BITMAP
00FC
03FE
07C7
0F83
1F07
3F07
3E0F
7E04
7C00
7C00
FC00
F800
F800
F800
F800
F800
F800
F800
F801
F802
FC06
FFFC
7FF8
3FE0
0200
ENDCHAR
STARTCHAR uni0422
ENCODING 1058
SWIDTH 481 0
DWIDTH 15 0
BBX 23 24 0 0
BITMAP
01FC02
0FFF86
1FFFFE
3C7FFC
787DF8
707C00
F07C00
E07800
E0F800
E0F800
60F800
70F000
01F000
01F000
01F000
01F000
01E000
03E000
03E000
03E000
03C000
03C000
07C000
07C000
ENDCHAR
STARTCHAR uni0423
ENCODING 1059
SWIDTH 644 0
DWIDTH 21 0
BBX 23 24 0 0
BITMAP
00F80E
03F80C
0EF80C
1C7C18
387C18
707C38
707C30
E03E70
E03E60
603E60
703EC0
001FC0
001FC0
001F80
000F80
000F00
000F00
000E00
000600
01CE00
01EC00
01F800
01F800
00E000
ENDCHAR
STARTCHAR uni0424
ENCODING 1060
SWIDTH 786 0
DWIDTH 25 0
BBX 23 26 1 0
BITMAP
01FF80
07FF00
1F0F00
1C1F00
1C1F00
1C1F00
001E00
01FFE0
0F3EF8
1C3E3C
383E3C
783C1E
F07C1E
F07C1E
F07C1E
F0781E
F0783E
F0F83C
F8F87C
F8F8F8
7CF1F0
3FFFC0
0FFF00
01F000
01F000
01E000
ENDCHAR
STARTCHAR uni0425
ENCODING 1061
SWIDTH 620 0
DWIDTH 20 0
BBX 20 24 0 0
BITMAP
00F830
03F860
0EF8E0
1CF8C0
38FD80
707D80
F07F00
E07F00
E07E00
E07E00
603E00
103E00
003E00
003E00
003F00
007F00
007F00
00DF00
019F80
018F80
030F80
030F80
060F80
0E0FC0
ENDCHAR
STARTCHAR uni0426
ENCODING 1062
SWIDTH 692 0
DWIDTH 22 0
BBX 23 29 0 -5
BITMAP
00F87C
03F87C
0EF07C
1CF078
39F078
71F0F8
71F0F8
F1E0F8
E3E0F0
63E0F0
63E1F0
03C1F0
03C1F0
07C1E0
07C3E0
07C3E0
0783E0
0783C0
0F83C0
0F87C0
0F87C0
0F07C0
0FF780
1FFF80
007F80
000FFE
0007FC
0001FC
0000F8
ENDCHAR
STARTCHAR uni0427
ENCODING 1063
SWIDTH 695 0
DWIDTH 22 0
BBX 23 24 0 0
BITMAP
00F83E
03F83E
0EF03E
1CF03C
39F03C
71F07C
71F07C
F1E07C
E1E078
63E078
61E0F8
01F1F8
01FFF8
007CF0
0001F0
0001F0
0001F0
0001E0
0001E0
0003E0
0003E0
0003E0
0003C0
0007C0
ENDCHAR
STARTCHAR uni0428
ENCODING 1064
SWIDTH 906 0
DWIDTH 29 0
BBX 30 24 0 0
BITMAP
00F8787C
03F8F87C
0EF0F878
1CF0F878
39F0F0F8
71F1F0F8
71F1F0F8
F1E1F0F0
E1E1E1F0
63E1E1F0
63E3E1F0
03C3E1E0
03C3E1E0
07C3C3E0
07C3C3E0
07C7C3E0
0787C3C0
0787C3C0
0F8787C0
0F8F87C0
0F8F87C0
0F0F8780
0FFFFF80
1FFFFF80
ENDCHAR
STARTCHAR uni0429
ENCODING 1065
SWIDTH 934 0
DWIDTH 30 0
BBX 31 29 0 -5
BITMAP
00F8787C
03F8F87C
0EF0F878
1CF0F878
39F0F0F8
71F1F0F8
71F1F0F8
F1E1F0F0
E3E1E1F0
E3E1E1F0
63E3E1F0
03C3E1E0
03C3E1E0
07C3C3E0
07C3C3E0
07C7C3E0
0787C3C0
0787C3C0
0F8787C0
0F8F87C0
0F8F87C0
0F0F8780
0FFF0780
1FFFEF80
003FFF82
0003FFFC
00007FFC
00000FFC
000001F8
ENDCHAR
STARTCHAR uni042A
ENCODING 1066
SWIDTH 714 0
DWIDTH 23 0
BBX 22 25 0 -1
BITMAP
00FE00
07FE00
1FFE00
383E00
303C00
707C00
607C00
E07C00
E07C00
F07800
70FBE0
18FFF0
00F8F8
00F078
00F07C
01F07C
01F07C
01F07C
01E078
03E078
03F0F8
03EFF0
03CFE0
03CFC0
000200
ENDCHAR
STARTCHAR uni042B
ENCODING 1067
SWIDTH 909 0
DWIDTH 29 0
BBX 30 25 0 -1
BITMAP
00F8007C
03F8007C
0FF00078
1CF00078
39F000F8
71F000F8
71F000F8
F1E000F0
E1E000F0
63E001F0
63FF01F0
03FFC1F0
03C3E1E0
07C3E1E0
07C1E3E0
07C1E3E0
0781E3E0
0781E3C0
0F81E7C0
0F83E7C0
0FC3C7C0
0F7FC780
0F7F8780
1F3F0F80
00080000
ENDCHAR
STARTCHAR uni042C
ENCODING 1068
SWIDTH 640 0
DWIDTH 20 0
BBX 19 25 0 -1
BITMAP
00F800
03F800
0FF000
1CF000
39F000
71F000
71F000
F1E000
E1E000
63E000
63FF00
03FFC0
03C3E0
07C3E0
07C1E0
07C1E0
0781E0
0781E0
0F81E0
0F83E0
0FC3C0
0F7FC0
0F7F80
1F3F00
000800
ENDCHAR
STARTCHAR uni042D
ENCODING 1069
SWIDTH 544 0
DWIDTH 17 0
BBX 17 25 0 -1
BITMAP
01F800
07FE00
0FFF00
183F00
101F80
201F80
200F80
000F80
000F80
000F80
07FF80
07FF80
001F80
001F00
001F00
001F00
003E00
603E00
F07C00
E07C00
E0F800
E1F000
E3E000
7FC000
040000
ENDCHAR
STARTCHAR uni042E
ENCODING 1070
SWIDTH 946 0
DWIDTH 30 0
BBX 30 24 0 0
BITMAP
00F81FC0
03F83FE0
0FF060F0
1CF08E78
39F03C78
71F0783C
71F0F03C
F1E1F03C
E1E1E03C
E3E3E03C
63FFE07C
33FFC07C
03C7C078
07C7C078
07C7C078
07C780F8
078F80F0
078F81F0
0F8F81E0
0F8783E0
0F87C7C0
0F07EF80
0F03FE00
1F01F800
ENDCHAR
STARTCHAR uni042F
ENCODING 1071
SWIDTH 630 0
DWIDTH 20 0
BBX 23 25 -1 -1
BITMAP
001FE0
007FF8
01F03C
03C05E
0787CE
0707CE
07078E
070F8C
070F80
070F80
078F00
03CF00
03FF00
0FFF00
0F9F00
1F1E00
1E1E00
1E3E00
3E3E00
3C3E00
3C3C00
3C7C00
7C7C00
F87C00
200000
ENDCHAR
STARTCHAR uni0430
ENCODING 1072
SWIDTH 526 0
DWIDTH 17 0
BBX 18 16 0 0
BITMAP
07DE00
0FFE00
1E3E00
3C3E00
7C3C00
783C00
F87C00
F87C00
F87C00
F07800
F07840
F0F8C0
F9F880
FF7F80
7E7F00
3C3C00
ENDCHAR
STARTCHAR uni0431
ENCODING 1073
SWIDTH 430 0
DWIDTH 14 0
BBX 18 24 0 0
BITMAP
0000C0
03FF80
07FF80
07FF80
07FE00
038000
03C000
01C000
00E000
07F000
1FF000
3E3000
7C3000
7C3000
F83000
F87000
F87000
F07000
F06000
F0E000
F9C000
FFC000
7F8000
3E0000
ENDCHAR
STARTCHAR uni0432
ENCODING 1074
SWIDTH 449 0
DWIDTH 14 0
BBX 18 24 0 0
BITMAP
00E000
03F000
079800
0F1800
0F1800
1E1800
1E1800
3C3000
3C3000
7C3000
7C6000
786040
79E180
FBFF00
F9F800
F87000
F03000
F07000
F07000
F07000
F8E000
FFE000
7F8000
3F0000
ENDCHAR
STARTCHAR uni0433
ENCODING 1075
SWIDTH 375 0
DWIDTH 12 0
BBX 14 16 -1 0
BITMAP
07C0
1FE0
3FF0
31F0
61F0
41E0
03E0
0FC0
1F00
3E00
7C04
F808
F830
FFE0
7FC0
3F00
ENDCHAR
STARTCHAR uni0434
ENCODING 1076
SWIDTH 507 0
DWIDTH 16 0
BBX 18 24 0 -8
BITMAP
07DE00
0FFE00
1E3E00
3C3E00
7C3C00
783C00
F87C00
F87C00
F87C00
F07800
F0F8C0
F0F880
F9F980
FFF300
7FF600
3DFC00
03F000
0FF000
1DE000
31E000
33E000
33C000
3FC000
0F0000
ENDCHAR
STARTCHAR uni0435
ENCODING 1077
SWIDTH 384 0
DWIDTH 12 0
BBX 13 16 0 0
BITMAP
07C0
0FE0
1E70
3C70
7C70
7860
F8E0
F9C0
FF80
FE00
F000
F018
F830
FFE0
7FC0
3F00
ENDCHAR
STARTCHAR uni0436
ENCODING 1078
SWIDTH 882 0
DWIDTH 28 0
BBX 31 16 -1 0
BITMAP
0F83C1F0
3FC3C3F0
33E3C7B8
61E7CF38
01E79E30
01E79E00
01FFFE00
01FFFC00
01CFBC00
03CF3C00
63CF3C06
E38F3C04
C79F3C08
E71F1E30
FE1E1FE0
7C1E0780
ENDCHAR
STARTCHAR uni0437
ENCODING 1079
SWIDTH 498 0
DWIDTH 16 0
BBX 17 24 0 -8
BITMAP
03E000
0FF000
1FF800
38F800
307C00
607C00
607800
407800
40F800
C0F000
01E080
0FC080
0F8180
03C300
03E600
01FC00
01F000
07E000
1DE000
33E000
33E000
33C000
3F8000
1F0000
ENDCHAR
STARTCHAR uni0438
ENCODING 1080
SWIDTH 505 0
DWIDTH 16 0
BBX 18 16 0 0
BITMAP
3E3E00
3C3C00
3C3C00
7C7C00
7C7C00
7C7C00
787800
78F800
F8F800
F8F800
F8F0C0
F1F080
F9F100
FFFF00
FEFE00
787800
ENDCHAR
STARTCHAR uni0439
ENCODING 1081
SWIDTH 505 0
DWIDTH 16 0
BBX 18 23 0 0
BITMAP
000200
070400
0F0C00
0F1800
0FF000
07E000
000000
3E3E00
3C3C00
3C3C00
7C7C00
7C7C00
7C7C00
787800
78F800
F8F800
F8F800
F8F0C0
F1F080
F9F100
FFFF00
FEFE00
787800
ENDCHAR
STARTCHAR uni043A
ENCODING 1082
SWIDTH 501 0
DWIDTH 16 0
BBX 18 16 -1 0
BITMAP
1F0700
1F1F00
1E3700
3E6700
3EC000
3FC000
3FF800
3FF800
7E7800
7C7800
7C7840
7878C0
787880
F87F80
F87F00
F83E00
ENDCHAR
STARTCHAR uni043B
ENCODING 1083
SWIDTH 558 0
DWIDTH 18 0
BBX 20 16 -1 0
BITMAP
003F80
007F80
00E780
00CF80
018F00
018F00
018F00
011F00
011F00
031E00
631E10
E31E30
E63E60
C61FE0
FC1FC0
780F00
ENDCHAR
STARTCHAR uni043C
ENCODING 1084
SWIDTH 827 0
DWIDTH 26 0
BBX 29 16 -1 0
BITMAP
003C07C0
007C0FC0
00FC0F80
00FC1F80
01BC1F80
01BC3F80
01BC3F80
011E6F00
011E6F00
031EDF00
631EDF18
E31F9F10
E21F9F30
C61F1FE0
FC1F0FC0
781E0780
ENDCHAR
STARTCHAR uni043D
ENCODING 1085
SWIDTH 507 0
DWIDTH 16 0
BBX 19 16 -1 0
BITMAP
1F1F00
1F1E00
1E1E00
3E1E00
3E3E00
3E3E00
3E3C00
3FFC00
7FFC00
7C7C00
7C7820
787840
7878C0
F87F80
F87F00
F83E00
ENDCHAR
STARTCHAR uni043E
ENCODING 1086
SWIDTH 439 0
DWIDTH 14 0
BBX 18 16 0 0
BITMAP
03C000
0FF000
1E3000
3C3040
7C71C0
787F00
F87800
F87000
F87000
F07000
F06000
F0E000
F9C000
FFC000
7F8000
3E0000
ENDCHAR
STARTCHAR uni043F
ENCODING 1087
SWIDTH 505 0
DWIDTH 16 0
BBX 19 16 -1 0
BITMAP
1F7800
1FFC00
1FFE00
3F3E00
3E3E00
3E3E00
3C3C00
3C3C00
7C7C00
7C7C00
7C7860
787840
7878C0
F87F80
F87F00
F83E00
ENDCHAR
STARTCHAR uni0440
ENCODING 1088
SWIDTH 468 0
DWIDTH 15 0
BBX 17 25 -3 -8
BITMAP
07C000
07DE00
07FF00
07CF80
0F8780
0F8780
0F8780
0F0780
0F0F80
1F0F80
1F0F80
1F0F00
1E1F00
1E3E00
3FFE00
3FFC00
3DF000
3C0000
7C0000
7C0000
7C0000
780000
780000
F80000
800000
ENDCHAR
STARTCHAR uni0441
ENCODING 1089
SWIDTH 384 0
DWIDTH 12 0
BBX 13 16 0 0
BITMAP
07C0
0FE0
1E70
3C70
7C60
7800
F800
F800
F800
F000
F008
F010
F870
FFE0
7F80
3E00
ENDCHAR
STARTCHAR uni0442
ENCODING 1090
SWIDTH 752 0
DWIDTH 24 0
BBX 26 16 -1 0
BITMAP
1F787800
1FFCFC00
1FFFFE00
3F3F3E00
3E3E3E00
3E3E3C00
3C3C3C00
3C7C3C00
7C7C7C00
7C7C7C00
7C787840
78787840
78F87880
F8F87F80
F8F87F00
F8F03E00
ENDCHAR
STARTCHAR uni0443
ENCODING 1091
SWIDTH 486 0
DWIDTH 16 0
BBX 17 24 0 -8
BITMAP
3E3E00
3C3C00
3C3C00
7C7C00
7C7C00
7C7C00
787800
78F800
F8F800
F8F800
F8F180
F1F100
F9F300
FFF200
FFFC00
79F800
07E000
1FE000
3BE000
33E000
67C000
7FC000
3F8000
1E0000
ENDCHAR
STARTCHAR uni0444
ENCODING 1092
SWIDTH 738 0
DWIDTH 24 0
BBX 22 30 0 -8
BITMAP
000F00
000F00
000F00
001F00
001E00
001E00
07DEF8
0FFFFC
1E3E7C
3C3C3C
7C3C3C
783C3C
F87C3C
F8783C
F0787C
F0787C
F0F878
F0F0F8
F9F1F8
FFFFF0
7EFFE0
3DFF80
01E000
01E000
01E000
03E000
03E000
03C000
03C000
040000
ENDCHAR
STARTCHAR uni0445
ENCODING 1093
SWIDTH 522 0
DWIDTH 17 0
BBX 18 17 0 0
BITMAP
000E00
078F00
0FCF00
1FE300
33E300
31E600
61EC00
61F800
41F000
C1F000
C1F000
03F040
06F0C0
0CF180
18FF00
307E00
703C00
ENDCHAR
STARTCHAR uni0446
ENCODING 1094
SWIDTH 535 0
DWIDTH 17 0
BBX 15 24 0 -8
BITMAP
3E3E
3C3C
3C3C
7C7C
7C7C
7C7C
7878
78F8
F8F8
F8F8
F8F0
F1F0
F9F0
FFFE
FEFE
787E
0006
000C
07FC
0FF8
0FF8
1FE0
1000
1000
ENDCHAR
STARTCHAR uni0447
ENCODING 1095
SWIDTH 505 0
DWIDTH 16 0
BBX 17 16 1 0
BITMAP
7C7C00
787800
787800
F8F800
F8F800
F8F800
F1F000
F9F000
FFF000
FFF000
79E180
01E100
01E200
01FE00
01FC00
00F000
ENDCHAR
STARTCHAR uni0448
ENCODING 1096
SWIDTH 752 0
DWIDTH 24 0
BBX 25 16 0 0
BITMAP
3E3E3E00
3C3C3C00
3C3C7C00
7C7C7C00
7C7C7C00
7C7C7800
78787800
78F8F800
F8F8F800
F8F8F800
F8F0F080
F1F1F180
F9F3F100
FFFEFF00
FEFEFE00
78787800
ENDCHAR
STARTCHAR uni0449
ENCODING 1097
SWIDTH 782 0
DWIDTH 25 0
BBX 23 24 0 -8
BITMAP
3E3E3E
3C3C3C
3C3C7C
7C7C7C
7C7C7C
7C7C78
787878
78F8F8
F8F8F8
F8F8F8
F8F0F0
F1F1F0
F9F3F0
FFFEFE
FEFEFE
78787E
000006
00000C
0007FC
000FF8
001FF8
001FE0
003000
003000
ENDCHAR
STARTCHAR uni044A
ENCODING 1098
SWIDTH 448 0
DWIDTH 14 0
BBX 13 16 0 0
BITMAP
3F80
7F00
E700
EE00
EE00
1DE0
3FF0
7878
7878
F878
F0F8
F0F8
F9F0
FFE0
7FC0
3F00
ENDCHAR
STARTCHAR uni044B
ENCODING 1099
SWIDTH 655 0
DWIDTH 21 0
BBX 22 16 0 0
BITMAP
3E0060
3C01E0
3C07E0
7C1FE0
7DFBE0
7BE3C0
7BE3C0
7867C0
F877C0
F86780
F0E784
F0E78C
F1C788
FFC7F8
7F87F0
3E03E0
ENDCHAR
STARTCHAR uni044C
ENCODING 1100
SWIDTH 448 0
DWIDTH 14 0
BBX 13 16 0 0
BITMAP
3E00
3E00
3C00
7C00
7C00
7FF0
7FF8
78F8
F878
F878
F8F8
F0F0
F1F0
FFE0
7FC0
3F00
ENDCHAR
STARTCHAR uni044D
ENCODING 1101
SWIDTH 413 0
DWIDTH 13 0
BBX 14 16 -2 0
BITMAP
03E0
0FF8
1FF8
187C
307C
007C
07FC
07FC
0078
00F8
60F8
E0F0
E1E0
E3C0
7F80
3F00
ENDCHAR
STARTCHAR uni044E
ENCODING 1102
SWIDTH 675 0
DWIDTH 22 0
BBX 27 16 -1 0
BITMAP
1F03E000
1F0FF000
1E1F3800
3E1E3820
3E3C38C0
3E7C7F80
3E7C7C00
3FF83800
7FF83800
7CF83000
7CF87000
78F87000
78F8E000
F8FFC000
F87F8000
F83F0000
ENDCHAR
STARTCHAR uni044F
ENCODING 1103
SWIDTH 527 0
DWIDTH 17 0
BBX 19 16 -1 0
BITMAP
01FF00
07FF00
0F8F00
0F1F00
1E1E00
1E1E00
1E1E00
1F3E00
0FFE00
03FC00
433C00
E33C60
E67C40
C63FC0
FE3F80
781F00
ENDCHAR
STARTCHAR uni0450
ENCODING 1104
SWIDTH 384 0
DWIDTH 12 0
BBX 13 24 0 0
BITMAP
0700
0700
0380
0380
0180
0180
0000
0000
07C0
0FE0
1E70
3C70
7C70
7860
F8E0
F9C0
FF80
FE00
F000
F018
F830
FFE0
7FC0
3F00
ENDCHAR
STARTCHAR uni0451
ENCODING 1105
SWIDTH 384 0
DWIDTH 12 0
BBX 14 22 0 0
BITMAP
0638
0F38
0F3C
0638
0000
0000
07C0
0FE0
1E70
3C70
7C70
7860
F8E0
F9C0
FF80
FE00
F000
F018
F830
FFE0
7FC0
3F00
ENDCHAR
STARTCHAR uni0452
ENCODING 1106
SWIDTH 491 0
DWIDTH 16 0
BBX 18 30 -1 -8
BITMAP
008000
0F8000
0F8000
0F8000
0F0000
3FF000
7FF000
1F0000
1E7800
1FFC00
3FFC00
3E3C00
3E3C00
3C3C00
7C7C00
7C7C00
7C7840
7878C0
787880
F8F980
F8FF00
F8FC00
03F000
07F000
1DF000
19E000
11E000
13E000
1FC000
0F0000
ENDCHAR
STARTCHAR uni0453
ENCODING 1107
SWIDTH 375 0
DWIDTH 12 0
BBX 14 24 -1 0
BITMAP
003C
0038
0070
0060
00E0
00C0
0000
0000
07C0
1FE0
3FF0
31F0
61F0
41E0
03E0
0FC0
1F00
3E00
7C04
F808
F830
FFE0
7FC0
3F00
ENDCHAR
STARTCHAR uni0454
ENCODING 1108
SWIDTH 384 0
DWIDTH 12 0
BBX 13 16 0 0
BITMAP
07E0
0FE0
1E70
3C70
7C60
7800
FF80
FF80
F000
F000
F008
F010
F870
FFE0
7F80
3F00
ENDCHAR
STARTCHAR uni0455
ENCODING 1109
SWIDTH 382 0
DWIDTH 12 0
BBX 15 17 -1 0
BITMAP
03C0
07C0
07C0
07E0
0FE0
0BE0
1BE0
13E0
33E0
23E0
73E0
F3E6
E3F8
C3F0
C7E0
7F80
3E00
ENDCHAR
STARTCHAR uni0456
ENCODING 1110
SWIDTH 267 0
DWIDTH 9 0
BBX 10 22 0 0
BITMAP
0E00
1F00
1F00
1F00
0E00
0000
3E00
3C00
3C00
7C00
7C00
7C00
7800
7800
F800
F800
F8C0
F080
F980
FF00
FE00
7800
ENDCHAR
STARTCHAR uni0457
ENCODING 1111
SWIDTH 267 0
DWIDTH 9 0
BBX 10 22 0 0
BITMAP
71C0
73C0
73C0
71C0
0000
0000
3E00
3C00
3C00
7C00
7C00
7C00
7800
7800
F800
F800
F8C0
F080
F980
FF00
FE00
7800
ENDCHAR
STARTCHAR uni0458
ENCODING 1112
SWIDTH 240 0
DWIDTH 8 0
BBX 15 30 -6 -8
BITMAP
0038
0078
007C
0078
0038
0000
00F8
00F8
00F0
01F0
01F0
01F0
01E0
01E0
03E0
03E0
03E0
03C6
03C4
07CC
07D8
07F0
0F80
3F80
FF80
CF80
8F00
9F00
FE00
7C00
ENDCHAR
STARTCHAR uni0459
ENCODING 1113
SWIDTH 745 0
DWIDTH 24 0
BBX 24 16 -1 0
BITMAP
003F80
007F80
00EF80
00CF80
01CF30
018FFC
018FFE
019F1E
031F1F
031E1E
E31E1E
E31E3E
E61E3C
C61FFC
FC1FF0
7807E0
ENDCHAR
STARTCHAR uni045A
ENCODING 1114
SWIDTH 694 0
DWIDTH 22 0
BBX 22 16 -1 0
BITMAP
1F1F00
1F1E00
1E1E00
3E1E00
3E1E00
3E3FF0
3E3FF8
3FFFFC
7FFC3C
7C7C3C
7C7C3C
787878
787878
F878F0
F83FE0
F81F80
ENDCHAR
STARTCHAR uni045B
ENCODING 1115
SWIDTH 505 0
DWIDTH 16 0
BBX 19 23 -1 0
BITMAP
004000
0F8000
0F8000
0F8000
0F0000
3FF000
7FF000
1F0000
1E0000
1E7800
3FFC00
3FFC00
3E3C00
3E3C00
3C3C00
7C7C00
7C7C00
7C7860
787840
7878C0
F87F80
F87F00
F83E00
ENDCHAR
STARTCHAR uni045C
ENCODING 1116
SWIDTH 501 0
DWIDTH 16 0
BBX 18 24 -1 0
BITMAP
000E00
001C00
001C00
003800
003000
006000
000000
000000
1F0700
1F1F00
1E3700
3E6700
3EC000
3FC000
3FF800
3FF800
7E7800
7C7800
7C7840
7878C0
787880
F87F80
F87F00
F83E00
ENDCHAR
STARTCHAR uni045D
ENCODING 1117
SWIDTH 505 0
DWIDTH 16 0
BBX 18 24 0 0
BITMAP
038000
038000
018000
018000
01C000
00C000
000000
000000
3E3E00
3C3C00
3C3C00
7C7C00
7C7C00
7C7C00
787800
78F800
F8F800
F8F800
F8F0C0
F1F080
F9F100
FFFF00
FEFE00
787800
ENDCHAR
STARTCHAR uni045E
ENCODING 1118
SWIDTH 486 0
DWIDTH 16 0
BBX 17 31 0 -8
BITMAP
000600
070400
0F0C00
0F1800
0FF000
07E000
000000
3E3E00
3C3C00
3C3C00
7C7C00
7C7C00
7C7C00
787800
78F800
F8F800
F8F800
F8F180
F1F100
F9F300
FFF200
FFFC00
79F800
07E000
1FE000
3BE000
33E000
67C000
7FC000
3F8000
1E0000
ENDCHAR
STARTCHAR uni045F
ENCODING 1119
SWIDTH 505 0
DWIDTH 16 0
BBX 18 24 0 -8
BITMAP
3E3E00
3C3C00
3C3C00
7C7C00
7C7C00
7C7C00
787800
78F800
F8F800
F8F800
F8F0C0
F1F080
F9F100
FFFF00
FEFE00
787800
010000
030000
078000
078000
078000
038000
030000
020000
ENDCHAR
STARTCHAR uni0462
ENCODING 1122
SWIDTH 659 0
DWIDTH 21 0
BBX 20 25 0 -1
BITMAP
00F800
00F000
01F000
01F000
0FF810
3FFFF0
7FFFE0
F3FFC0
E3E000
E3E000
E3DF00
63FF80
17C7C0
07C3E0
0783E0
0781E0
0F83E0
0F83E0
0F83E0
0F03C0
0F47C0
1F7F80
1F7F80
1F7E00
000800
ENDCHAR
STARTCHAR uni0463
ENCODING 1123
SWIDTH 692 0
DWIDTH 22 0
BBX 22 16 -1 0
BITMAP
1F7800
1FFC00
1FFE00
3F3E00
3E3E00
3E3FF0
3C3FF8
3C3C7C
7C7C3C
7C7C3C
7C787C
787878
7878F8
F87FF0
F83FE0
F81F80
ENDCHAR
STARTCHAR uni046A
ENCODING 1130
SWIDTH 834 0
DWIDTH 27 0
BBX 25 25 1 -1
BITMAP
007FFF80
03FFFF00
07FC0600
1E7C0C00
387E0C00
387E1800
703E3000
703F3000
703F6000
701FE000
701FC000
11FFFC00
07FFFE00
0F8F1F00
0F1F0F00
1F1F1F00
1E1F1F00
1E1E1E00
1E1E1E00
1E3E3E00
3E3E3C00
3E3E3C00
3C3C3C00
FC7C3F00
10000800
ENDCHAR
STARTCHAR uni046B
ENCODING 1131
SWIDTH 750 0
DWIDTH 24 0
BBX 20 17 1 -1
BITMAP
07FFE0
1FF0C0
38F0C0
38F980
70FB00
70FB00
387E00
07FFC0
0FFFF0
1E78F0
1E78F0
3C79F0
3C79E0
3CF9E0
3CF1E0
F8F1F0
200080
ENDCHAR
STARTCHAR uni0472
ENCODING 1138
SWIDTH 665 0
DWIDTH 21 0
BBX 20 24 1 0
BITMAP
00FF00
03FFC0
0F03C0
3C79E0
78F1E0
71E0F0
E3C0F0
E7C0F0
E780F0
CF80F0
CF80F0
7F71F0
1FFFE0
1F1DE0
1E03E0
1E03E0
3E03C0
3E07C0
3E0780
1E0F00
1F1F00
1FFE00
0FF800
07E000
ENDCHAR
STARTCHAR uni0473
ENCODING 1139
SWIDTH 439 0
DWIDTH 14 0
BBX 18 16 0 0
BITMAP
03C000
0FF000
1E3000
3C3040
7C71C0
787F00
F87800
FF3000
FFF000
F9F000
F06000
F0E000
F9C000
FFC000
7F8000
3E0000
ENDCHAR
STARTCHAR uni0474
ENCODING 1140
SWIDTH 668 0
DWIDTH 21 0
BBX 24 24 0 0
BITMAP
00F80F
03F83E
0EF83C
1CF878
38F870
70F8F0
F0F8E0
E0F8E0
E0F9E0
E0F9C0
60F9C0
10F980
00FB80
00FB80
00FB00
00FB00
00FA00
00FE00
00FE00
00FC00
00FC00
00FC00
00FC00
00F800
ENDCHAR
STARTCHAR uni0475
ENCODING 1141
SWIDTH 414 0
DWIDTH 13 0
BBX 13 16 0 0
BITMAP
3E70
3C78
3C78
7C18
7C18
7C18
7830
7830
F830
F860
F860
F0C0
F1C0
FF80
FF00
7C00
ENDCHAR
STARTCHAR uni0490
ENCODING 1168
SWIDTH 431 0
DWIDTH 14 0
BBX 21 28 0 0
BITMAP
000010
000010
000018
000038
01FFF0
0FFFF0
19FFE0
31F000
71F000
71E000
E1E000
E3E000
E3E000
63E000
33C000
03C000
07C000
07C000
078000
078000
0F8000
0F8000
0F8000
0F0000
0F0000
1F0000
1F0000
1F0000
ENDCHAR
STARTCHAR uni0491
ENCODING 1169
SWIDTH 342 0
DWIDTH 11 0
BBX 13 19 -1 0
BITMAP
0010
0038
0038
1FF8
1FF0
1E00
3E00
3E00
3E00
3C00
3C00
7C00
7C00
7C00
7800
7800
F800
F800
F800
ENDCHAR
STARTCHAR uni0492
ENCODING 1170
SWIDTH 400 0
DWIDTH 13 0
BBX 20 24 0 0
BITMAP
01FFF0
0FFFF0
1CF7E0
38F000
71F000
71F000
71F000
F1E000
F1E000
73E000
73E000
03E000
03C000
1FFC00
1FF800
07C000
078000
078000
0F8000
0F8000
0F8000
0F0000
0F0000
1F0000
ENDCHAR
STARTCHAR uni0493
ENCODING 1171
SWIDTH 375 0
DWIDTH 12 0
BBX 14 16 -1 0
BITMAP
07C0
1FE0
3FF0
31F0
61F0
41E0
03E0
7FF0
FFF0
3E00
7C04
F808
FC30
FFE0
7FC0
3F00
ENDCHAR
STARTCHAR uni0494
ENCODING 1172
SWIDTH 665 0
DWIDTH 21 0
BBX 20 25 0 -1
BITMAP
01FFF0
07FFF0
1CF7E0
38F000
71F000
71F000
71F000
F1E000
F3E000
F3E000
73FF80
33FFC0
03C3E0
07C1E0
07C1F0
07C1F0
07C1F0
0781F0
0F81E0
0F81E0
0F83E0
0F47C0
0F7F80
1F7F00
003E00
ENDCHAR
STARTCHAR uni0495
ENCODING 1173
SWIDTH 486 0
DWIDTH 16 0
BBX 18 24 -1 -8
BITMAP
1FFE00
1FFE00
1EFC00
3E0000
3E0000
3E0000
3CF000
3FF800
7FF800
7C7C00
7C7800
7878C0
787880
F8F980
F8F700
F8FC00
01F000
07F000
0DE000
19E000
31E000
33C000
1FC000
0F0000
ENDCHAR
STARTCHAR uni0496
ENCODING 1174
SWIDTH 777 0
DWIDTH 25 0
BBX 27 34 -1 -10
BITMAP
078061E0
0FC3C3E0
0FC7C7E0
0EE7CEE0
0067DC00
00679800
0067B800
006FB000
006FB000
006FE000
006F6000
03FFFC00
07FFFE00
0F9F1E00
1F1F1E00
1E1E1E00
1E1E1E00
1E3E1E00
3E3E3E00
3C3E3C00
3C3C3C00
3C7C7C00
7C7C7C00
F87C3E00
20001800
00007000
00007000
00007800
00007C00
00003C00
00003C00
00001C00
00001800
00001000
ENDCHAR
STARTCHAR uni0497
ENCODING 1175
SWIDTH 882 0
DWIDTH 28 0
BBX 31 23 -1 -7
BITMAP
0F83C1F0
3FC3C3F0
33E3C7B8
61E7CF38
01E79E30
01E79E00
01FFFE00
01FFFC00
01CFBC00
01CF3C02
E3CF3C04
E38F3C0C
C79F3C18
E71F1F30
FE1E1FE0
7C1E0F80
00000200
00000700
00000780
00000780
00000780
00000380
00000300
ENDCHAR
STARTCHAR uni0498
ENCODING 1176
SWIDTH 525 0
DWIDTH 17 0
BBX 16 34 0 -10
BITMAP
01F8
07FE
0C3E
081F
101F
101F
001F
003E
003E
007C
07F0
07F0
00FC
007E
003E
003E
003E
203E
F03E
E07C
E07C
E0F8
F3F0
7FC0
0700
0E00
0F00
0F80
0F80
07C0
03C0
0380
0300
0200
ENDCHAR
STARTCHAR uni0499
ENCODING 1177
SWIDTH 498 0
DWIDTH 16 0
BBX 17 32 0 -16
BITMAP
03E000
0FF000
1FF800
38F800
307C00
607C00
607800
407800
40F800
C0F000
01E080
0FC080
0F8180
03C300
03E600
01FC00
03F000
0FE000
19E000
33E000
33E000
37C000
3F8000
1F0000
0C0000
1C0000
1E0000
1E0000
1E0000
0E0000
0C0000
080000
ENDCHAR
STARTCHAR uni049A
ENCODING 1178
SWIDTH 635 0
DWIDTH 20 0
BBX 22 34 0 -10
BITMAP
00F878
03F8FC
0EF1FC
1CF3B8
39F300
71F600
71FE00
F1EC00
E3F800
E3F800
63F000
33FF00
03CF80
07C7C0
07C7C0
07C7C0
078780
078780
0F8F80
0F8F80
0F8F00
0F0F00
0F0F00
1F0F80
000600
000E00
000F00
000F00
000F80
000780
000780
000380
000300
000600
ENDCHAR
STARTCHAR uni049B
ENCODING 1179
SWIDTH 501 0
DWIDTH 16 0
BBX 18 23 -1 -7
BITMAP
1F0700
1F1F00
1E3700
3E6700
3EC000
3FC000
3FF800
3FF800
7E7800
7C7800
7C7840
7878C0
787880
F87F80
F87F00
F83E00
001800
003800
003C00
003C00
003C00
001C00
001800
ENDCHAR
STARTCHAR uni049C
ENCODING 1180
SWIDTH 721 0
DWIDTH 23 0
BBX 25 25 0 -1
BITMAP
00F80F00
03F81F80
0EF03F00
1CF07700
39F0E000
71F0C000
71F18000
F1EF8000
E3EB0000
63EB0000
63FF0000
03FFC000
03DBE000
07D1E000
07D1E000
07C1E000
0783E000
0783C000
0F83C000
0F83C000
0F87C000
0F07C000
0F07C000
1F07E000
00010000
ENDCHAR
STARTCHAR uni049D
ENCODING 1181
SWIDTH 551 0
DWIDTH 18 0
BBX 20 17 -1 -1
BITMAP
1F03C0
1F07C0
1E0FC0
3E91C0
3FA000
3FC000
3DFC00
3DFE00
7F3E00
7F1E00
7F1E10
7B3E30
783E20
F83FE0
F81FC0
F81F80
000200
ENDCHAR
STARTCHAR uni04A0
ENCODING 1184
SWIDTH 691 0
DWIDTH 22 0
BBX 24 25 0 -1
BITMAP
01FE1E
0FFC3F
1FFC7F
3C7CEE
787DC0
707F80
E07B00
E07F00
E0FE00
E0FC00
60FFC0
10FFE0
01F1E0
01F1E0
01F1E0
01E1E0
01E1E0
03E1E0
03E3C0
03E3C0
03C3C0
03C7C0
07C7C0
07C3E0
000100
ENDCHAR
STARTCHAR uni04A1
ENCODING 1185
SWIDTH 676 0
DWIDTH 22 0
BBX 23 16 0 0
BITMAP
0FF070
3FF0F8
79F1F8
F1F330
E1F600
E1EC00
E3FF80
63FFC0
03E7C0
03C3C0
03C3C6
07C7C4
07C7CC
07C7F8
0783F8
0F81E0
ENDCHAR
STARTCHAR uni04A2
ENCODING 1186
SWIDTH 665 0
DWIDTH 21 0
BBX 23 29 0 -5
BITMAP
00F87C
03F87C
0EF07C
1CF078
39F078
71F0F8
71F0F8
F1E0F8
E1E0F0
63E0F0
63FFF0
03FFF0
03C1F0
07C1E0
07C1E0
07C3E0
0783E0
0783E0
0F83C0
0F87C0
0F87C0
0F07C0
0F0780
1F07C0
0009F0
0000FE
0000FC
00007C
000038
ENDCHAR
STARTCHAR uni04A3
ENCODING 1187
SWIDTH 507 0
DWIDTH 16 0
BBX 19 23 -1 -7
BITMAP
1F1F00
1E1E00
1E1E00
3E1E00
3E3E00
3E3E00
3FFC00
3FFC00
7C7C00
7C7C00
7C7860
787840
7878C0
F87F80
F87F00
F83E00
001800
001800
003C00
003C00
003C00
001C00
001800
ENDCHAR
STARTCHAR uni04A4
ENCODING 1188
SWIDTH 689 0
DWIDTH 22 0
BBX 30 24 0 0
BITMAP
00F87FFC
03F87FF8
0CF07DF0
19F07800
39F07800
71F0F800
71F0F800
F1E0F800
E3E0F000
E3E0F000
63FFF000
33FFF000
03C1E000
07C1E000
07C1E000
07C3E000
0783E000
0783C000
0F83C000
0F87C000
0F87C000
0F07C000
0F078000
1F078000
ENDCHAR
STARTCHAR uni04A5
ENCODING 1189
SWIDTH 681 0
DWIDTH 22 0
BBX 24 16 -1 0
BITMAP
1F1FFF
1E1FFE
1E1EFC
3E1E00
3E3E00
3E3C00
3FFC00
3FFC00
7C7C00
7C7C00
7C7860
787840
7878C0
F87F80
F87F00
F83E00
ENDCHAR
STARTCHAR uni04AA
ENCODING 1194
SWIDTH 497 0
DWIDTH 16 0
BBX 16 34 1 -10
BITMAP
00FC
03FE
07C7
0F83
1F07
3F07
3E0F
7E04
7C00
7C00
FC00
F800
F800
F800
F800
F800
F800
F800
F801
F802
FC0E
FFFC
7FF8
3FE0
0700
0700
0F00
0780
07C0
03C0
03C0
0180
0100
0200
ENDCHAR
STARTCHAR uni04AB
ENCODING 1195
SWIDTH 384 0
DWIDTH 12 0
BBX 13 23 0 -7
BITMAP
07C0
0FE0
1E70
3C70
7C60
7800
F800
F800
F800
F000
F008
F018
F830
FFE0
7FC0
3F00
0800
1C00
1E00
3E00
1E00
0C00
0C00
ENDCHAR
STARTCHAR uni04AE
ENCODING 1198
SWIDTH 620 0
DWIDTH 20 0
BBX 22 24 0 0
BITMAP
00F80C
03F80C
0EF818
1CFC18
387C30
707C30
F07C20
E07E60
E03E60
E03EC0
603EC0
103F80
001F80
001F00
001F00
001F00
003F00
003E00
003E00
003E00
003E00
007E00
007C00
007C00
ENDCHAR
STARTCHAR uni04AF
ENCODING 1199
SWIDTH 480 0
DWIDTH 15 0
BBX 13 24 2 -8
BITMAP
F070
F0F0
F878
F810
F810
F830
F830
F820
7860
7840
78C0
7980
7900
7F00
7E00
7C00
7C00
7C00
7800
F800
F800
F800
F000
8000
ENDCHAR
STARTCHAR uni04B0
ENCODING 1200
SWIDTH 620 0
DWIDTH 20 0
BBX 22 24 0 0
BITMAP
00F80C
03F80C
0EF818
1CFC18
387C30
707C30
F07C20
E07E60
E03E60
E03EC0
603EC0
103F80
001F80
00FFE0
00FFC0
001F00
003F00
003E00
003E00
003E00
003E00
007E00
007C00
007C00
ENDCHAR
STARTCHAR uni04B1
ENCODING 1201
SWIDTH 480 0
DWIDTH 15 0
BBX 15 24 0 -8
BITMAP
3C1C
3C3C
3E1E
3E04
3E04
3E0C
3E0C
3E08
1E18
1E10
1E30
1E60
1E40
1FC0
1F80
FFE0
FFE0
1F00
1E00
3E00
3E00
3E00
3C00
2000
ENDCHAR
STARTCHAR uni04B6
ENCODING 1206
SWIDTH 695 0
DWIDTH 22 0
BBX 24 29 0 -5
BITMAP
00F83E
03F83E
0EF03E
1CF03C
39F03C
71F07C
71F07C
F1E07C
E1E078
63E078
61E0F8
01F1F8
01FFF8
007EF0
0001F0
0001F0
0001F0
0001E0
0001E0
0003E0
0003E0
0003E0
0003C0
0007E0
0000F8
00007F
00007E
00003E
00001C
ENDCHAR
STARTCHAR uni04B7
ENCODING 1207
SWIDTH 505 0
DWIDTH 16 0
BBX 17 23 1 -7
BITMAP
7C7C00
787800
787800
F8F800
F8F800
F8F800
F1F000
F9F000
FFF000
FFF000
79E180
01E100
01E200
01FE00
01FC00
00F000
006000
00E000
00F000
00F000
00F000
007000
006000
ENDCHAR
STARTCHAR uni04B8
ENCODING 1208
SWIDTH 715 0
DWIDTH 23 0
BBX 24 24 0 0
BITMAP
00F81F
03F81F
0EF01E
1CF03E
39F03E
71F03E
71E03C
E1E03C
E1E07C
63E67C
31E67C
01FFF8
01FFF8
007EF8
000CF8
0008F8
0008F0
0001F0
0001F0
0001F0
0001E0
0001E0
0003E0
0003E0
ENDCHAR
STARTCHAR uni04B9
ENCODING 1209
SWIDTH 545 0
DWIDTH 17 0
BBX 18 16 1 0
BITMAP
7C3E00
783E00
783C00
F83C00
FB7C00
FB7C00
F37C00
FAF800
FFF800
FFF800
3EF8C0
04F880
04F980
0CFF00
00FE00
007C00
ENDCHAR
STARTCHAR uni04BA
ENCODING 1210
SWIDTH 679 0
DWIDTH 22 0
BBX 20 24 0 0
BITMAP
00F800
03F800
0FF000
1CF000
39F000
71F000
71F000
F1E000
E1E000
E3E000
63EFC0
13FFE0
03E1F0
07C1F0
07C1F0
07C1F0
0781F0
0781F0
0F81E0
0F83E0
0F83E0
0F03E0
0F03C0
1F07C0
ENDCHAR
STARTCHAR uni04BB
ENCODING 1211
SWIDTH 505 0
DWIDTH 16 0
BBX 19 22 -1 0
BITMAP
0F8000
0F8000
0F8000
0F0000
0F0000
1F0000
1F7800
1FFC00
1FFE00
3F3E00
3E3E00
3E3E00
3C3C00
3C3C00
7C7C00
7C7C00
7C7860
787840
7878C0
F87F80
F87F00
F83E00
ENDCHAR
STARTCHAR uni04C0
ENCODING 1216
SWIDTH 375 0
DWIDTH 12 0
BBX 13 24 0 0
BITMAP
00F8
03F0
0EF0
1DF0
39F0
71F0
F1E0
E1E0
E3E0
E3E0
63C0
13C0
07C0
07C0
07C0
0780
0780
0F80
0F80
0F80
0F00
0F00
1F00
1F00
ENDCHAR
STARTCHAR uni04C1
ENCODING 1217
SWIDTH 777 0
DWIDTH 25 0
BBX 27 32 -1 -1
BITMAP
00000600
000E0400
000F0C00
000F1800
000FF000
0007C000
00000000
078061E0
0FC3C3E0
0FC7C7E0
0EE7CEE0
0067DC00
00679800
0067B800
006FB000
006FB000
006FE000
006F6000
03FFFC00
07FFFE00
0F9F1E00
1F1F1E00
1E1E1E00
1E1E1E00
1E3E1E00
3E3E3E00
3C3E3C00
3C3C3C00
3C7C7C00
7C7C7C00
F87C3E00
20001000
ENDCHAR
STARTCHAR uni04C2
ENCODING 1218
SWIDTH 882 0
DWIDTH 28 0
BBX 31 23 -1 0
BITMAP
00000600
000E0400
000F0C00
000E1800
000FF000
0007C000
00000000
0F83C1F0
3FC3C3F0
33E3C7B8
61E7CF38
01E79E30
01E79E00
01FFFE00
01FFFC00
01CFBC00
03CF3C00
63CF3C06
E38F3C04
C79F3C08
E71F1E30
FE1E1FE0
7C1E0780
ENDCHAR
STARTCHAR uni04CB
ENCODING 1227
SWIDTH 695 0
DWIDTH 22 0
BBX 23 28 0 -4
BITMAP
00F83E
03F83E
0EF03E
1CF03C
39F03C
71F07C
71E07C
E1E07C
E1E078
63E0F8
31E0F8
01FBF8
01FFF8
007CF0
0001F0
0001F0
0001F0
0001E0
0001E0
0003E0
0003E0
0003E0
0007C0
021FC0
03FC00
03F800
03F000
01E000
ENDCHAR
STARTCHAR uni04CC
ENCODING 1228
SWIDTH 516 0
DWIDTH 17 0
BBX 17 24 1 -8
BITMAP
7C7C00
7C7C00
7C7C00
787800
78F800
F8F800
F8F800
F9F000
FFF000
7FF000
3DF180
01F100
01F300
01FE00
01FC00
00F800
006000
006000
3FC000
7FC000
7F8000
FF0000
C00000
800000
ENDCHAR
STARTCHAR uni04CF
ENCODING 1231
SWIDTH 267 0
DWIDTH 9 0
BBX 10 22 0 0
BITMAP
1F00
1F00
1F00
1E00
3E00
3E00
3E00
3C00
3C00
7C00
7C00
7C00
7800
7800
F800
F800
F8C0
F080
F980
FF00
FE00
7C00
ENDCHAR
STARTCHAR uni04D0
ENCODING 1232
SWIDTH 668 0
DWIDTH 21 0
BBX 26 34 0 -3
BITMAP
00000040
0000E0C0
0001E180
0001E380
0001FF00
00007C00
00000000
00007C00
0000FC00
0003FC00
00077C00
000E7800
000C7800
001CF800
0038F800
0070F000
0070F000
0FE1F000
3FFFF000
79C3F000
F3C1E000
F381E000
2783E000
0783E000
0F03E000
0F03C000
0F03C000
1E07C000
1E07C000
1E078000
1E078000
1E000000
1E000000
1E000000
ENDCHAR
STARTCHAR uni04D1
ENCODING 1233
SWIDTH 526 0
DWIDTH 17 0
BBX 18 23 0 0
BITMAP
000100
038100
03C300
038E00
03FC00
01F000
000000
07DE00
0FFE00
1E3E00
3C3E00
7C3C00
783C00
F87C00
F87C00
F87C00
F07800
F07840
F0F8C0
F9F880
FF7F80
7E7F00
3C3C00
ENDCHAR
STARTCHAR uni04D2
ENCODING 1234
SWIDTH 668 0
DWIDTH 21 0
BBX 25 33 0 -3
BITMAP
0000E380
0000F780
0000F380
0000E380
00000000
00000000
00007C00
0000FC00
0003FC00
00077C00
000E7800
000C7800
001CF800
0038F800
0070F000
0070F000
0FE1F000
3FFFF000
79C3F000
F3C1E000
F381E000
2783E000
0783E000
0F03E000
0F03C000
0F03C000
1E07C000
1E07C000
1E078000
1E078000
1E000000
1E000000
1E000000
ENDCHAR
STARTCHAR uni04D3
ENCODING 1235
SWIDTH 526 0
DWIDTH 17 0
BBX 18 22 0 0
BITMAP
018600
03CF00
03CF00
018600
000000
000000
07DE00
0FFE00
1E3E00
3C3E00
7C3C00
783C00
F87C00
F87C00
F87C00
F07800
F07840
F0F8C0
F9F880
FF7F80
7E7F00
3C3C00
ENDCHAR
STARTCHAR uni04D4
ENCODING 1236
SWIDTH 764 0
DWIDTH 24 0
BBX 29 27 0 -3
BITMAP
00007C08
0000FFF8
0003FFF0
00077CE0
000E7800
000C7800
0018F800
0038F800
0070F000
0070F000
1FF1F000
7FFFFF80
F1C3FF00
F3C1E000
7381E000
0783E000
0783E000
0F03E000
0F03C000
0F07C000
1E07C000
1E07FF80
1E07FF80
1E07FF00
1E000000
1E000000
1E000000
ENDCHAR
STARTCHAR uni04D5
ENCODING 1237
SWIDTH 650 0
DWIDTH 21 0
BBX 22 16 0 0
BITMAP
07E3E0
0FF7F0
387F30
107E30
007C30
007C70
007CE0
1FF9C0
7FFF80
F8FE00
F0F804
F0F808
F9F830
FF7FE0
FE7FC0
7C3F00
ENDCHAR
STARTCHAR uni04D6
ENCODING 1238
SWIDTH 459 0
DWIDTH 15 0
BBX 18 32 0 -1
BITMAP
0000C0
00E080
01E180
01E300
01FE00
00FC00
000000
007C00
01FE00
03C700
078700
078700
0F0700
0F0E00
0F0000
0F8000
078000
03F000
0FC000
1F0000
3F0000
7E0000
7C0000
7C0000
FC0000
FC0200
FC0200
FC0C00
7FF800
7FF000
3FE000
060000
ENDCHAR
STARTCHAR uni04D7
ENCODING 1239
SWIDTH 384 0
DWIDTH 12 0
BBX 14 23 0 0
BITMAP
0004
0E0C
1E08
1E38
0FF0
07C0
0000
07C0
0FE0
1E70
3C70
7C70
7860
F8E0
F9C0
FF80
FE00
F000
F018
F830
FFE0
7FC0
3F00
ENDCHAR
STARTCHAR uni04D8
ENCODING 1240
SWIDTH 544 0
DWIDTH 17 0
BBX 16 24 1 0
BITMAP
07F0
0FFC
1FFE
3FFE
383F
301F
001F
001F
001F
001F
00FF
07FF
0F3F
3E3E
3C3E
783E
F07C
F07C
F0F8
F0F0
F1F0
F3E0
7F80
3E00
ENDCHAR
STARTCHAR uni04D9
ENCODING 1241
SWIDTH 404 0
DWIDTH 13 0
BBX 12 16 0 0
BITMAP
0FC0
3FE0
3FF0
21F0
00F0
00F0
07F0
1FF0
39F0
71F0
E1E0
E3E0
E3C0
E780
FF00
7C00
ENDCHAR
STARTCHAR uni04DC
ENCODING 1244
SWIDTH 777 0
DWIDTH 25 0
BBX 27 31 -1 -1
BITMAP
00061800
000F3C00
000F3C00
00071800
00000000
00000000
078061E0
0FC3C3E0
0FC7C7E0
0EE7CEE0
0067DC00
00679800
0067B800
006FB000
006FB000
006FE000
006F6000
03FFFC00
07FFFE00
0F9F1E00
1F1F1E00
1E1E1E00
1E1E1E00
1E3E1E00
3E3E3E00
3C3E3C00
3C3C3C00
3C7C7C00
7C7C7C00
F87C3E00
20001000
ENDCHAR
STARTCHAR uni04DD
ENCODING 1245
SWIDTH 882 0
DWIDTH 28 0
BBX 31 22 -1 0
BITMAP
00061800
000F3C00
000F3C00
00061800
00000000
00000000
0F83C1F0
3FC3C3F0
33E3C7B8
61E7CF38
01E79E30
01E79E00
01FFFE00
01FFFC00
01CFBC00
03CF3C00
63CF3C06
E38F3C04
C79F3C08
E71F1E30
FE1E1FE0
7C1E0780
ENDCHAR
STARTCHAR uni04DE
ENCODING 1246
SWIDTH 525 0
DWIDTH 17 0
BBX 17 31 0 -1
BITMAP
00C700
01E700
01E780
00C700
000000
000000
01F800
07FE00
0C3E00
081F00
101F00
101F00
001F00
003E00
003E00
00FC00
07F000
07F800
007C00
007E00
003E00
003E00
003E00
603E00
F03E00
E07C00
E07C00
E0F800
F3F000
7FC000
040000
ENDCHAR
STARTCHAR uni04DF
ENCODING 1247
SWIDTH 498 0
DWIDTH 16 0
BBX 17 30 0 -8
BITMAP
071C00
079C00
079C00
071C00
000000
000000
03E000
0FF000
1FF800
38F800
307C00
607C00
607800
407800
40F800
C0F000
01E080
0FC080
0F8180
03C300
03E600
01FC00
01F000
07E000
1DE000
33E000
33E000
33C000
3F8000
1F0000
ENDCHAR
STARTCHAR uni04E2
ENCODING 1250
SWIDTH 705 0
DWIDTH 23 0
BBX 23 29 0 0
BITMAP
000FFC
001FFC
000000
000000
000000
00F81E
03F83E
0EF07E
1CF07E
39F0FE
71F0FC
71F1FC
F1E1FC
E3E3FC
63E378
63E778
03CEF8
03CCF8
07DCF8
07D8F0
07F8F0
07B1F0
07F1F0
0FE1F0
0FC1E0
0FC1E0
0F83E0
0F83E0
1F03E0
ENDCHAR
STARTCHAR uni04E3
ENCODING 1251
SWIDTH 505 0
DWIDTH 16 0
BBX 18 21 0 0
BITMAP
0FFE00
0FFC00
000000
000000
000000
3E3E00
3C3C00
3C3C00
7C7C00
7C7C00
7C7C00
787800
78F800
F8F800
F8F800
F8F0C0
F1F080
F9F100
FFFF00
FEFE00
787800
ENDCHAR
STARTCHAR uni04E4
ENCODING 1252
SWIDTH 705 0
DWIDTH 23 0
BBX 23 30 0 0
BITMAP
000E38
000F38
000F78
000E38
000000
000000
00F81E
03F83E
0EF07E
1CF07E
39F0FE
71F0FC
71F1FC
F1E1FC
E3E3FC
63E378
63E778
03CEF8
03CCF8
07DCF8
07D8F0
07F8F0
07B1F0
07F1F0
0FE1F0
0FC1E0
0FC1E0
0F83E0
0F83E0
1F03E0
ENDCHAR
STARTCHAR uni04E5
ENCODING 1253
SWIDTH 505 0
DWIDTH 16 0
BBX 18 22 0 0
BITMAP
071C00
073C00
073C00
071C00
000000
000000
3E3E00
3C3C00
3C3C00
7C7C00
7C7C00
7C7C00
787800
78F800
F8F800
F8F800
F8F0C0
F1F080
F9F100
FFFF00
FEFE00
787800
ENDCHAR
STARTCHAR uni04E6
ENCODING 1254
SWIDTH 665 0
DWIDTH 21 0
BBX 20 30 1 0
BITMAP
001860
003CF0
003CF0
0018E0
000000
000000
00FF00
03FFC0
0F03C0
3C79E0
78F1E0
71E0F0
E3C0F0
E7C0F0
E780F0
CF80F0
CF81F0
3F01F0
1F01E0
1F01E0
1F03E0
1E03E0
3E03C0
3E07C0
3E0780
1E0F00
1F1F00
1FFE00
0FF800
07E000
ENDCHAR
STARTCHAR uni04E7
ENCODING 1255
SWIDTH 439 0
DWIDTH 14 0
BBX 18 22 0 0
BITMAP
071C00
079C00
079C00
071C00
000000
000000
03C000
0FF000
1E3000
3C3040
7C71C0
787F00
F87800
F87000
F87000
F07000
F06000
F0E000
F9C000
FFC000
7F8000
3E0000
ENDCHAR
STARTCHAR uni04E8
ENCODING 1256
SWIDTH 665 0
DWIDTH 21 0
BBX 20 24 1 0
BITMAP
00FF00
03FFC0
0F03C0
3C79E0
78F1E0
71E0F0
E3C0F0
E7C0F0
E780F0
CF80F0
CF81F0
3FFFF0
1FFFE0
1F01E0
1F03E0
1E03E0
3E03C0
3E07C0
3E0780
1E0F00
1F1F00
1FFE00
0FF800
07E000
ENDCHAR
STARTCHAR uni04E9
ENCODING 1257
SWIDTH 439 0
DWIDTH 14 0
BBX 18 16 0 0
BITMAP
03C000
0FF000
1E3000
3C3040
7C71C0
787F00
FFF800
FFF000
F87000
F07000
F06000
F0E000
F9C000
FFC000
7F8000
3E0000
ENDCHAR
STARTCHAR uni04EE
ENCODING 1262
SWIDTH 644 0
DWIDTH 21 0
BBX 23 29 0 0
BITMAP
000FFC
000FFC
000000
000000
000000
00F80E
03F80C
0EF80C
1C7C18
387C18
707C38
707C30
E03E70
E03E60
603E60
703EC0
001FC0
001FC0
001F80
000F80
000F00
000F00
000E00
000600
01CE00
01EC00
01F800
01F800
00E000
ENDCHAR
STARTCHAR uni04EF
ENCODING 1263
SWIDTH 486 0
DWIDTH 16 0
BBX 17 29 0 -8
BITMAP
0FFE00
0FFC00
000000
000000
000000
3E3E00
3C3C00
3C3C00
7C7C00
7C7C00
7C7C00
787800
78F800
F8F800
F8F800
F8F180
F1F100
F9F300
FFF200
FFFC00
79F800
07E000
1FE000
3BE000
33E000
67C000
7FC000
3F8000
1E0000
ENDCHAR
STARTCHAR uni04F0
ENCODING 1264
SWIDTH 644 0
DWIDTH 21 0
BBX 23 30 0 0
BITMAP
000618
000F3C
000F3C
000618
000000
000000
00F80E
03F80C
0EF80C
1C7C18
387C18
707C38
707C30
E03E70
E03E60
603E60
703EC0
001FC0
001FC0
001F80
000F80
000F00
000F00
000E00
000600
01CE00
01EC00
01F800
01F800
00E000
ENDCHAR
STARTCHAR uni04F1
ENCODING 1265
SWIDTH 486 0
DWIDTH 16 0
BBX 17 30 0 -8
BITMAP
071800
073C00
073C00
071C00
000000
000000
3E3E00
3C3C00
3C3C00
7C7C00
7C7C00
7C7C00
787800
78F800
F8F800
F8F800
F8F180
F1F100
F9F300
FFF200
FFFC00
79F800
07E000
1FE000
3BE000
33E000
67C000
7FC000
3F8000
1E0000
ENDCHAR
STARTCHAR uni04F2
ENCODING 1266
SWIDTH 644 0
DWIDTH 21 0
BBX 24 32 0 0
BITMAP
0001EF
0001CE
00039C
000318
000630
000E30
000000
000000
00F80E
03F80C
0EF80C
1C7C18
387C18
707C38
707C30
E03E70
E03E60
603E60
703EC0
001FC0
001FC0
001F80
000F80
000F00
000F00
000E00
000600
01CE00
01EC00
01F800
01F800
00E000
ENDCHAR
STARTCHAR uni04F3
ENCODING 1267
SWIDTH 486 0
DWIDTH 16 0
BBX 17 32 0 -8
BITMAP
01E700
01CE00
038C00
031C00
031800
063000
000000
000000
3E3E00
3C3C00
3C3C00
7C7C00
7C7C00
7C7C00
787800
78F800
F8F800
F8F800
F8F180
F1F100
F9F300
FFF200
FFFC00
79F800
07E000
1FE000
3BE000
33E000
67C000
7FC000
3F8000
1E0000
ENDCHAR
STARTCHAR uni04F4
ENCODING 1268
SWIDTH 695 0
DWIDTH 22 0
BBX 23 30 0 0
BITMAP
000E38
000F38
000F38
000E38
000000
000000
00F83E
03F83E
0EF03E
1CF03C
39F03C
71F07C
71F07C
F1E07C
E1E078
63E078
61E0F8
01F1F8
01FFF8
007CF0
0001F0
0001F0
0001F0
0001E0
0001E0
0003E0
0003E0
0003E0
0003C0
0007C0
ENDCHAR
STARTCHAR uni04F5
ENCODING 1269
SWIDTH 505 0
DWIDTH 16 0
BBX 17 22 1 0
BITMAP
0E3000
1E7800
1E7800
0E3000
000000
000000
7C7C00
787800
787800
F8F800
F8F800
F8F800
F1F000
F9F000
FFF000
FFF000
79E180
01E100
01E200
01FE00
01FC00
00F000
ENDCHAR
STARTCHAR uni04F6
ENCODING 1270
SWIDTH 442 0
DWIDTH 14 0
BBX 20 29 0 -5
BITMAP
01FFF0
0FFFF0
1CF7E0
38F000
71F000
71F000
F1E000
F1E000
F3E000
73E000
33E000
03C000
03C000
07C000
07C000
07C000
078000
078000
0F8000
0F8000
0F8000
0F0000
1F0000
1F8000
03E400
01F800
01F800
00F800
00F000
ENDCHAR
STARTCHAR uni04F7
ENCODING 1271
SWIDTH 375 0
DWIDTH 12 0
BBX 14 24 -1 -8
BITMAP
07C0
1FE0
3FF0
31F0
61F0
41F0
03E0
0FC0
1F80
3E00
7C04
F808
F830
FFE0
7FC0
3F00
0C00
1C00
1E00
1E00
1E00
0E00
0C00
0800
ENDCHAR
STARTCHAR uni04F8
ENCODING 1272
SWIDTH 909 0
DWIDTH 29 0
BBX 30 31 0 -1
BITMAP
0000C300
0001E780
0001E780
0000E300
00000000
00000000
00F8007C
03F8007C
0FF00078
1CF00078
39F000F8
71F000F8
71F000F8
F1E000F0
E1E000F0
63E001F0
63FF01F0
03FFC1F0
03C3E1E0
07C3E1E0
07C1E3E0
07C1E3E0
0781E3E0
0781E3C0
0F81E7C0
0F83E7C0
0FC3C7C0
0F7FC780
0F7F8780
1F3F0F80
00080000
ENDCHAR
STARTCHAR uni04F9
ENCODING 1273
SWIDTH 642 0
DWIDTH 21 0
BBX 22 22 0 0
BITMAP
008200
01C700
01E700
01C700
000000
000000
3C0060
3C01E0
3C07E0
7C1FC0
7DFBC0
7BE3C0
7BE7C0
7867C0
F86780
F86780
F0E78C
F0EF88
F1CF98
FFCFF0
7F87E0
3E03C0
ENDCHAR
STARTCHAR uni051A
ENCODING 1306
SWIDTH 665 0
DWIDTH 21 0
BBX 20 27 1 -3
BITMAP
00FF00
03FFC0
0F03C0
3C79E0
78F1E0
71E0F0
E3C0F0
E7C0F0
E780F0
CF80F0
CF81F0
3F01F0
1F01E0
1F01E0
1F03E0
1E03E0
3E03C0
3E07C0
3E0780
1FEF00
1F3F00
1FFE00
0FFC00
07FE00
001F20
000FC0
0007C0
ENDCHAR
STARTCHAR uni051B
ENCODING 1307
SWIDTH 486 0
DWIDTH 16 0
BBX 15 24 0 -8
BITMAP
07DE
0FFE
1E3E
3C3E
7C3C
783C
F87C
F87C
F87C
F078
F0F8
F0F8
F9F8
FFF0
7EF0
3DF0
01F0
01F0
01E0
01E0
03E0
03E0
03C0
0200
ENDCHAR
STARTCHAR uni051C
ENCODING 1308
SWIDTH 962 0
DWIDTH 31 0
BBX 33 24 0 0
BITMAP
00F80F0180
03F81F0300
0EF81F0300
1CF81F0300
38F83F0600
70F83F0600
F0F87F0600
E0F87F0C00
E0F87F0C00
E0F8DF0C00
60F8DF1800
10F8DF1800
00F99F1000
00F99F3000
00F99F3000
00FB1F6000
00FB1F6000
00FA1F6000
00FE1FC000
00FE1FC000
00FC1F8000
00FC1F8000
00FC1F8000
00F81F0000
ENDCHAR
STARTCHAR uni051D
ENCODING 1309
SWIDTH 661 0
DWIDTH 21 0
BBX 21 16 0 0
BITMAP
3E3E70
3C3C78
3C3C78
7C7C18
7C7C18
7C7C30
787830
78F830
F8F870
F8F860
F8F0E0
F1F0C0
F9F1C0
FFFF80
FEFF00
787C00
ENDCHAR
STARTCHAR uni0524
ENCODING 1316
SWIDTH 742 0
DWIDTH 24 0
BBX 25 29 0 -5
BITMAP
01FF0080
0FFFFF80
1FFFFF80
3CF0FF00
79F07800
71F0F800
71F0F800
E1E0F800
E1E0F000
63E0F000
63E1F000
03C1F000
03C1F000
07C1E000
07C1E000
07C3E000
0783E000
0783E000
0F83C000
0F87C000
0F87C000
0F07C000
0F078000
1F07C000
0009F000
0000FE00
0000FC00
00007C00
00003800
ENDCHAR
STARTCHAR uni0525
ENCODING 1317
SWIDTH 505 0
DWIDTH 16 0
BBX 19 24 -1 -8
BITMAP
1F7800
1FFC00
1FFE00
3F3E00
3E3E00
3E3E00
3C3C00
3C3C00
7C7C00
7C7C00
7C7860
787840
7878C0
F87F80
F87F00
F83E00
000800
001800
003C00
003C00
003C00
001C00
000800
001000
ENDCHAR
STARTCHAR uni1E0C
ENCODING 7692
SWIDTH 663 0
DWIDTH 21 0
BBX 21 31 0 -7
BITMAP
00FE00
03FF80
0F03C0
1C01E0
39F0F0
71F0F0
71E0F0
E1E0F8
E3E0F8
E3E0F8
63E0F8
33C0F8
03C0F0
07C0F0
07C1F0
0781F0
0781E0
0F83E0
0F83E0
0F87C0
0F0780
0F9F80
1FFF00
1F7E00
001000
000000
01C000
03E000
03E000
03E000
01C000
ENDCHAR
STARTCHAR uni1E0D
ENCODING 7693
SWIDTH 525 0
DWIDTH 17 0
BBX 18 29 0 -7
BITMAP
000F80
000F00
000F00
001F00
001F00
001F00
07DE00
0FFE00
1E3E00
3C3E00
7C3C00
783C00
F87C00
F87C00
F87C00
F07800
F07840
F0F8C0
F9F880
FF7F80
7F7F00
3C3C00
000000
000000
0E0000
1F0000
1F0000
1F0000
0E0000
ENDCHAR
STARTCHAR uni1E20
ENCODING 7712
SWIDTH 578 0
DWIDTH 19 0
BBX 17 36 1 -7
BITMAP
01FF80
03FF80
000000
000000
000000
00FC00
03FF00
0FC380
1F0380
3E0380
3E0380
7C0780
7C0300
F80000
F80000
F80000
F80700
F80F00
F80F00
F80F00
F81F00
F83E00
7C7E00
7FDE00
3FBE00
0F3C00
003C00
1F3C00
3F7C00
3F7800
707800
707800
70F000
39E000
3FC000
0F8000
ENDCHAR
STARTCHAR uni1E21
ENCODING 7713
SWIDTH 507 0
DWIDTH 16 0
BBX 18 29 0 -8
BITMAP
07FE00
07FE00
000000
000000
000000
07DE00
0FFE00
1E3E00
3C3E00
7C3C00
783C00
F87C00
F87C00
F87C00
F07800
F0F8C0
F0F880
F9F980
FFF300
7FF600
3DFC00
03F000
0FF000
1DE000
31E000
33E000
33C000
3FC000
0F0000
ENDCHAR
STARTCHAR uni1E24
ENCODING 7716
SWIDTH 665 0
DWIDTH 21 0
BBX 22 31 0 -7
BITMAP
00F87C
03F87C
0FF07C
1CF078
39F078
71F0F8
71F0F8
F1E0F8
E1E0F0
E3E0F0
63FFF0
33FFF0
03C1F0
07C1E0
07C1E0
07C3E0
0783E0
0783E0
0F83C0
0F87C0
0F87C0
0F07C0
0F0780
1F0780
000000
000000
00E000
01F000
01F000
01F000
00E000
ENDCHAR
STARTCHAR uni1E25
ENCODING 7717
SWIDTH 505 0
DWIDTH 16 0
BBX 19 29 -1 -7
BITMAP
0F8000
0F8000
0F8000
0F0000
0F0000
1F0000
1F7800
1FFC00
1FFE00
3F3E00
3E3E00
3E3E00
3C3C00
3C3C00
7C7C00
7C7C00
7C7860
787840
7878C0
F87F80
F87F00
F83E00
000000
000000
070000
0F0000
0F8000
0F0000
070000
ENDCHAR
STARTCHAR uni1E2A
ENCODING 7722
SWIDTH 665 0
DWIDTH 21 0
BBX 22 31 0 -7
BITMAP
00F87C
03F87C
0FF07C
1CF078
39F078
71F0F8
71F0F8
F1E0F8
E1E0F0
E3E0F0
63FFF0
33FFF0
03C1F0
07C1E0
07C1E0
07C3E0
0783E0
0783E0
0F83C0
0F87C0
0F87C0
0F07C0
0F0780
1F0780
000000
000000
0E0600
0E0E00
071C00
07F800
00E000
ENDCHAR
STARTCHAR uni1E2B
ENCODING 7723
SWIDTH 505 0
DWIDTH 16 0
BBX 19 29 -1 -7
BITMAP
0F8000
0F8000
0F8000
0F0000
0F0000
1F0000
1F7800
1FFC00
1FFE00
3F3E00
3E3E00
3E3E00
3C3C00
3C3C00
7C7C00
7C7C00
7C7860
787840
7878C0
F87F80
F87F00
F83E00
000000
000000
707000
707000
78E000
3FC000
0E0000
ENDCHAR
STARTCHAR uni1E36
ENCODING 7734
SWIDTH 379 0
DWIDTH 12 0
BBX 21 32 0 -8
BITMAP
00F800
03F000
0EF000
1DF000
39F000
71F000
71E000
E1E000
E3E000
E3E000
63C000
13C000
07C000
07C000
07C000
078000
078000
0F8000
0F8000
0F8000
0F0000
0F0000
1F0000
1F8000
1FE000
01F000
1C7C00
3E3F08
3E1FF8
3E07F8
1C03F0
0000E0
ENDCHAR
STARTCHAR uni1E37
ENCODING 7735
SWIDTH 293 0
DWIDTH 9 0
BBX 11 29 0 -7
BITMAP
0F80
0F80
0F00
0F00
1F00
1F00
1F00
1E00
3E00
3E00
3E00
3C00
3C00
7C00
7C00
7C00
7860
7840
78C0
7F80
7F00
3C00
0000
0000
7000
F800
F800
F800
7000
ENDCHAR
STARTCHAR uni1E42
ENCODING 7746
SWIDTH 787 0
DWIDTH 25 0
BBX 24 31 2 -7
BITMAP
01F81F
07F83F
0EF83E
18F83E
31F87E
71F87E
71F8FE
E3F8FE
E3F0FE
E7F1FC
67F1BC
16F3FC
0EF3FC
0EF37C
0CF77C
1CF67C
18FE78
18FC78
38FC78
30FCF8
70F8F8
71F8F8
61F0F8
E1F0F0
000000
000000
01C000
03E000
03E000
03E000
01C000
ENDCHAR
STARTCHAR uni1E43
ENCODING 7747
SWIDTH 752 0
DWIDTH 24 0
BBX 26 23 -1 -7
BITMAP
1F787800
1FFCFC00
1FFFFE00
3F3F3E00
3E3E3E00
3E3E3C00
3C3C3C00
3C7C3C00
7C7C7C00
7C7C7C00
7C787840
78787840
78F87880
F8F87F80
F8F87F00
F8F03E00
00000000
00000000
00E00000
01F00000
01F00000
01F00000
00E00000
ENDCHAR
STARTCHAR uni1E44
ENCODING 7748
SWIDTH 668 0
DWIDTH 21 0
BBX 23 31 0 0
BITMAP
0000E0
0001E0
0001F0
0001E0
0000E0
000000
000000
01F00E
0FF80E
1EF81C
39F81C
79F81C
71FC1C
F1FC1C
E1FC38
E3FC38
E3BC38
73BE38
33BE30
079E70
071E70
071F70
071F70
070FE0
0E0FE0
0E0FE0
0E0FE0
0E07E0
1E07C0
1C07C0
1C07C0
ENDCHAR
STARTCHAR uni1E45
ENCODING 7749
SWIDTH 505 0
DWIDTH 16 0
BBX 19 24 -1 0
BITMAP
007000
00F800
00F800
00F800
007000
000000
000000
000000
1F7800
1FFC00
1FFE00
3F3E00
3E3E00
3E3E00
3C3C00
3C3C00
7C7C00
7C7C00
7C7860
787840
7878C0
F87F80
F87F00
F83E00
ENDCHAR
STARTCHAR uni1E46
ENCODING 7750
SWIDTH 668 0
DWIDTH 21 0
BBX 23 31 0 -7
BITMAP
01F00E
0FF80E
1EF81C
39F81C
79F81C
71FC1C
F1FC1C
E1FC38
E3FC38
E3BC38
73BE38
33BE30
079E70
071E70
071F70
071F70
070FE0
0E0FE0
0E0FE0
0E0FE0
0E07E0
1E07C0
1C07C0
1C07C0
000000
000000
00E000
01F000
01F000
01F000
00E000
ENDCHAR
STARTCHAR uni1E47
ENCODING 7751
SWIDTH 505 0
DWIDTH 16 0
BBX 19 23 -1 -7
BITMAP
1F7800
1FFC00
1FFE00
3F3E00
3E3E00
3E3E00
3C3C00
3C3C00
7C7C00
7C7C00
7C7860
787840
7878C0
F87F80
F87F00
F83E00
000000
000000
070000
0F8000
0F8000
0F8000
070000
ENDCHAR
STARTCHAR uni1E5A
ENCODING 7770
SWIDTH 601 0
DWIDTH 19 0
BBX 19 31 0 -7
BITMAP
00FE00
03FF80
0F03C0
1C11C0
39F1E0
71F1E0
F1E1C0
E1E1C0
E3E380
E3E700
63FF00
13FF80
07C780
07C780
07C780
078780
078780
0F8780
0F8F80
0F8F00
0F0F00
0F0F00
1F1F00
1F0F80
000400
000000
00E000
01E000
01F000
01E000
00E000
ENDCHAR
STARTCHAR uni1E5B
ENCODING 7771
SWIDTH 376 0
DWIDTH 12 0
BBX 14 23 -2 -7
BITMAP
0FBC
0FFC
0FFC
1F9C
1F1C
1F00
1E00
1E00
3E00
3E00
3E00
3C00
3C00
7C00
7C00
7C00
0000
0000
7800
7800
FC00
7800
7800
ENDCHAR
STARTCHAR uni1E60
ENCODING 7776
SWIDTH 570 0
DWIDTH 18 0
BBX 17 32 1 -1
BITMAP
001C00
003E00
003E00
003E00
001C00
000000
000000
00FC00
03FE00
07C700
0F8380
0F0380
0F8780
0F8F00
0F8600
0FC000
07E000
03F000
01F800
01FC00
00FC00
1C7E00
7E3E00
7C3E00
F01E00
F01E00
F03E00
F03E00
787C00
7FF800
1FE000
020000
ENDCHAR
STARTCHAR uni1E61
ENCODING 7777
SWIDTH 382 0
DWIDTH 12 0
BBX 15 24 -1 0
BITMAP
00E0
01E0
03F0
01E0
01E0
0000
0000
00C0
07C0
07C0
07C0
0FE0
0BE0
1BE0
1BE0
13E0
33E0
63E0
F3E2
F3EC
C3F0
C7E0
7F80
3F00
ENDCHAR
STARTCHAR uni1E62
ENCODING 7778
SWIDTH 570 0
DWIDTH 18 0
BBX 17 31 1 -7
BITMAP
00FC00
03FE00
07C700
0F8380
0F0380
0F8780
0F8F00
0F8600
0FC000
07E000
03F000
01F800
01FC00
00FC00
1C7E00
7E3E00
7C3E00
F01E00
F01E00
F03E00
F03E00
787C00
7FF800
1FE000
020000
000000
0E0000
1F0000
1F0000
1F0000
0E0000
ENDCHAR
STARTCHAR uni1E63
ENCODING 7779
SWIDTH 382 0
DWIDTH 12 0
BBX 15 24 -1 -7
BITMAP
03C0
07C0
07C0
07E0
0FE0
0BE0
1BE0
13E0
33E0
23E0
73E0
F3E6
E3F8
C3F0
C7E0
7F80
3E00
0000
0000
3800
7C00
7C00
7C00
3800
ENDCHAR
STARTCHAR uni1E6C
ENCODING 7788
SWIDTH 481 0
DWIDTH 15 0
BBX 23 31 0 -7
BITMAP
01FC02
0FFF86
1FFFFE
3C7FFC
787DF8
707C00
F07C00
E07800
E0F800
E0F800
60F800
70F000
01F000
01F000
01F000
01F000
01E000
03E000
03E000
03E000
03C000
03C000
07C000
07C000
000000
000000
070000
0F8000
0F8000
0F8000
070000
ENDCHAR
STARTCHAR uni1E6D
ENCODING 7789
SWIDTH 267 0
DWIDTH 9 0
BBX 12 28 -2 -7
BITMAP
03C0
07C0
0780
0F80
0F80
1FE0
0F00
0F00
1F00
1F00
1F00
1E00
1E00
3E00
3E00
3E30
3C20
3E60
3FC0
3F80
1E00
0000
0000
7800
7800
FC00
7800
7800
ENDCHAR
STARTCHAR Wgrave
ENCODING 7808
SWIDTH 962 0
DWIDTH 31 0
BBX 33 31 0 0
BITMAP
00001C0000
00001C0000
00001C0000
00000C0000
00000E0000
00000E0000
0000000000
00F80F0180
03F81F0300
0EF81F0300
1CF81F0300
38F83F0600
70F83F0600
F0F87F0600
E0F87F0C00
E0F87F0C00
E0F8DF0C00
60F8DF1800
10F8DF1800
00F99F1000
00F99F3000
00F99F3000
00FB1F6000
00FB1F6000
00FA1F6000
00FE1FC000
00FE1FC000
00FC1F8000
00FC1F8000
00FC1F8000
00F81F0000
ENDCHAR
STARTCHAR wgrave
ENCODING 7809
SWIDTH 661 0
DWIDTH 21 0
BBX 21 24 0 0
BITMAP
00F000
007000
007000
007000
003000
003800
000000
000000
3E3E70
3C3C78
3C3C78
7C7C18
7C7C18
7C7C30
787830
78F830
F8F870
F8F860
F8F0E0
F1F0C0
F9F1C0
FFFF80
FEFF00
787C00
ENDCHAR
STARTCHAR Wacute
ENCODING 7810
SWIDTH 962 0
DWIDTH 31 0
BBX 33 32 0 0
BITMAP
000000E000
000001E000
000001C000
0000038000
0000038000
0000070000
0000060000
0000000000
00F80F0180
03F81F0300
0EF81F0300
1CF81F0300
38F83F0600
70F83F0600
F0F87F0600
E0F87F0C00
E0F87F0C00
E0F8DF0C00
60F8DF1800
10F8DF1800
00F99F1000
00F99F3000
00F99F3000
00FB1F6000
00FB1F6000
00FA1F6000
00FE1FC000
00FE1FC000
00FC1F8000
00FC1F8000
00FC1F8000
00F81F0000
ENDCHAR
STARTCHAR wacute
ENCODING 7811
SWIDTH 661 0
DWIDTH 21 0
BBX 21 24 0 0
BITMAP
000780
000700
000700
000E00
000C00
001C00
001800
000000
3E3E70
3C3C78
3C3C78
7C7C18
7C7C18
7C7C30
787830
78F830
F8F870
F8F860
F8F0E0
F1F0C0
F9F1C0
FFFF80
FEFF00
787C00
ENDCHAR
STARTCHAR Wdieresis
ENCODING 7812
SWIDTH 962 0
DWIDTH 31 0
BBX 33 30 0 0
BITMAP
000031C000
000079E000
000079E000
000031C000
0000000000
0000000000
00F80F0180
03F81F0300
0EF81F0300
1CF81F0300
38F83F0600
70F83F0600
F0F87F0600
E0F87F0C00
E0F87F0C00
E0F8DF0C00
60F8DF1800
10F8DF1800
00F99F1000
00F99F3000
00F99F3000
00FB1F6000
00FB1F6000
00FA1F6000
00FE1FC000
00FE1FC000
00FC1F8000
00FC1F8000
00FC1F8000
00F81F0000
ENDCHAR
STARTCHAR wdieresis
ENCODING 7813
SWIDTH 661 0
DWIDTH 21 0
BBX 21 22 0 0
BITMAP
00C300
01E780
01E780
00C700
000000
000000
3E3E70
3C3C78
3C3C78
7C7C18
7C7C18
7C7C30
787830
78F830
F8F870
F8F860
F8F0E0
F1F0C0
F9F1C0
FFFF80
FEFF00
787C00
ENDCHAR
STARTCHAR uni1E8E
ENCODING 7822
SWIDTH 620 0
DWIDTH 20 0
BBX 22 31 0 0
BITMAP
0001C0
0003E0
0003E0
0003E0
0001C0
000000
000000
00F80C
03F80C
0EF818
1CFC18
387C30
707C30
F07C20
E07E60
E03E60
E03EC0
603EC0
103F80
001F80
001F00
001F00
001F00
003F00
003E00
003E00
003E00
003E00
007E00
007C00
007C00
ENDCHAR
STARTCHAR uni1E8F
ENCODING 7823
SWIDTH 505 0
DWIDTH 16 0
BBX 17 32 0 -8
BITMAP
00E000
01F000
01F000
01F000
00E000
000000
000000
000000
3E3E00
3C3C00
3C3C00
7C7C00
7C7C00
7C7C00
787800
78F800
F8F800
F8F800
F8F180
F1F100
F9F300
FFF200
FFFC00
79F800
07E000
1FE000
3BE000
33E000
67C000
7FC000
3F8000
1E0000
ENDCHAR
STARTCHAR uni1E92
ENCODING 7826
SWIDTH 542 0
DWIDTH 17 0
BBX 18 39 0 -7
BITMAP
0001C0
000380
000380
000700
000600
000E00
000C00
000000
07FFC0
1FFF80
1C1F00
1C1F00
1C3E00
003E00
007C00
007C00
00F800
00F800
01F000
01F000
03E000
03E000
07C000
07C000
0F8000
0F8000
1F0000
1F0700
3E0F00
3E0700
7FFE00
FFFC00
000000
000000
070000
0F8000
0F8000
0F8000
070000
ENDCHAR
STARTCHAR uni1E93
ENCODING 7827
SWIDTH 428 0
DWIDTH 14 0
BBX 14 23 0 -7
BITMAP
0FFC
3FF8
38F0
39F0
31E0
03E0
07C0
0780
0F80
0F00
1F00
1E20
3E70
7C30
7FF0
FFE0
0000
0000
3800
7C00
7C00
7C00
3800
ENDCHAR
STARTCHAR uni1E97
ENCODING 7831
SWIDTH 267 0
DWIDTH 9 0
BBX 11 26 0 0
BITMAP
38C0
3DE0
3DE0
38C0
0000
0F00
1F00
1E00
3E00
3E00
7F80
3C00
3C00
7C00
7C00
7C00
7800
7800
F800
F800
F8C0
F080
F980
FF00
FE00
7800
ENDCHAR
STARTCHAR uni1E9E
ENCODING 7838
SWIDTH 559 0
DWIDTH 18 0
BBX 21 32 -2 -8
BITMAP
003FF8
00FFF8
01F1F0
01E1F0
03E3E0
03C3E0
03C7C0
07C7C0
07CF80
078F80
0F9F00
0F9F00
0F8F00
0F0F80
0F0780
1F07C0
1F07C0
1F03C0
1E07C0
1E07C0
3E0780
3E0F80
3EDF00
3CFE00
3C3000
7C0000
7C0000
780000
780000
780000
F80000
C00000
ENDCHAR
STARTCHAR uni1EA0
ENCODING 7840
SWIDTH 668 0
DWIDTH 21 0
BBX 22 31 0 -7
BITMAP
00007C
0000FC
0003FC
00077C
000E78
000C78
001CF8
0038F8
0070F0
0070F0
0FE1F0
3FFFF0
79C3F0
F3C1E0
F3C1E0
2783E0
0783E0
0F03E0
0F03C0
0F03C0
1E07C0
1E07C0
1E0780
1E0780
1E0000
1E0000
0E3800
003C00
007E00
003C00
003800
ENDCHAR
STARTCHAR uni1EA1
ENCODING 7841
SWIDTH 526 0
DWIDTH 17 0
BBX 18 23 0 -7
BITMAP
07DE00
0FFE00
1E3E00
3C3E00
7C3C00
783C00
F87C00
F87C00
F87C00
F07800
F07840
F0F8C0
F9F880
FF7F80
7E7F00
3C3C00
000000
000000
0E0000
1F0000
1F0000
1F0000
0E0000
ENDCHAR
STARTCHAR uni1EA2
ENCODING 7842
SWIDTH 668 0
DWIDTH 21 0
BBX 24 35 0 -3
BITMAP
00003C
00007E
000007
000007
00001E
000018
000010
000000
00007C
0000FC
0003FC
00077C
000E78
000C78
001CF8
0038F8
0070F0
0070F0
0FE1F0
3FFFF0
79C3F0
F3C1E0
F381E0
2783E0
0783E0
0F03E0
0F03C0
0F03C0
1E07C0
1E07C0
1E0780
1E0780
1E0000
1E0000
1E0000
ENDCHAR
STARTCHAR uni1EA3
ENCODING 7843
SWIDTH 526 0
DWIDTH 17 0
BBX 18 25 0 0
BITMAP
007800
00FC00
000E00
000E00
003C00
003000
002000
000000
000000
07DE00
0FFE00
1E3E00
3C3E00
7C3C00
783C00
F87C00
F87C00
F87C00
F07800
F07840
F0F8C0
F9F880
FF7F80
7E7F00
3C3C00
ENDCHAR
STARTCHAR uni1EA4
ENCODING 7844
SWIDTH 668 0
DWIDTH 21 0
BBX 28 35 0 -3
BITMAP
00000070
00000060
000004C0
00001C80
00003780
00006200
0000C300
00000000
00007C00
0000FC00
0003FC00
00077C00
000E7800
000C7800
001CF800
0038F800
0070F000
0070F000
0FE1F000
3FFFF000
79C3F000
F3C1E000
F381E000
2783E000
0783E000
0F03E000
0F03C000
0F03C000
1E07C000
1E07C000
1E078000
1E078000
1E000000
1E000000
1E000000
ENDCHAR
STARTCHAR uni1EA5
ENCODING 7845
SWIDTH 526 0
DWIDTH 17 0
BBX 19 28 0 0
BITMAP
0000E0
0000C0
0001C0
000180
001300
003800
007800
00E800
018C00
020400
000000
000000
07DE00
0FFE00
1E3E00
3C3E00
7C3C00
783C00
F87C00
F87C00
F87C00
F07800
F07840
F0F8C0
F9F880
FF7F80
7E7F00
3C3C00
ENDCHAR
STARTCHAR uni1EA6
ENCODING 7846
SWIDTH 668 0
DWIDTH 21 0
BBX 26 34 0 -3
BITMAP
00000180
000004C0
00000CC0
00003E40
00006200
00008100
00000000
00007C00
0000FC00
0003FC00
00077C00
000E7800
000C7800
001CF800
0038F800
0070F000
0070F000
0FE1F000
3FFFF000
79C3F000
F3C1E000
F381E000
2783E000
0783E000
0F03E000
0F03C000
0F03C000
1E07C000
1E07C000
1E078000
1E078000
1E000000
1E000000
1E000000
ENDCHAR
STARTCHAR uni1EA7
ENCODING 7847
SWIDTH 526 0
DWIDTH 17 0
BBX 18 27 0 0
BITMAP
000300
000300
000180
001180
003980
007800
00E800
018C00
020400
000000
000000
07DE00
0FFE00
1E3E00
3C3E00
7C3C00
783C00
F87C00
F87C00
F87C00
F07800
F07840
F0F8C0
F9F880
FF7F80
7E7F00
3C3C00
ENDCHAR
STARTCHAR uni1EA8
ENCODING 7848
SWIDTH 668 0
DWIDTH 21 0
BBX 27 34 0 -3
BITMAP
000001E0
00000420
00000CE0
00003680
0000E200
00000100
00000000
00007C00
0000FC00
0003FC00
00077C00
000E7800
000C7800
001CF800
0038F800
0070F000
0070F000
0FE1F000
3FFFF000
79C3F000
F3C1E000
F381E000
2783E000
0783E000
0F03E000
0F03C000
0F03C000
1E07C000
1E07C000
1E078000
1E078000
1E000000
1E000000
1E000000
ENDCHAR
STARTCHAR uni1EA9
ENCODING 7849
SWIDTH 526 0
DWIDTH 17 0
BBX 18 26 0 0
BITMAP
000780
0000C0
001380
003B00
007800
00E800
018C00
020400
000000
000000
07DE00
0FFE00
1E3E00
3C3E00
7C3C00
783C00
F87C00
F87C00
F87C00
F07800
F07840
F0F8C0
F9F880
FF7F80
7E7F00
3C3C00
ENDCHAR
STARTCHAR uni1EAA
ENCODING 7850
SWIDTH 668 0
DWIDTH 21 0
BBX 26 35 0 -3
BITMAP
00000800
00003FC0
00004780
00001C00
00003E00
00006200
0000C300
00000000
00007C00
0000FC00
0003FC00
00077C00
000E7800
000C7800
001CF800
0038F800
0070F000
0070F000
0FE1F000
3FFFF000
79C3F000
F3C1E000
F381E000
2783E000
0783E000
0F03E000
0F03C000
0F03C000
1E07C000
1E07C000
1E078000
1E078000
1E000000
1E000000
1E000000
ENDCHAR
STARTCHAR uni1EAB
ENCODING 7851
SWIDTH 526 0
DWIDTH 17 0
BBX 18 27 0 0
BITMAP
007F80
009E00
000000
001000
003800
007800
00E800
018C00
020400
000000
000000
07DE00
0FFE00
1E3E00
3C3E00
7C3C00
783C00
F87C00
F87C00
F87C00
F07800
F07840
F0F8C0
F9F880
FF7F80
7E7F00
3C3C00
ENDCHAR
STARTCHAR uni1EAC
ENCODING 7852
SWIDTH 668 0
DWIDTH 21 0
BBX 24 39 0 -7
BITMAP
000002
000006
00000E
00003E
000073
0000C1
000181
000000
00007C
0000FC
0003FC
00077C
000E78
000C78
001CF8
0038F8
0070F0
0070F0
0FE1F0
3FFFF0
79C3F0
F3C1E0
F3C1E0
2783E0
0783E0
0F03E0
0F03C0
0F03C0
1E07C0
1E07C0
1E0780
1E0780
1E0000
1E0000
0E3800
003C00
007E00
003C00
003800
ENDCHAR
STARTCHAR uni1EAD
ENCODING 7853
SWIDTH 526 0
DWIDTH 17 0
BBX 18 31 0 -7
BITMAP
001800
003800
007800
00FC00
01CC00
070400
000000
000000
07DE00
0FFE00
1E3E00
3C3E00
7C3C00
783C00
F87C00
F87C00
F87C00
F07800
F07840
F0F8C0
F9F880
FF7F80
7E7F00
3C3C00
000000
000000
0E0000
1F0000
1F0000
1F0000
0E0000
ENDCHAR
STARTCHAR uni1EAE
ENCODING 7854
SWIDTH 668 0
DWIDTH 21 0
BBX 26 35 0 -3
BITMAP
00000300
00000600
00000600
0000CDC0
0000C980
0000E380
00007E00
00000000
00007C00
0000FC00
0003FC00
00077C00
000E7800
000C7800
001CF800
0038F800
0070F000
0070F000
0FE1F000
3FFFF000
79C3F000
F3C1E000
F381E000
2783E000
0783E000
0F03E000
0F03C000
0F03C000
1E07C000
1E07C000
1E078000
1E078000
1E000000
1E000000
1E000000
ENDCHAR
STARTCHAR uni1EAF
ENCODING 7855
SWIDTH 526 0
DWIDTH 17 0
BBX 18 27 0 0
BITMAP
001C00
001C00
001800
003000
003000
070700
038E00
03FC00
004000
000000
000000
07DE00
0FFE00
1E3E00
3C3E00
7C3C00
783C00
F87C00
F87C00
F87C00
F07800
F07840
F0F8C0
F9F880
FF7F80
7E7F00
3C3C00
ENDCHAR
STARTCHAR uni1EB0
ENCODING 7856
SWIDTH 668 0
DWIDTH 21 0
BBX 26 34 0 -3
BITMAP
00003800
00001800
00001800
0000CDC0
0000E380
00007E00
00000000
00007C00
0000FC00
0003FC00
00077C00
000E7800
000C7800
001CF800
0038F800
0070F000
0070F000
0FE1F000
3FFFF000
79C3F000
F3C1E000
F381E000
2783E000
0783E000
0F03E000
0F03C000
0F03C000
1E07C000
1E07C000
1E078000
1E078000
1E000000
1E000000
1E000000
ENDCHAR
STARTCHAR uni1EB1
ENCODING 7857
SWIDTH 526 0
DWIDTH 17 0
BBX 18 27 0 0
BITMAP
00E000
006000
006000
006000
003000
070700
038E00
03FC00
004000
000000
000000
07DE00
0FFE00
1E3E00
3C3E00
7C3C00
783C00
F87C00
F87C00
F87C00
F07800
F07840
F0F8C0
F9F880
FF7F80
7E7F00
3C3C00
ENDCHAR
STARTCHAR uni1EB2
ENCODING 7858
SWIDTH 668 0
DWIDTH 21 0
BBX 26 34 0 -3
BITMAP
00001E00
00000200
00000E40
0000C980
0000E380
00007F00
00003C00
00007C00
0000FC00
0003FC00
00077C00
000E7800
000C7800
001CF800
0038F800
0070F000
0070F000
0FE1F000
3FFFF000
79C3F000
F3C1E000
F381E000
2783E000
0783E000
0F03E000
0F03C000
0F03C000
1E07C000
1E07C000
1E078000
1E078000
1E000000
1E000000
1E000000
ENDCHAR
STARTCHAR uni1EB3
ENCODING 7859
SWIDTH 526 0
DWIDTH 17 0
BBX 18 27 0 0
BITMAP
007800
000800
000800
003800
002000
070700
038E00
03FC00
004000
000000
000000
07DE00
0FFE00
1E3E00
3C3E00
7C3C00
783C00
F87C00
F87C00
F87C00
F07800
F07840
F0F8C0
F9F880
FF7F80
7E7F00
3C3C00
ENDCHAR
STARTCHAR uni1EB4
ENCODING 7860
SWIDTH 668 0
DWIDTH 21 0
BBX 26 35 0 -3
BITMAP
00000840
00007F80
00008F00
0000C1C0
0000C180
0000E380
00007E00
00000000
00007C00
0000FC00
0003FC00
00077C00
000E7800
000C7800
001CF800
0038F800
0070F000
0070F000
0FE1F000
3FFFF000
79C3F000
F3C1E000
F381E000
2783E000
0783E000
0F03E000
0F03C000
0F03C000
1E07C000
1E07C000
1E078000
1E078000
1E000000
1E000000
1E000000
ENDCHAR
STARTCHAR uni1EB5
ENCODING 7861
SWIDTH 526 0
DWIDTH 17 0
BBX 18 27 0 0
BITMAP
00FD00
013E00
000000
000000
000000
030700
038E00
01FC00
004000
000000
000000
07DE00
0FFE00
1E3E00
3C3E00
7C3C00
783C00
F87C00
F87C00
F87C00
F07800
F07840
F0F8C0
F9F880
FF7F80
7E7F00
3C3C00
ENDCHAR
STARTCHAR uni1EB6
ENCODING 7862
SWIDTH 668 0
DWIDTH 21 0
BBX 26 37 0 -7
BITMAP
0001C1C0
0001C1C0
0000FF80
00007E00
00000000
00000000
00007C00
0000FC00
0003FC00
00077C00
000E7800
000C7800
001CF800
0038F800
0070F000
0070F000
0FE1F000
3FFFF000
79C3F000
F3C1E000
F3C1E000
2783E000
0783E000
0F03E000
0F03C000
0F03C000
1E07C000
1E07C000
1E078000
1E078000
1E000000
1E000000
0E380000
003C0000
007E0000
003C0000
00380000
ENDCHAR
STARTCHAR uni1EB7
ENCODING 7863
SWIDTH 526 0
DWIDTH 17 0
BBX 18 30 0 -7
BITMAP
070300
070700
03FE00
01F800
000000
000000
000000
07DE00
0FFE00
1E3E00
3C3E00
7C3C00
783C00
F87C00
F87C00
F87C00
F07800
F07840
F0F8C0
F9F880
FF7F80
7E7F00
3C3C00
000000
000000
0E0000
1F0000
1F0000
1F0000
0E0000
ENDCHAR
STARTCHAR uni1EB8
ENCODING 7864
SWIDTH 459 0
DWIDTH 15 0
BBX 16 31 0 -7
BITMAP
007C
01FE
03C7
0787
0787
0F07
0F0E
0F00
0F80
0780
03F0
0FC0
1F00
3F00
7E00
7C00
7C00
FC00
FC02
FC02
FC0C
7FF8
7FF0
3FE0
0600
0000
1C00
1E00
3E00
1E00
1C00
ENDCHAR
STARTCHAR uni1EB9
ENCODING 7865
SWIDTH 384 0
DWIDTH 12 0
BBX 13 23 0 -7
BITMAP
07C0
0FE0
1E70
3C70
7C70
7860
F8E0
F9C0
FF80
FE00
F000
F018
F830
FFE0
7FC0
3F00
0000
0000
3800
7C00
7C00
7C00
3800
ENDCHAR
STARTCHAR uni1EBA
ENCODING 7866
SWIDTH 459 0
DWIDTH 15 0
BBX 16 33 0 -1
BITMAP
003E
007F
0003
0003
001E
001C
0010
0000
007C
01FE
03C7
0787
0787
0F07
0F0E
0F00
0F80
0780
03F0
0FC0
1F00
3F00
7E00
7C00
7C00
FC00
FC02
FC02
FC0C
7FF8
7FF0
3FE0
0600
ENDCHAR
STARTCHAR uni1EBB
ENCODING 7867
SWIDTH 384 0
DWIDTH 12 0
BBX 13 25 0 0
BITMAP
01E0
03F0
0030
0030
01E0
01C0
0180
0000
0000
07C0
0FE0
1E70
3C70
7C70
7860
F8E0
F9C0
FF80
FE00
F000
F018
F830
FFE0
7FC0
3F00
ENDCHAR
STARTCHAR uni1EBC
ENCODING 7868
SWIDTH 459 0
DWIDTH 15 0
BBX 19 31 0 -1
BITMAP
001000
00FFE0
01FFC0
021F80
000000
000000
007C00
01FE00
03C700
078700
078700
0F0700
0F0E00
0F0000
0F8000
078000
03F000
0FC000
1F0000
3F0000
7E0000
7C0000
7C0000
FC0000
FC0200
FC0200
FC0C00
7FF800
7FF000
3FE000
060000
ENDCHAR
STARTCHAR uni1EBD
ENCODING 7869
SWIDTH 384 0
DWIDTH 12 0
BBX 14 22 0 0
BITMAP
0200
1FFC
3FF8
43F0
0000
0000
07C0
0FE0
1E70
3C70
7C70
7860
F8E0
F9C0
FF80
FE00
F000
F018
F830
FFE0
7FC0
3F00
ENDCHAR
STARTCHAR uni1EBE
ENCODING 7870
SWIDTH 459 0
DWIDTH 15 0
BBX 20 33 0 -1
BITMAP
000070
000060
0004C0
001C80
003780
006200
00C300
000000
007C00
01FE00
03C700
078700
078700
0F0700
0F0E00
0F0000
0F8000
078000
03F000
0FC000
1F0000
3F0000
7E0000
7C0000
7C0000
FC0000
FC0200
FC0200
FC0C00
7FF800
7FF000
3FE000
060000
ENDCHAR
STARTCHAR uni1EBF
ENCODING 7871
SWIDTH 384 0
DWIDTH 12 0
BBX 18 28 0 0
BITMAP
0001C0
000380
000300
000700
002600
006000
00E000
03B000
071000
0C1000
000000
000000
07C000
0FE000
1E7000
3C7000
7C7000
786000
F8E000
F9C000
FF8000
FE0000
F00000
F01800
F83000
FFE000
7FC000
3F0000
ENDCHAR
STARTCHAR uni1EC0
ENCODING 7872
SWIDTH 459 0
DWIDTH 15 0
BBX 18 32 0 -1
BITMAP
0001C0
0004C0
000CC0
003E40
006200
008100
000000
007C00
01FE00
03C700
078700
078700
0F0700
0F0E00
0F0000
0F8000
078000
03F000
0FC000
1F0000
3F0000
7E0000
7C0000
7C0000
FC0000
FC0200
FC0200
FC0C00
7FF800
7FF000
3FE000
060000
ENDCHAR
STARTCHAR uni1EC1
ENCODING 7873
SWIDTH 384 0
DWIDTH 12 0
BBX 15 27 0 0
BITMAP
000E
0006
0006
0026
0062
01E0
03B0
0710
0C10
0000
0000
07C0
0FE0
1E70
3C70
7C70
7860
F8E0
F9C0
FF80
FE00
F000
F018
F830
FFE0
7FC0
3F00
ENDCHAR
STARTCHAR uni1EC2
ENCODING 7874
SWIDTH 459 0
DWIDTH 15 0
BBX 20 32 0 -1
BITMAP
0001E0
000430
000CE0
0036C0
00E200
000100
000000
007C00
01FE00
03C700
078700
078700
0F0700
0F0E00
0F0000
0F8000
078000
03F000
0FC000
1F0000
3F0000
7E0000
7C0000
7C0000
FC0000
FC0200
FC0200
FC0C00
7FF800
7FF000
3FE000
060000
ENDCHAR
STARTCHAR uni1EC3
ENCODING 7875
SWIDTH 384 0
DWIDTH 12 0
BBX 16 26 0 0
BITMAP
001E
0003
002E
006C
01E0
03B0
0710
0C10
0000
0000
07C0
0FE0
1E70
3C70
7C70
7860
F8E0
F9C0
FF80
FE00
F000
F018
F830
FFE0
7FC0
3F00
ENDCHAR
STARTCHAR uni1EC4
ENCODING 7876
SWIDTH 459 0
DWIDTH 15 0
BBX 18 33 0 -1
BITMAP
000800
003FC0
004780
001C00
003E00
006200
00C300
000000
007C00
01FE00
03C700
078700
078700
0F0700
0F0E00
0F0000
0F8000
078000
03F000
0FC000
1F0000
3F0000
7E0000
7C0000
7C0000
FC0000
FC0200
FC0200
FC0C00
7FF800
7FF000
3FE000
060000
ENDCHAR
STARTCHAR uni1EC5
ENCODING 7877
SWIDTH 384 0
DWIDTH 12 0
BBX 15 27 0 0
BITMAP
01FA
027C
0000
0020
0060
00E0
03B0
0710
0C10
0000
0000
07C0
0FE0
1E70
3C70
7C70
7860
F8E0
F9C0
FF80
FE00
F000
F018
F830
FFE0
7FC0
3F00
ENDCHAR
STARTCHAR uni1EC6
ENCODING 7878
SWIDTH 459 0
DWIDTH 15 0
BBX 16 39 0 -7
BITMAP
0004
000C
001E
003E
0076
00C3
0301
0000
007C
01FE
03C7
0787
0787
0F07
0F0E
0F00
0F80
0780
03F0
0FC0
1F00
3F00
7E00
7C00
7C00
FC00
FC02
FC02
FC0C
7FF8
7FF0
3FE0
0600
0000
1C00
1E00
3E00
1E00
1C00
ENDCHAR
STARTCHAR uni1EC7
ENCODING 7879
SWIDTH 384 0
DWIDTH 12 0
BBX 13 31 0 -7
BITMAP
0020
0060
01F0
03F0
0730
0C18
1000
0000
07C0
0FE0
1E70
3C70
7C70
7860
F8E0
F9C0
FF80
FE00
F000
F018
F830
FFE0
7FC0
3F00
0000
0000
3800
7C00
7C00
7C00
3800
ENDCHAR
STARTCHAR uni1EC8
ENCODING 7880
SWIDTH 375 0
DWIDTH 12 0
BBX 15 32 0 0
BITMAP
0078
00FC
000E
000E
003C
0030
0020
0000
00F8
03F0
0EF0
1DF0
39F0
71F0
F1E0
E1E0
E3E0
E3E0
63C0
13C0
07C0
07C0
07C0
0780
0780
0F80
0F80
0F80
0F00
0F00
1F00
1F00
ENDCHAR
STARTCHAR uni1EC9
ENCODING 7881
SWIDTH 267 0
DWIDTH 9 0
BBX 10 25 0 0
BITMAP
0F00
1F80
0180
0180
0F00
0C00
0C00
0000
0000
3E00
3C00
3C00
7C00
7C00
7C00
7800
7800
F800
F800
F8C0
F080
F980
FF00
FE00
7800
ENDCHAR
STARTCHAR uni1ECA
ENCODING 7882
SWIDTH 375 0
DWIDTH 12 0
BBX 13 31 0 -7
BITMAP
00F8
03F0
0EF0
1DF0
39F0
71F0
F1E0
E1E0
E3E0
E3E0
63C0
13C0
07C0
07C0
07C0
0780
0780
0F80
0F80
0F80
0F00
0F00
1F00
1F00
0000
0000
1C00
3E00
3E00
3E00
1C00
ENDCHAR
STARTCHAR uni1ECB
ENCODING 7883
SWIDTH 267 0
DWIDTH 9 0
BBX 12 29 -2 -7
BITMAP
0380
07C0
07C0
07C0
0380
0000
0F80
0F00
0F00
1F00
1F00
1F00
1E00
1E00
3E00
3E00
3E30
3C20
3E60
3FC0
3F80
1E00
0000
0000
7800
7800
FC00
7800
7800
ENDCHAR
STARTCHAR uni1ECC
ENCODING 7884
SWIDTH 665 0
DWIDTH 21 0
BBX 20 31 1 -7
BITMAP
00FF00
03FFC0
0F03C0
3C79E0
78F1E0
71E0F0
E3C0F0
E7C0F0
E780F0
CF80F0
CF81F0
3F01F0
1F01E0
1F01E0
1F03E0
1E03E0
3E03C0
3E07C0
3E0780
1E0F00
1F1F00
1FFE00
0FF800
07E000
000000
000000
038000
07C000
07C000
07C000
038000
ENDCHAR
STARTCHAR uni1ECD
ENCODING 7885
SWIDTH 433 0
DWIDTH 14 0
BBX 19 23 -1 -7
BITMAP
03E000
07F000
0F3800
1E1820
3E38C0
3C3F80
7C3C00
7C3800
783800
F83800
F87000
F87000
F8E000
7FE000
7FC000
1F0000
000000
000000
1C0000
3E0000
3E0000
3E0000
1C0000
ENDCHAR
STARTCHAR uni1ECE
ENCODING 7886
SWIDTH 665 0
DWIDTH 21 0
BBX 20 32 1 0
BITMAP
000F00
001F80
0001C0
0001C0
000780
000600
000400
000000
00FF00
03FFC0
0F03C0
3C79E0
78F1E0
71E0F0
E3C0F0
E7C0F0
E780F0
CF80F0
CF81F0
3F01F0
1F01E0
1F01E0
1F03E0
1E03E0
3E03C0
3E07C0
3E0780
1E0F00
1F1F00
1FFE00
0FF800
07E000
ENDCHAR
STARTCHAR uni1ECF
ENCODING 7887
SWIDTH 433 0
DWIDTH 14 0
BBX 19 25 -1 0
BITMAP
00F800
00FC00
000C00
000C00
007800
006000
004000
000000
000000
03E000
07F000
0F3800
1E1820
3E38C0
3C3F80
7C3C00
7C3800
783800
F83800
F87000
F87000
F8E000
7FE000
7FC000
1F0000
ENDCHAR
STARTCHAR uni1ED0
ENCODING 7888
SWIDTH 665 0
DWIDTH 21 0
BBX 21 32 1 0
BITMAP
000018
000038
000330
000760
000D40
001980
006080
000000
00FF00
03FFC0
0F03C0
3C79E0
78F1E0
71E0F0
E3C0F0
E7C0F0
E780F0
CF80F0
CF81F0
3F01F0
1F01E0
1F01E0
1F03E0
1E03E0
3E03C0
3E07C0
3E0780
1E0F00
1F1F00
1FFE00
0FF800
07E000
ENDCHAR
STARTCHAR uni1ED1
ENCODING 7889
SWIDTH 433 0
DWIDTH 14 0
BBX 19 28 -1 0
BITMAP
0000E0
0001C0
000180
000380
001300
003000
007000
01D800
038800
060800
000000
000000
03E000
07F000
0F3800
1E1820
3E38C0
3C3F80
7C3C00
7C3800
783800
F83800
F87000
F87000
F8E000
7FE000
7FC000
1F0000
ENDCHAR
STARTCHAR uni1ED2
ENCODING 7890
SWIDTH 665 0
DWIDTH 21 0
BBX 20 32 1 0
BITMAP
000060
000120
000320
000F30
001980
007080
000000
000000
00FF00
03FFC0
0F03C0
3C79E0
78F1E0
71E0F0
E3C0F0
E7C0F0
E780F0
CF80F0
CF81F0
3F01F0
1F01E0
1F01E0
1F03E0
1E03E0
3E03C0
3E07C0
3E0780
1E0F00
1F1F00
1FFE00
0FF800
07E000
ENDCHAR
STARTCHAR uni1ED3
ENCODING 7891
SWIDTH 433 0
DWIDTH 14 0
BBX 19 27 -1 0
BITMAP
000700
000300
000300
001300
003100
00F000
01D800
038800
060800
000000
000000
03E000
07F000
0F3800
1E1820
3E38C0
3C3F80
7C3C00
7C3800
783800
F83800
F87000
F87000
F8E000
7FE000
7FC000
1F0000
ENDCHAR
STARTCHAR uni1ED4
ENCODING 7892
SWIDTH 665 0
DWIDTH 21 0
BBX 22 32 1 0
BITMAP
000078
00000C
00030C
000738
001DA0
003180
004000
000000
00FF00
03FFC0
0F03C0
3C79E0
78F1E0
71E0F0
E3C0F0
E7C0F0
E780F0
CF80F0
CF81F0
3F01F0
1F01E0
1F01E0
1F03E0
1E03E0
3E03C0
3E07C0
3E0780
1E0F00
1F1F00
1FFE00
0FF800
07E000
ENDCHAR
STARTCHAR uni1ED5
ENCODING 7893
SWIDTH 433 0
DWIDTH 14 0
BBX 19 26 -1 0
BITMAP
000780
000080
001380
003200
00F000
01D800
038800
060800
000000
000000
03E000
07F000
0F3800
1E1820
3E38C0
3C3F80
7C3C00
7C3800
783800
F83800
F87000
F87000
F8E000
7FE000
7FC000
1F0000
ENDCHAR
STARTCHAR uni1ED6
ENCODING 7894
SWIDTH 665 0
DWIDTH 21 0
BBX 20 32 1 0
BITMAP
000200
000FF0
0013C0
000700
000D00
001980
006080
000000
00FF00
03FFC0
0F03C0
3C79E0
78F1E0
71E0F0
E3C0F0
E7C0F0
E780F0
CF80F0
CF81F0
3F01F0
1F01E0
1F01E0
1F03E0
1E03E0
3E03C0
3E07C0
3E0780
1E0F00
1F1F00
1FFE00
0FF800
07E000
ENDCHAR
STARTCHAR uni1ED7
ENCODING 7895
SWIDTH 433 0
DWIDTH 14 0
BBX 19 27 -1 0
BITMAP
007F00
01FE00
000000
001000
003000
007000
01D800
038800
060800
000000
000000
03E000
07F000
0F3800
1E1820
3E38C0
3C3F80
7C3C00
7C3800
783800
F83800
F87000
F87000
F8E000
7FE000
7FC000
1F0000
ENDCHAR
STARTCHAR uni1ED8
ENCODING 7896
SWIDTH 665 0
DWIDTH 21 0
BBX 20 39 1 -7
BITMAP
000200
000600
000F00
001F00
003900
006180
008080
000000
00FF00
03FFC0
0F03C0
3C79E0
78F1E0
71E0F0
E3C0F0
E7C0F0
E780F0
CF80F0
CF81F0
3F01F0
1F01E0
1F01E0
1F03E0
1E03E0
3E03C0
3E07C0
3E0780
1E0F00
1F1F00
1FFE00
0FF800
07E000
000000
000000
038000
07C000
07C000
07C000
038000
ENDCHAR
STARTCHAR uni1ED9
ENCODING 7897
SWIDTH 433 0
DWIDTH 14 0
BBX 19 31 -1 -7
BITMAP
003000
007000
00F000
01F800
039800
060800
080000
000000
03E000
07F000
0F3800
1E1820
3E38C0
3C3F80
7C3C00
7C3800
783800
F83800
F87000
F87000
F8E000
7FE000
7FC000
1F0000
000000
000000
1C0000
3E0000
3E0000
3E0000
1C0000
ENDCHAR
STARTCHAR uni1EDA
ENCODING 7898
SWIDTH 665 0
DWIDTH 21 0
BBX 22 32 1 0
BITMAP
0001C0
000380
000380
000700
00061C
000E1C
000C1C
00001C
00FE18
03FFB8
0F03F0
3C79E0
78F1E0
71E0F0
E3C0F0
E7C0F0
E780F0
CF80F0
CF81F0
3F01F0
1F01F0
1F01E0
1F03E0
1E03E0
3E03C0
3E07C0
3E0780
1E0F80
1F1F00
1FFE00
0FFC00
07E000
ENDCHAR
STARTCHAR uni1EDB
ENCODING 7899
SWIDTH 439 0
DWIDTH 14 0
BBX 16 24 0 0
BITMAP
0038
0070
0070
00E0
00C7
01C7
0006
0006
03CE
0FFC
1E78
3C30
7C30
7830
F830
F870
F870
F070
F0F0
F0E0
F9C0
FFC0
7F80
3E00
ENDCHAR
STARTCHAR uni1EDC
ENCODING 7900
SWIDTH 665 0
DWIDTH 21 0
BBX 22 32 1 0
BITMAP
007000
007000
007000
003800
00381C
00381C
00001C
00001C
00FE18
03FFB8
0F03F0
3C79E0
78F1E0
71E0F0
E3C0F0
E7C0F0
E780F0
CF80F0
CF81F0
3F01F0
1F01F0
1F01E0
1F03E0
1E03E0
3E03C0
3E07C0
3E0780
1E0F80
1F1F00
1FFE00
0FFC00
07E000
ENDCHAR
STARTCHAR uni1EDD
ENCODING 7901
SWIDTH 439 0
DWIDTH 14 0
BBX 16 24 0 0
BITMAP
0380
0380
0180
01C2
01C7
01C7
0006
0006
03CE
0FFC
1E78
3C30
7C30
7830
F830
F870
F870
F070
F0F0
F0E0
F9C0
FFC0
7F80
3E00
ENDCHAR
STARTCHAR uni1EDE
ENCODING 7902
SWIDTH 665 0
DWIDTH 21 0
BBX 22 32 1 0
BITMAP
000F00
001F80
0001C0
0001C0
00079C
00061C
00041C
00001C
00FE18
03FFB8
0F03F0
3C79E0
78F1E0
71E0F0
E3C0F0
E7C0F0
E780F0
CF80F0
CF81F0
3F01F0
1F01F0
1F01E0
1F03E0
1E03E0
3E03C0
3E07C0
3E0780
1E0F80
1F1F00
1FFE00
0FFC00
07E000
ENDCHAR
STARTCHAR uni1EDF
ENCODING 7903
SWIDTH 439 0
DWIDTH 14 0
BBX 16 25 0 0
BITMAP
01F0
01F8
0018
0018
00F6
00C7
0087
0006
0006
03CC
0FFC
1E78
3C30
7C30
7830
F830
F870
F870
F070
F0F0
F0E0
F9C0
FFC0
7F80
3E00
ENDCHAR
STARTCHAR uni1EE0
ENCODING 7904
SWIDTH 665 0
DWIDTH 21 0
BBX 22 30 1 0
BITMAP
001000
00FFC0
01FF9C
021F1C
00001C
00001C
00FE18
03FFB8
0F03F0
3C79E0
78F1E0
71E0F0
E3C0F0
E7C0F0
E780F0
CF80F0
CF81F0
3F01F0
1F01F0
1F01E0
1F03E0
1E03E0
3E03C0
3E07C0
3E0780
1E0F80
1F1F00
1FFE00
0FFC00
07E000
ENDCHAR
STARTCHAR uni1EE1
ENCODING 7905
SWIDTH 439 0
DWIDTH 14 0
BBX 16 22 0 0
BITMAP
0200
0FF2
1FE7
23C7
0006
0006
03CE
0FFC
1E78
3C30
7C30
7830
F830
F870
F870
F070
F0F0
F0E0
F9C0
FFC0
7F80
3E00
ENDCHAR
STARTCHAR uni1EE2
ENCODING 7906
SWIDTH 665 0
DWIDTH 21 0
BBX 22 35 1 -7
BITMAP
00001C
00001C
00001C
00001C
00FE18
03FFB8
0F03F0
3C79E0
78F1E0
71E0F0
E3C0F0
E7C0F0
E780F0
CF80F0
CF81F0
3F01F0
1F01F0
1F01E0
1F03E0
1E03E0
3E03C0
3E07C0
3E0780
1E0F80
1F1F00
1FFE00
0FFC00
07E000
000000
000000
038000
07C000
07C000
07C000
038000
ENDCHAR
STARTCHAR uni1EE3
ENCODING 7907
SWIDTH 439 0
DWIDTH 14 0
BBX 16 28 0 -7
BITMAP
0002
0007
0007
0006
0006
03CE
0FFC
1E78
3C30
7C30
7830
F830
F870
F870
F070
F0F0
F0E0
F9C0
FFC0
7F80
3E00
0000
0000
3800
7C00
7C00
7C00
3800
ENDCHAR
STARTCHAR uni1EE4
ENCODING 7908
SWIDTH 716 0
DWIDTH 23 0
BBX 24 31 0 -7
BITMAP
00F80F
07F81F
0EF81F
38F81E
70F01E
70F03E
E1F03E
E1E03E
E1E03C
E1E03C
63E07C
03C07C
03C078
03C078
07C0F8
0780F8
0780F0
0781F0
0781F0
0781E0
07C3E0
07FFC0
03FF80
01FC00
000000
000000
00E000
00F000
01F000
00F000
00E000
ENDCHAR
STARTCHAR uni1EE5
ENCODING 7909
SWIDTH 505 0
DWIDTH 16 0
BBX 18 23 0 -7
BITMAP
3E3E00
3C3C00
3C3C00
7C7C00
7C7C00
7C7C00
787800
78F800
F8F800
F8F800
F8F0C0
F1F080
F9F100
FFFF00
FEFE00
787800
000000
000000
0E0000
1E0000
1F0000
1E0000
0E0000
ENDCHAR
STARTCHAR uni1EE6
ENCODING 7910
SWIDTH 716 0
DWIDTH 23 0
BBX 24 32 0 0
BITMAP
0000F0
0001F8
000018
000018
0000F0
0000C0
0000C0
000000
00F80F
07F81F
0EF81F
38F81E
70F01E
70F03E
E1F03E
E1E03E
E1E03C
E1E03C
63E07C
03C07C
03C078
03C078
07C0F8
0780F8
0780F0
0781F0
0781F0
0781E0
07C3E0
07FFC0
03FF80
01FC00
ENDCHAR
STARTCHAR uni1EE7
ENCODING 7911
SWIDTH 505 0
DWIDTH 16 0
BBX 18 25 0 0
BITMAP
01E000
03F000
003000
003000
01F000
01C000
018000
000000
000000
3E3E00
3C3C00
3C3C00
7C7C00
7C7C00
7C7C00
787800
78F800
F8F800
F8F800
F8F0C0
F1F080
F9F100
FFFF00
FEFE00
787800
ENDCHAR
STARTCHAR uni1EE8
ENCODING 7912
SWIDTH 716 0
DWIDTH 23 0
BBX 28 32 0 0
BITMAP
00001C00
00003800
00003820
00007070
00007070
0000E070
0000C060
000000E0
00F80FC0
07F81F80
0EF81F00
38F81F00
70F01E00
70F03E00
E1F03E00
E1E03E00
E1E03C00
E1E03C00
63E07C00
03C07C00
03C07C00
03C07800
07C0F800
0780F800
0780F000
0781F000
0781F000
0781E000
07C3E000
07FFC000
03FF8000
01FE0000
ENDCHAR
STARTCHAR uni1EE9
ENCODING 7913
SWIDTH 505 0
DWIDTH 16 0
BBX 18 24 0 0
BITMAP
003C00
003800
007000
007180
00E1C0
00C180
000180
000300
3E3F00
3C3C00
3C3C00
7C7C00
7C7C00
7C7C00
787800
78F800
F8F800
F8F800
F8F0C0
F1F080
F9F100
FFFF00
FEFE00
787800
ENDCHAR
STARTCHAR uni1EEA
ENCODING 7914
SWIDTH 716 0
DWIDTH 23 0
BBX 28 32 0 0
BITMAP
00070000
00078000
00038070
00038070
00038070
00018070
00000060
000000C0
00F80FC0
07F81F00
0EF81F00
38F81E00
70F01E00
70F03E00
E1F03E00
E1E03E00
E1E03C00
E1E03C00
63E07C00
03C07C00
03C07800
03C07800
07C0F800
0780F800
0780F000
0781F000
0781F000
0781E000
07C3E000
07FFC000
03FF8000
01FC0000
ENDCHAR
STARTCHAR uni1EEB
ENCODING 7915
SWIDTH 505 0
DWIDTH 16 0
BBX 18 24 0 0
BITMAP
038000
03C000
01C000
01C180
01C1C0
00C180
000180
000300
3E3E00
3C3C00
3C3C00
7C7C00
7C7C00
7C7C00
787800
78F800
F8F800
F8F800
F8F0C0
F1F080
F9F100
FFFF00
FEFE00
787800
ENDCHAR
STARTCHAR uni1EEC
ENCODING 7916
SWIDTH 716 0
DWIDTH 23 0
BBX 28 32 0 0
BITMAP
0000F000
0001F800
00001820
00001870
0000F070
0000C070
0000C060
000000E0
00F80FC0
07F81F80
0EF81F00
38F81F00
70F01E00
70F03E00
E1F03E00
E1E03E00
E1E03C00
E1E03C00
63E07C00
03C07C00
03C07C00
03C07800
07C0F800
0780F800
0780F000
0781F000
0781F000
0781E000
07C3E000
07FFC000
03FF8000
01FE0000
ENDCHAR
STARTCHAR uni1EED
ENCODING 7917
SWIDTH 505 0
DWIDTH 16 0
BBX 18 25 0 0
BITMAP
01E000
03F000
003000
003000
01F1C0
01C180
018180
000380
000300
3E3E00
3C3C00
3C3C00
7C7C00
7C7C00
7C7C00
787800
78F800
F8F800
F8F800
F8F0C0
F1F080
F9F100
FFFF00
FEFE00
787800
ENDCHAR
STARTCHAR uni1EEE
ENCODING 7918
SWIDTH 716 0
DWIDTH 23 0
BBX 28 30 0 0
BITMAP
00008020
0007FF70
001FFE70
0010F870
00000060
000000E0
00F80FC0
07F81F80
0EF81F00
38F81F00
70F01E00
70F03E00
E1F03E00
E1E03E00
E1E03C00
E1E03C00
63E07C00
03C07C00
03C07C00
03C07800
07C0F800
0780F800
0780F000
0781F000
0781F000
0781E000
07C3E000
07FFC000
03FF8000
01FE0000
ENDCHAR
STARTCHAR uni1EEF
ENCODING 7919
SWIDTH 505 0
DWIDTH 16 0
BBX 18 22 0 0
BITMAP
010000
07F980
0FF9C0
09E180
000380
000300
3E3F00
3C3E00
3C3C00
7C7C00
7C7C00
7C7C00
787800
78F800
F8F800
F8F800
F8F0C0
F1F080
F9F100
FFFF00
FEFE00
787800
ENDCHAR
STARTCHAR uni1EF0
ENCODING 7920
SWIDTH 716 0
DWIDTH 23 0
BBX 28 37 0 -7
BITMAP
00000020
00000070
00000070
00000070
00000060
000000E0
00F80FC0
07F81F80
0EF81F00
38F81F00
70F01E00
70F03E00
E1F03E00
E1E03E00
E1E03C00
E1E03C00
63E07C00
03C07C00
03C07C00
03C07800
07C0F800
0780F800
0780F000
0781F000
0781F000
0781E000
07C3E000
07FFC000
03FF8000
01FE0000
00000000
00000000
00E00000
00F00000
01F00000
00F00000
00E00000
ENDCHAR
STARTCHAR uni1EF1
ENCODING 7921
SWIDTH 505 0
DWIDTH 16 0
BBX 18 28 0 -7
BITMAP
000180
0001C0
000180
000180
000300
3E3F00
3C3E00
3C3C00
7C7C00
7C7C00
7C7C00
787800
78F800
F8F800
F8F800
F8F0C0
F1F080
F9F100
FFFF00
FEFE00
787800
000000
000000
0E0000
1E0000
1F0000
1E0000
0E0000
ENDCHAR
STARTCHAR Ygrave
ENCODING 7922
SWIDTH 620 0
DWIDTH 20 0
BBX 22 31 0 0
BITMAP
000780
000380
000380
000180
0001C0
0001C0
000000
00F80C
03F80C
0EF818
1CFC18
387C30
707C30
F07C20
E07E60
E03E60
E03EC0
603EC0
103F80
001F80
001F00
001F00
001F00
003F00
003E00
003E00
003E00
003E00
007E00
007C00
007C00
ENDCHAR
STARTCHAR ygrave
ENCODING 7923
SWIDTH 505 0
DWIDTH 16 0
BBX 17 32 0 -8
BITMAP
038000
038000
01C000
01C000
01C000
00C000
000000
000000
3E3E00
3C3C00
3C3C00
7C7C00
7C7C00
7C7C00
787800
78F800
F8F800
F8F800
F8F180
F1F100
F9F300
FFF200
FFFC00
79F800
07E000
1FE000
3BE000
33E000
67C000
7FC000
3F8000
1E0000
ENDCHAR
STARTCHAR uni1EF4
ENCODING 7924
SWIDTH 620 0
DWIDTH 20 0
BBX 22 31 0 -7
BITMAP
00F80C
03F80C
0EF818
1CFC18
387C30
707C30
F07C20
E07E60
E03E60
E03EC0
603EC0
103F80
001F80
001F00
001F00
001F00
003F00
003E00
003E00
003E00
003E00
007E00
007C00
007C00
000000
000000
007000
00F800
00F800
00F800
007000
ENDCHAR
STARTCHAR uni1EF5
ENCODING 7925
SWIDTH 505 0
DWIDTH 16 0
BBX 17 24 0 -8
BITMAP
3E3E00
3C3C00
3C3C00
7C7C00
7C7C00
7C7C00
787800
78F800
F8F800
F8F800
F8F180
F1F100
F9F300
FFF200
FFFC00
79F800
07E000
1FE000
3BE000
33E000
67CE00
7FDE00
3F9E00
1E0E00
ENDCHAR
STARTCHAR uni1EF6
ENCODING 7926
SWIDTH 620 0
DWIDTH 20 0
BBX 22 32 0 0
BITMAP
0000F0
0001F8
000018
000018
0000F0
0000C0
0000C0
000000
00F80C
03F80C
0EF818
1CFC18
387C30
707C30
F07C20
E07E60
E03E60
E03EC0
603EC0
103F80
001F80
001F00
001F00
001F00
003F00
003E00
003E00
003E00
003E00
007E00
007C00
007C00
ENDCHAR
STARTCHAR uni1EF7
ENCODING 7927
SWIDTH 505 0
DWIDTH 16 0
BBX 17 32 0 -8
BITMAP
01E000
03F000
003000
003000
01F000
01C000
018000
000000
3E3E00
3C3C00
3C3C00
7C7C00
7C7C00
7C7C00
787800
78F800
F8F800
F8F800
F8F180
F1F100
F9F300
FFF200
FFFC00
79F800
07E000
1FE000
3BE000
33E000
67C000
7FC000
3F8000
1E0000
ENDCHAR
STARTCHAR uni1EF8
ENCODING 7928
SWIDTH 620 0
DWIDTH 20 0
BBX 23 30 0 0
BITMAP
000100
000FE2
001FFC
0021F0
000000
000000
00F80C
03F80C
0EF818
1CFC18
387C30
707C30
F07C20
E07E60
E03E60
E03EC0
603EC0
103F80
001F80
001F00
001F00
001F00
003F00
003E00
003E00
003E00
003E00
007E00
007C00
007C00
ENDCHAR
STARTCHAR uni1EF9
ENCODING 7929
SWIDTH 505 0
DWIDTH 16 0
BBX 17 30 0 -8
BITMAP
008000
07F100
0FFE00
10F800
000000
000000
3E3E00
3C3C00
3C3C00
7C7C00
7C7C00
7C7C00
787800
78F800
F8F800
F8F800
F8F180
F1F100
F9F300
FFF200
FFFC00
79F800
07E000
1FE000
3BE000
33E000
67C000
7FC000
3F8000
1E0000
ENDCHAR
STARTCHAR uni2010
ENCODING 8208
SWIDTH 290 0
DWIDTH 9 0
BBX 7 2 1 7
BITMAP
FE
FC
ENDCHAR
STARTCHAR endash
ENCODING 8211
SWIDTH 352 0
DWIDTH 11 0
BBX 9 2 1 7
BITMAP
FF80
FF00
ENDCHAR
STARTCHAR emdash
ENCODING 8212
SWIDTH 444 0
DWIDTH 14 0
BBX 11 2 1 7
BITMAP
FFE0
FFE0
ENDCHAR
STARTCHAR quoteleft
ENCODING 8216
SWIDTH 209 0
DWIDTH 7 0
BBX 4 7 3 16
BITMAP
30
60
60
F0
F0
F0
70
ENDCHAR
STARTCHAR quoteright
ENCODING 8217
SWIDTH 238 0
DWIDTH 8 0
BBX 4 7 3 17
BITMAP
70
F0
F0
F0
70
60
C0
ENDCHAR
STARTCHAR quotesinglbase
ENCODING 8218
SWIDTH 220 0
DWIDTH 7 0
BBX 4 7 0 -2
BITMAP
E0
F0
F0
F0
60
60
C0
ENDCHAR
STARTCHAR quotedblleft
ENCODING 8220
SWIDTH 429 0
DWIDTH 14 0
BBX 11 7 3 16
BITMAP
3040
6080
6180
F3C0
F3E0
F3C0
71C0
ENDCHAR
STARTCHAR quotedblright
ENCODING 8221
SWIDTH 426 0
DWIDTH 14 0
BBX 11 7 3 17
BITMAP
71C0
79E0
F9E0
79E0
30C0
20C0
4180
ENDCHAR
STARTCHAR quotedblbase
ENCODING 8222
SWIDTH 440 0
DWIDTH 14 0
BBX 10 7 0 -2
BITMAP
E1C0
F3C0
F3C0
F3C0
6180
6180
C300
ENDCHAR
STARTCHAR dagger
ENCODING 8224
SWIDTH 495 0
DWIDTH 16 0
BBX 13 32 2 -8
BITMAP
00C0
01C0
01C0
0180
0180
0180
0380
0300
0300
0300
7FF8
7FF0
FFF0
FFF0
0600
0600
0E00
0C00
0C00
0C00
1C00
1C00
1800
1800
1800
3800
3000
3000
3000
3000
7000
6000
ENDCHAR
STARTCHAR daggerdbl
ENCODING 8225
SWIDTH 495 0
DWIDTH 16 0
BBX 14 32 1 -8
BITMAP
0060
00E0
00E0
00C0
00C0
00C0
01C0
0180
0180
0180
3FFC
3FF8
7FF8
7FF8
0300
0700
0700
FFF0
FFF0
FFF0
FFF0
0E00
0C00
0C00
0C00
1C00
1C00
1800
1800
1800
3800
3000
ENDCHAR
STARTCHAR bullet
ENCODING 8226
SWIDTH 434 0
DWIDTH 14 0
BBX 6 6 4 5
BITMAP
78
FC
FC
FC
FC
78
ENDCHAR
STARTCHAR ellipsis
ENCODING 8230
SWIDTH 702 0
DWIDTH 22 0
BBX 20 5 1 0
BITMAP
7070E0
F8F0F0
F8F9F0
F8F0F0
70F0E0
ENDCHAR
STARTCHAR perthousand
ENCODING 8240
SWIDTH 1175 0
DWIDTH 38 0
BBX 35 24 2 0
BITMAP
0F00E00000
3F80C00000
3981C00000
71C1800000
F1C3800000
E1C3000000
E1C6000000
E1C6000000
E38C000000
E39C000000
E318000000
E7387807C0
E630FC0FE0
7C71CE1CE0
00638E38E0
00C38E38E0
00C70E78E0
01870E70E0
03870E70E0
03070C70E0
07071C71C0
0607187180
0E03303300
1C01E01E00
ENDCHAR
STARTCHAR minute
ENCODING 8242
SWIDTH 196 0
DWIDTH 6 0
BBX 6 8 2 16
BITMAP
3C
38
38
30
70
60
60
C0
ENDCHAR
STARTCHAR second
ENCODING 8243
SWIDTH 341 0
DWIDTH 11 0
BBX 11 8 2 16
BITMAP
3DE0
39C0
3B80
3380
7300
6300
6600
C600
ENDCHAR
STARTCHAR guilsinglleft
ENCODING 8249
SWIDTH 359 0
DWIDTH 11 0
BBX 10 11 1 3
BITMAP
00C0
0380
0700
1C00
7000
C000
E000
7000
1C00
0700
0300
ENDCHAR
STARTCHAR guilsinglright
ENCODING 8250
SWIDTH 344 0
DWIDTH 11 0
BBX 11 11 0 3
BITMAP
1000
3800
0E00
0700
01C0
00E0
01C0
0780
1E00
7800
C000
ENDCHAR
STARTCHAR fraction
ENCODING 8260
SWIDTH 248 0
DWIDTH 8 0
BBX 15 24 -3 0
BITMAP
0006
000E
000C
0018
0018
0030
0070
0060
00E0
00C0
01C0
0180
0300
0300
0600
0600
0C00
1C00
1800
3800
3000
7000
6000
C000
ENDCHAR
STARTCHAR uni2052
ENCODING 8274
SWIDTH 796 0
DWIDTH 25 0
BBX 16 24 5 0
BITMAP
7007
F806
F80E
F80C
701C
0018
0030
0030
0060
00E0
00C0
01C0
0180
0380
0300
0600
0600
0C00
1C00
180E
381F
301F
701F
E00E
ENDCHAR
STARTCHAR uni2070
ENCODING 8304
SWIDTH 379 0
DWIDTH 12 0
BBX 10 14 2 10
BITMAP
0F00
3F80
3980
71C0
F1C0
E1C0
E1C0
E1C0
E380
E380
E300
E700
E600
7C00
ENDCHAR
STARTCHAR uni2074
ENCODING 8308
SWIDTH 352 0
DWIDTH 11 0
BBX 9 13 2 11
BITMAP
3380
3B80
3B00
3700
7700
6700
4700
FF80
0E00
0E00
0E00
0C00
1C00
ENDCHAR
STARTCHAR uni2075
ENCODING 8309
SWIDTH 335 0
DWIDTH 11 0
BBX 8 14 2 11
BITMAP
01
3F
2F
20
60
60
7E
7F
87
E7
C7
C7
CE
78
ENDCHAR
STARTCHAR uni2076
ENCODING 8310
SWIDTH 351 0
DWIDTH 11 0
BBX 9 13 2 11
BITMAP
0F00
3980
7180
7100
E000
EE00
FF00
F300
E300
E300
E700
E600
7C00
ENDCHAR
STARTCHAR uni2077
ENCODING 8311
SWIDTH 329 0
DWIDTH 11 0
BBX 8 13 2 11
BITMAP
FF
FF
86
0C
18
18
30
70
E0
E0
E0
E0
60
ENDCHAR
STARTCHAR uni2078
ENCODING 8312
SWIDTH 354 0
DWIDTH 11 0
BBX 9 13 2 11
BITMAP
1F00
3980
3180
3180
3B00
3E00
3E00
6F00
C700
C380
C300
E700
7C00
ENDCHAR
STARTCHAR uni2079
ENCODING 8313
SWIDTH 345 0
DWIDTH 11 0
BBX 9 13 2 11
BITMAP
1E00
6700
6300
C380
C380
CB80
FB80
7700
0700
0600
CE00
9C00
F000
ENDCHAR
STARTCHAR uni2080
ENCODING 8320
SWIDTH 379 0
DWIDTH 12 0
BBX 10 13 2 0
BITMAP
0F00
3F80
79C0
71C0
F1C0
E1C0
E1C0
E180
E380
E380
E700
E600
7C00
ENDCHAR
STARTCHAR uni2081
ENCODING 8321
SWIDTH 229 0
DWIDTH 7 0
BBX 6 13 1 0
BITMAP
0C
7C
78
18
38
38
38
30
70
70
70
60
E0
ENDCHAR
STARTCHAR uni2082
ENCODING 8322
SWIDTH 328 0
DWIDTH 11 0
BBX 8 13 2 0
BITMAP
3E
67
67
67
37
0E
0C
18
30
60
C0
FF
FE
ENDCHAR
STARTCHAR uni2083
ENCODING 8323
SWIDTH 336 0
DWIDTH 11 0
BBX 8 13 2 0
BITMAP
1E
33
63
73
07
1C
0E
47
E7
C7
C7
CE
7C
ENDCHAR
STARTCHAR uni2084
ENCODING 8324
SWIDTH 352 0
DWIDTH 11 0
BBX 9 13 2 0
BITMAP
3380
3B80
3B00
3700
7700
6700
4700
FF80
0E00
0E00
0E00
0C00
1C00
ENDCHAR
STARTCHAR uni2085
ENCODING 8325
SWIDTH 335 0
DWIDTH 11 0
BBX 8 13 2 0
BITMAP
3F
3F
20
60
7E
7F
4F
07
E7
C7
C6
CE
78
ENDCHAR
STARTCHAR uni2086
ENCODING 8326
SWIDTH 351 0
DWIDTH 11 0
BBX 9 13 2 0
BITMAP
0F00
3980
7180
7100
E000
EE00
FF00
F300
E300
E300
E700
EE00
7800
ENDCHAR
STARTCHAR uni2087
ENCODING 8327
SWIDTH 329 0
DWIDTH 11 0
BBX 8 13 2 0
BITMAP
FF
FF
86
0C
1C
18
30
70
E0
E0
E0
E0
E0
ENDCHAR
STARTCHAR uni2088
ENCODING 8328
SWIDTH 354 0
DWIDTH 11 0
BBX 9 13 2 0
BITMAP
1F00
3980
3180
3180
3B00
3E00
3E00
6F00
C700
C380
C300
E700
7C00
ENDCHAR
STARTCHAR uni2089
ENCODING 8329
SWIDTH 345 0
DWIDTH 11 0
BBX 9 13 2 0
BITMAP
1E00
6700
E300
C380
C380
CB80
FB80
7700
0700
0700
CE00
9C00
F000
ENDCHAR
STARTCHAR colonmonetary
ENCODING 8353
SWIDTH 384 0
DWIDTH 12 0
BBX 13 24 0 -1
BITMAP
0190
01B0
0130
0330
03F0
0FF8
1E38
3C38
3838
7800
7000
F000
F000
F000
F000
F000
7820
7FE0
3FC0
1F80
1300
3300
3200
3600
ENDCHAR
STARTCHAR franc
ENCODING 8355
SWIDTH 529 0
DWIDTH 17 0
BBX 19 24 0 0
BITMAP
01FFE0
01FFC0
01FFC0
01F000
01F000
01F000
01E000
03E000
03E000
03E000
03FE00
03FE00
07FC00
07C000
07C000
078000
0F8000
7FF800
FFF800
0F8000
0F0000
1F0000
1F0000
1F0000
ENDCHAR
STARTCHAR lira
ENCODING 8356
SWIDTH 455 0
DWIDTH 15 0
BBX 16 24 0 0
BITMAP
003E
00FF
01E7
03E7
03C7
03C6
07C0
0780
0780
3FFC
7FF8
0F80
0F00
7FF8
7FF8
1F00
1F00
1E00
1E01
1C03
3FFF
7FFF
FFFE
40FC
ENDCHAR
STARTCHAR uni20A6
ENCODING 8358
SWIDTH 723 0
DWIDTH 23 0
BBX 25 24 0 0
BITMAP
00F00E00
00F80E00
00F81E00
01F81C00
01F81C00
01FC1C00
01FC1C00
01FC3800
03BC3800
03BC3800
3FFFFF80
7FFFFF80
073E7000
071E7000
7FFFFF00
FFFFFF00
071FE000
0E0FE000
0E0FE000
0E0FE000
0E0FC000
1C07C000
1C07C000
1C07C000
ENDCHAR
STARTCHAR uni20A9
ENCODING 8361
SWIDTH 841 0
DWIDTH 27 0
BBX 30 24 0 0
BITMAP
0F80F018
0F80F018
0F81F038
0F81F030
0F81F030
0F83F060
0F83F060
0F83F060
0F86F0C0
0F86F0C0
0786F0C0
3FFFFFFC
7FFFFFF8
0788F100
0798F300
7FFFFFF8
FFFFFFF0
07B0F600
07B0F600
07A0F400
07E0FC00
07C0F800
07C0F800
07C0F800
ENDCHAR
STARTCHAR Euro
ENCODING 8364
SWIDTH 507 0
DWIDTH 16 0
BBX 18 24 1 0
BITMAP
003F00
00FF80
01E3C0
03C1C0
07C3C0
0F87C0
0F8380
1F0000
1F0000
7FFE00
FFFC00
3E0000
3E0000
FFFC00
FFF800
3E0000
3E0000
3E0000
3E0000
1F0100
1F8600
0FFE00
0FFC00
03F000
ENDCHAR
STARTCHAR uni20AE
ENCODING 8366
SWIDTH 481 0
DWIDTH 15 0
BBX 23 24 0 0
BITMAP
01FC02
0FFF86
1FFFFE
3C7FFC
787CF8
707C00
F07C00
E07800
E0F800
E0F800
60F800
70F7C0
01FF00
3FF000
3DF180
01FF80
07F800
7FE000
63E000
03E000
03C000
03C000
07C000
07C000
ENDCHAR
STARTCHAR uni20B3
ENCODING 8371
SWIDTH 573 0
DWIDTH 18 0
BBX 19 24 0 0
BITMAP
00FE00
03FF80
0F03C0
1C11C0
39F1E0
71F1E0
F1E1E0
E1E1E0
E3E1E0
E3E1C0
63E3C0
13C780
07CF00
1FFE00
1FF800
278000
078000
3FFC00
3FF800
0F8000
0F0000
0F0000
1F0000
1F0000
ENDCHAR
STARTCHAR uni20B4
ENCODING 8372
SWIDTH 570 0
DWIDTH 18 0
BBX 16 25 1 -1
BITMAP
01FC
07FE
1E1F
180F
380F
381F
181E
003C
7FFF
7FFF
01C0
0380
FFFF
FFFE
1E00
3C00
783C
787E
F81E
F81E
F81E
7C1E
7F7C
3FF0
0300
ENDCHAR
STARTCHAR uni20B8
ENCODING 8376
SWIDTH 522 0
DWIDTH 17 0
BBX 24 24 0 0
BITMAP
1FFFFF
1FFFFF
000000
00FE01
07FFFE
0FFFFE
3E3EFC
7C3C00
783C00
F07C00
F07C00
F07800
F07800
70F800
00F800
00F800
00F000
00F000
01F000
01F000
01F000
01E000
03E000
03E000
ENDCHAR
STARTCHAR uni20B9
ENCODING 8377
SWIDTH 544 0
DWIDTH 17 0
BBX 17 25 2 0
BITMAP
7FFF80
7FFF00
03E000
00F000
FFFF00
FFFF00
00F000
00F000
00F000
01E000
07C000
FF8000
FF8000
0FC000
03E000
03E000
03E000
03E000
03C000
07C000
07C000
078000
078000
078000
07C000
ENDCHAR
STARTCHAR uni20BA
ENCODING 8378
SWIDTH 455 0
DWIDTH 15 0
BBX 16 24 1 0
BITMAP
03E0
03C0
03C0
07C0
07C0
07C8
07F8
07E0
1F80
7F8C
EFFC
0FE0
1F00
7F0C
5F07
1E07
1E07
3E07
3E0E
3E1E
3C3C
3FF8
7FE0
7F00
ENDCHAR
STARTCHAR uni20BD
ENCODING 8381
SWIDTH 573 0
DWIDTH 18 0
BBX 19 24 0 0
BITMAP
00FE00
03FF80
0F03C0
1C11C0
39F1E0
71F1E0
F1E1E0
E1E1E0
E3E1E0
E3E1C0
63C3C0
13C780
07CF00
3FFE00
3FF800
078000
078000
7FF000
7FF000
0F8000
0F0000
0F0000
1F0000
1F0000
ENDCHAR
STARTCHAR uni2116
ENCODING 8470
SWIDTH 996 0
DWIDTH 32 0
BBX 31 24 0 0
BITMAP
01F80E00
0FF80E00
1EF81E00
39F81C3C
71F81C76
71FC1CE6
F1FC1CE6
E1FC39C6
E3FC39C6
E3BE39C6
73BE39CC
139E39F8
039E70F0
071E7000
071F7002
071F73FC
070F63FC
0F0FE000
0E0FE000
0E0FE000
0E07E000
0E07C000
1C07C000
1C07C000
ENDCHAR
STARTCHAR uni2120
ENCODING 8480
SWIDTH 585 0
DWIDTH 19 0
BBX 14 9 3 14
BITMAP
1C00
346C
24CC
30CC
18DC
6D5C
CD6C
CE68
7A48
ENDCHAR
STARTCHAR trademark
ENCODING 8482
SWIDTH 379 0
DWIDTH 12 0
BBX 13 7 -1 14
BITMAP
3E98
9098
91B0
31B0
32D0
22D0
22B0
ENDCHAR
STARTCHAR uni2126
ENCODING 8486
SWIDTH 745 0
DWIDTH 24 0
BBX 21 25 1 0
BITMAP
000F80
007FE0
00FFF0
01E0F0
038078
070038
0E0038
1C0038
1C0018
1C0018
380038
380038
380038
380038
380030
380070
380060
3800E0
1800C0
1C0180
0C0300
060600
FF0FF0
FF1FF0
FF1FE0
ENDCHAR
STARTCHAR uni212A
ENCODING 8490
SWIDTH 601 0
DWIDTH 19 0
BBX 21 25 0 -1
BITMAP
00F838
03F070
0EF0E0
1DF1C0
39F1C0
71F380
71E700
E1E600
E3EC00
E3FC00
63F800
33FF00
07CF80
07C780
07C780
07C780
078780
0F8780
0F8F80
0F8F00
0F0F00
0F0F00
1F1F00
1F0F80
000400
ENDCHAR
STARTCHAR uni212B
ENCODING 8491
SWIDTH 668 0
DWIDTH 21 0
BBX 23 32 0 -3
BITMAP
00001C
000032
000022
000036
00001C
00007C
0001FC
00037C
000678
000C78
001CF8
0038F8
0030F8
0070F0
0FE0F0
3FFFF0
79C7F0
F1C1F0
F3C1E0
7383E0
0783E0
0783E0
0F03C0
0F03C0
0F07C0
1E07C0
1E07C0
1E0780
1E0780
1E0000
1E0000
1E0000
ENDCHAR
STARTCHAR estimated
ENCODING 8494
SWIDTH 786 0
DWIDTH 25 0
BBX 23 23 1 0
BITMAP
00FE00
03FF80
0F81E0
1E0070
3E0078
3E0078
7E007C
7E007C
FE007E
FE007E
FFFFFE
FFFFFE
FE0000
FE0000
FE0000
7E0000
7E0000
3E0000
3E0020
1E0070
0F01E0
03FF80
00FE00
ENDCHAR
STARTCHAR uni2153
ENCODING 8531
SWIDTH 733 0
DWIDTH 23 0
BBX 22 24 1 0
BITMAP
0000C0
0C0180
7C0380
780300
180700
380600
380E00
380C00
301800
701800
703000
707078
70619C
60E18C
80C1DC
01C018
018070
030038
03011C
06039C
0E071C
0C061C
1C0338
3801E0
ENDCHAR
STARTCHAR uni2154
ENCODING 8532
SWIDTH 852 0
DWIDTH 27 0
BBX 25 24 2 0
BITMAP
3E003800
67003000
67007000
77006000
2700C000
0E00C000
0C018000
18038000
30030000
60070000
C0060000
FF0E1F00
FE0C3380
00183380
00183B80
00300300
00701E00
00600600
00E02700
00C0F380
01C0C380
0180C700
03006700
07003C00
ENDCHAR
STARTCHAR oneeighth
ENCODING 8539
SWIDTH 741 0
DWIDTH 24 0
BBX 22 24 1 0
BITMAP
0000C0
0C0180
7C0380
780300
180700
380600
380E00
380C00
301800
701800
703000
707078
7061CC
60E1CC
80C1CC
01C1F8
0180F0
0300F8
0303B8
06071C
0E071C
0C071C
1C0338
3801F0
ENDCHAR
STARTCHAR threeeighths
ENCODING 8540
SWIDTH 828 0
DWIDTH 27 0
BBX 24 24 2 0
BITMAP
1E0070
330060
6300E0
7300C0
370180
0E0180
1C0300
060700
E70600
C70E00
C70C00
C71C1E
CE1873
7C3073
003073
006076
00E03C
00C03C
01C0CE
0181CF
038187
030186
0601CE
0E0078
ENDCHAR
STARTCHAR fiveeighths
ENCODING 8541
SWIDTH 827 0
DWIDTH 26 0
BBX 24 25 2 0
BITMAP
008000
3F0070
2F0060
2000C0
6000C0
600180
7E0380
7F0300
870700
E70600
C70E00
C70C00
CE183E
781873
003073
007073
006076
00E03C
00C03C
01C0DE
0181CF
030187
030186
0601CE
0E00F8
ENDCHAR
STARTCHAR seveneighths
ENCODING 8542
SWIDTH 761 0
DWIDTH 24 0
BBX 22 24 2 0
BITMAP
FF01C0
FF0180
860300
0C0700
180600
180E00
300C00
701C00
E01800
E03000
E03000
E060F8
60E1CC
00C18C
01C1CC
0181D8
0381F0
0301F0
060378
060738
0C061C
0C0618
180738
3803E0
ENDCHAR
STARTCHAR partialdiff
ENCODING 8706
SWIDTH 597 0
DWIDTH 19 0
BBX 18 25 1 0
BITMAP
003C00
00FF00
03FF80
018780
0103C0
0001C0
0001C0
0001C0
0001C0
0001C0
01F1C0
07FDC0
0FFFC0
1E0780
380380
700380
600700
E00700
E00E00
E01C00
E03C00
707800
7FF000
3FE000
1F8000
ENDCHAR
STARTCHAR uni2206
ENCODING 8710
SWIDTH 619 0
DWIDTH 20 0
BBX 19 24 0 0
BITMAP
000700
000F00
001F80
001F80
003B80
003B80
007380
00E380
00E3C0
01C3C0
01C1C0
0381C0
0301C0
0701C0
0E01C0
0E01E0
1C01E0
1C00E0
3800E0
7000E0
7000E0
FFFFE0
FFFFE0
FFFFE0
ENDCHAR
STARTCHAR product
ENCODING 8719
SWIDTH 661 0
DWIDTH 21 0
BBX 21 24 0 1
BITMAP
3FFFF8
3FFFF0
7FFFF0
070300
060700
060700
0E0700
0E0600
0E0600
0C0E00
1C0E00
1C0C00
1C0C00
181C00
181C00
381C00
381800
381800
303800
303800
703800
703000
603000
E07000
ENDCHAR
STARTCHAR summation
ENCODING 8721
SWIDTH 605 0
DWIDTH 19 0
BBX 19 24 1 0
BITMAP
0FFFE0
0FFFE0
0FFFC0
0F0000
070000
078000
038000
01C000
01C000
00E000
00F000
007000
007000
00E000
01C000
038000
070000
0E0000
1C0000
380000
700000
FFFE00
FFFC00
FFFC00
ENDCHAR
STARTCHAR minus
ENCODING 8722
SWIDTH 471 0
DWIDTH 15 0
BBX 12 3 1 10
BITMAP
7FF0
7FF0
FFF0
ENDCHAR
STARTCHAR uni2215
ENCODING 8725
SWIDTH 488 0
DWIDTH 16 0
BBX 16 24 0 0
BITMAP
0007
000E
000C
001C
0018
0038
0030
0060
0060
00C0
01C0
0180
0380
0300
0700
0600
0C00
0C00
1800
3800
3000
7000
6000
E000
ENDCHAR
STARTCHAR uni2219
ENCODING 8729
SWIDTH 434 0
DWIDTH 14 0
BBX 6 6 4 5
BITMAP
78
FC
FC
FC
FC
78
ENDCHAR
STARTCHAR radical
ENCODING 8730
SWIDTH 660 0
DWIDTH 21 0
BBX 19 24 1 0
BITMAP
000FE0
000FE0
001FE0
001C00
001800
003800
003800
003000
007000
007000
006000
00E000
00C000
01C000
F1C000
F18000
F38000
330000
3B0000
3F0000
3E0000
1E0000
1C0000
1C0000
ENDCHAR
STARTCHAR infinity
ENCODING 8734
SWIDTH 833 0
DWIDTH 27 0
BBX 22 10 1 4
BITMAP
0F80F8
1FC3FC
38E71C
707E0C
60380C
E0381C
E0FC1C
71CE38
7F87F0
3E03C0
ENDCHAR
STARTCHAR integral
ENCODING 8747
SWIDTH 305 0
DWIDTH 10 0
BBX 15 31 -3 -5
BITMAP
001E
003E
0072
0060
00E0
00E0
00E0
00C0
00C0
01C0
01C0
01C0
0180
0380
0380
0380
0380
0300
0700
0700
0700
0600
0600
0E00
0E00
0E00
0C00
1C00
1C00
F800
F000
ENDCHAR
ENDFONT
